<?xml version="1.0" encoding="utf-8" standalone="no"?>
<!DOCTYPE svg PUBLIC "-//W3C//DTD SVG 1.1//EN"
  "http://www.w3.org/Graphics/SVG/1.1/DTD/svg11.dtd">
<svg xmlns:xlink="http://www.w3.org/1999/xlink" width="576pt" height="360pt" viewBox="0 0 576 360" xmlns="http://www.w3.org/2000/svg" version="1.1">
 <metadata>
  <rdf:RDF xmlns:dc="http://purl.org/dc/elements/1.1/" xmlns:cc="http://creativecommons.org/ns#" xmlns:rdf="http://www.w3.org/1999/02/22-rdf-syntax-ns#">
   <cc:Work>
    <dc:type rdf:resource="http://purl.org/dc/dcmitype/StillImage"/>
    <dc:date>2026-03-06T23:57:08.615068</dc:date>
    <dc:format>image/svg+xml</dc:format>
    <dc:creator>
     <cc:Agent>
      <dc:title>Matplotlib v3.10.8, https://matplotlib.org/</dc:title>
     </cc:Agent>
    </dc:creator>
   </cc:Work>
  </rdf:RDF>
 </metadata>
 <defs>
  <style type="text/css">*{stroke-linejoin: round; stroke-linecap: butt}</style>
 </defs>
 <g id="figure_1">
  <g id="patch_1">
   <path d="M 0 360 
L 576 360 
L 576 0 
L 0 0 
z
" style="fill: #ffffff"/>
  </g>
  <g id="axes_1">
   <g id="patch_2">
    <path d="M 64.19 307.24 
L 565.2 307.24 
L 565.2 10.8 
L 64.19 10.8 
z
" style="fill: #ffffff"/>
   </g>
   <g id="matplotlib.axis_1">
    <g id="xtick_1">
     <g id="line2d_1">
      <path d="M 86.963182 307.24 
L 86.963182 10.8 
" clip-path="url(#p5d73bfe2fe)" style="fill: none; stroke: #b0b0b0; stroke-opacity: 0.3; stroke-width: 0.8; stroke-linecap: square"/>
     </g>
     <g id="line2d_2">
      <defs>
       <path id="m34ddab5a6b" d="M 0 0 
L 0 3.5 
" style="stroke: #000000; stroke-width: 0.8"/>
      </defs>
      <g>
       <use xlink:href="#m34ddab5a6b" x="86.963182" y="307.24" style="stroke: #000000; stroke-width: 0.8"/>
      </g>
     </g>
     <g id="text_1">
      <!-- −2.5 -->
      <g transform="translate(67.536932 326.3975) scale(0.16 -0.16)">
       <defs>
        <path id="DejaVuSans-2212" d="M 678 2272 
L 4684 2272 
L 4684 1741 
L 678 1741 
L 678 2272 
z
" transform="scale(0.015625)"/>
        <path id="DejaVuSans-32" d="M 1228 531 
L 3431 531 
L 3431 0 
L 469 0 
L 469 531 
Q 828 903 1448 1529 
Q 2069 2156 2228 2338 
Q 2531 2678 2651 2914 
Q 2772 3150 2772 3378 
Q 2772 3750 2511 3984 
Q 2250 4219 1831 4219 
Q 1534 4219 1204 4116 
Q 875 4013 500 3803 
L 500 4441 
Q 881 4594 1212 4672 
Q 1544 4750 1819 4750 
Q 2544 4750 2975 4387 
Q 3406 4025 3406 3419 
Q 3406 3131 3298 2873 
Q 3191 2616 2906 2266 
Q 2828 2175 2409 1742 
Q 1991 1309 1228 531 
z
" transform="scale(0.015625)"/>
        <path id="DejaVuSans-2e" d="M 684 794 
L 1344 794 
L 1344 0 
L 684 0 
L 684 794 
z
" transform="scale(0.015625)"/>
        <path id="DejaVuSans-35" d="M 691 4666 
L 3169 4666 
L 3169 4134 
L 1269 4134 
L 1269 2991 
Q 1406 3038 1543 3061 
Q 1681 3084 1819 3084 
Q 2600 3084 3056 2656 
Q 3513 2228 3513 1497 
Q 3513 744 3044 326 
Q 2575 -91 1722 -91 
Q 1428 -91 1123 -41 
Q 819 9 494 109 
L 494 744 
Q 775 591 1075 516 
Q 1375 441 1709 441 
Q 2250 441 2565 725 
Q 2881 1009 2881 1497 
Q 2881 1984 2565 2268 
Q 2250 2553 1709 2553 
Q 1456 2553 1204 2497 
Q 953 2441 691 2322 
L 691 4666 
z
" transform="scale(0.015625)"/>
       </defs>
       <use xlink:href="#DejaVuSans-2212"/>
       <use xlink:href="#DejaVuSans-32" transform="translate(83.789062 0)"/>
       <use xlink:href="#DejaVuSans-2e" transform="translate(147.412109 0)"/>
       <use xlink:href="#DejaVuSans-35" transform="translate(179.199219 0)"/>
      </g>
     </g>
    </g>
    <g id="xtick_2">
     <g id="line2d_3">
      <path d="M 152.029416 307.24 
L 152.029416 10.8 
" clip-path="url(#p5d73bfe2fe)" style="fill: none; stroke: #b0b0b0; stroke-opacity: 0.3; stroke-width: 0.8; stroke-linecap: square"/>
     </g>
     <g id="line2d_4">
      <g>
       <use xlink:href="#m34ddab5a6b" x="152.029416" y="307.24" style="stroke: #000000; stroke-width: 0.8"/>
      </g>
     </g>
     <g id="text_2">
      <!-- 0.0 -->
      <g transform="translate(139.306916 326.3975) scale(0.16 -0.16)">
       <defs>
        <path id="DejaVuSans-30" d="M 2034 4250 
Q 1547 4250 1301 3770 
Q 1056 3291 1056 2328 
Q 1056 1369 1301 889 
Q 1547 409 2034 409 
Q 2525 409 2770 889 
Q 3016 1369 3016 2328 
Q 3016 3291 2770 3770 
Q 2525 4250 2034 4250 
z
M 2034 4750 
Q 2819 4750 3233 4129 
Q 3647 3509 3647 2328 
Q 3647 1150 3233 529 
Q 2819 -91 2034 -91 
Q 1250 -91 836 529 
Q 422 1150 422 2328 
Q 422 3509 836 4129 
Q 1250 4750 2034 4750 
z
" transform="scale(0.015625)"/>
       </defs>
       <use xlink:href="#DejaVuSans-30"/>
       <use xlink:href="#DejaVuSans-2e" transform="translate(63.623047 0)"/>
       <use xlink:href="#DejaVuSans-30" transform="translate(95.410156 0)"/>
      </g>
     </g>
    </g>
    <g id="xtick_3">
     <g id="line2d_5">
      <path d="M 217.095649 307.24 
L 217.095649 10.8 
" clip-path="url(#p5d73bfe2fe)" style="fill: none; stroke: #b0b0b0; stroke-opacity: 0.3; stroke-width: 0.8; stroke-linecap: square"/>
     </g>
     <g id="line2d_6">
      <g>
       <use xlink:href="#m34ddab5a6b" x="217.095649" y="307.24" style="stroke: #000000; stroke-width: 0.8"/>
      </g>
     </g>
     <g id="text_3">
      <!-- 2.5 -->
      <g transform="translate(204.373149 326.3975) scale(0.16 -0.16)">
       <use xlink:href="#DejaVuSans-32"/>
       <use xlink:href="#DejaVuSans-2e" transform="translate(63.623047 0)"/>
       <use xlink:href="#DejaVuSans-35" transform="translate(95.410156 0)"/>
      </g>
     </g>
    </g>
    <g id="xtick_4">
     <g id="line2d_7">
      <path d="M 282.161883 307.24 
L 282.161883 10.8 
" clip-path="url(#p5d73bfe2fe)" style="fill: none; stroke: #b0b0b0; stroke-opacity: 0.3; stroke-width: 0.8; stroke-linecap: square"/>
     </g>
     <g id="line2d_8">
      <g>
       <use xlink:href="#m34ddab5a6b" x="282.161883" y="307.24" style="stroke: #000000; stroke-width: 0.8"/>
      </g>
     </g>
     <g id="text_4">
      <!-- 5.0 -->
      <g transform="translate(269.439383 326.3975) scale(0.16 -0.16)">
       <use xlink:href="#DejaVuSans-35"/>
       <use xlink:href="#DejaVuSans-2e" transform="translate(63.623047 0)"/>
       <use xlink:href="#DejaVuSans-30" transform="translate(95.410156 0)"/>
      </g>
     </g>
    </g>
    <g id="xtick_5">
     <g id="line2d_9">
      <path d="M 347.228117 307.24 
L 347.228117 10.8 
" clip-path="url(#p5d73bfe2fe)" style="fill: none; stroke: #b0b0b0; stroke-opacity: 0.3; stroke-width: 0.8; stroke-linecap: square"/>
     </g>
     <g id="line2d_10">
      <g>
       <use xlink:href="#m34ddab5a6b" x="347.228117" y="307.24" style="stroke: #000000; stroke-width: 0.8"/>
      </g>
     </g>
     <g id="text_5">
      <!-- 7.5 -->
      <g transform="translate(334.505617 326.3975) scale(0.16 -0.16)">
       <defs>
        <path id="DejaVuSans-37" d="M 525 4666 
L 3525 4666 
L 3525 4397 
L 1831 0 
L 1172 0 
L 2766 4134 
L 525 4134 
L 525 4666 
z
" transform="scale(0.015625)"/>
       </defs>
       <use xlink:href="#DejaVuSans-37"/>
       <use xlink:href="#DejaVuSans-2e" transform="translate(63.623047 0)"/>
       <use xlink:href="#DejaVuSans-35" transform="translate(95.410156 0)"/>
      </g>
     </g>
    </g>
    <g id="xtick_6">
     <g id="line2d_11">
      <path d="M 412.294351 307.24 
L 412.294351 10.8 
" clip-path="url(#p5d73bfe2fe)" style="fill: none; stroke: #b0b0b0; stroke-opacity: 0.3; stroke-width: 0.8; stroke-linecap: square"/>
     </g>
     <g id="line2d_12">
      <g>
       <use xlink:href="#m34ddab5a6b" x="412.294351" y="307.24" style="stroke: #000000; stroke-width: 0.8"/>
      </g>
     </g>
     <g id="text_6">
      <!-- 10.0 -->
      <g transform="translate(394.481851 326.3975) scale(0.16 -0.16)">
       <defs>
        <path id="DejaVuSans-31" d="M 794 531 
L 1825 531 
L 1825 4091 
L 703 3866 
L 703 4441 
L 1819 4666 
L 2450 4666 
L 2450 531 
L 3481 531 
L 3481 0 
L 794 0 
L 794 531 
z
" transform="scale(0.015625)"/>
       </defs>
       <use xlink:href="#DejaVuSans-31"/>
       <use xlink:href="#DejaVuSans-30" transform="translate(63.623047 0)"/>
       <use xlink:href="#DejaVuSans-2e" transform="translate(127.246094 0)"/>
       <use xlink:href="#DejaVuSans-30" transform="translate(159.033203 0)"/>
      </g>
     </g>
    </g>
    <g id="xtick_7">
     <g id="line2d_13">
      <path d="M 477.360584 307.24 
L 477.360584 10.8 
" clip-path="url(#p5d73bfe2fe)" style="fill: none; stroke: #b0b0b0; stroke-opacity: 0.3; stroke-width: 0.8; stroke-linecap: square"/>
     </g>
     <g id="line2d_14">
      <g>
       <use xlink:href="#m34ddab5a6b" x="477.360584" y="307.24" style="stroke: #000000; stroke-width: 0.8"/>
      </g>
     </g>
     <g id="text_7">
      <!-- 12.5 -->
      <g transform="translate(459.548084 326.3975) scale(0.16 -0.16)">
       <use xlink:href="#DejaVuSans-31"/>
       <use xlink:href="#DejaVuSans-32" transform="translate(63.623047 0)"/>
       <use xlink:href="#DejaVuSans-2e" transform="translate(127.246094 0)"/>
       <use xlink:href="#DejaVuSans-35" transform="translate(159.033203 0)"/>
      </g>
     </g>
    </g>
    <g id="xtick_8">
     <g id="line2d_15">
      <path d="M 542.426818 307.24 
L 542.426818 10.8 
" clip-path="url(#p5d73bfe2fe)" style="fill: none; stroke: #b0b0b0; stroke-opacity: 0.3; stroke-width: 0.8; stroke-linecap: square"/>
     </g>
     <g id="line2d_16">
      <g>
       <use xlink:href="#m34ddab5a6b" x="542.426818" y="307.24" style="stroke: #000000; stroke-width: 0.8"/>
      </g>
     </g>
     <g id="text_8">
      <!-- 15.0 -->
      <g transform="translate(524.614318 326.3975) scale(0.16 -0.16)">
       <use xlink:href="#DejaVuSans-31"/>
       <use xlink:href="#DejaVuSans-35" transform="translate(63.623047 0)"/>
       <use xlink:href="#DejaVuSans-2e" transform="translate(127.246094 0)"/>
       <use xlink:href="#DejaVuSans-30" transform="translate(159.033203 0)"/>
      </g>
     </g>
    </g>
    <g id="text_9">
     <!-- $x_t$ -->
     <g transform="translate(307.495 345.8825) scale(0.16 -0.16)">
      <defs>
       <path id="DejaVuSans-Oblique-78" d="M 3841 3500 
L 2234 1784 
L 3219 0 
L 2559 0 
L 1819 1388 
L 531 0 
L -166 0 
L 1556 1844 
L 641 3500 
L 1300 3500 
L 1972 2234 
L 3144 3500 
L 3841 3500 
z
" transform="scale(0.015625)"/>
       <path id="DejaVuSans-Oblique-74" d="M 2706 3500 
L 2619 3053 
L 1472 3053 
L 1100 1153 
Q 1081 1047 1072 975 
Q 1063 903 1063 863 
Q 1063 663 1183 572 
Q 1303 481 1569 481 
L 2150 481 
L 2053 0 
L 1503 0 
Q 991 0 739 200 
Q 488 400 488 806 
Q 488 878 497 964 
Q 506 1050 525 1153 
L 897 3053 
L 409 3053 
L 500 3500 
L 978 3500 
L 1172 4494 
L 1747 4494 
L 1556 3500 
L 2706 3500 
z
" transform="scale(0.015625)"/>
      </defs>
      <use xlink:href="#DejaVuSans-Oblique-78" transform="translate(0 0.3125)"/>
      <use xlink:href="#DejaVuSans-Oblique-74" transform="translate(59.179688 -16.09375) scale(0.7)"/>
     </g>
    </g>
   </g>
   <g id="matplotlib.axis_2">
    <g id="ytick_1">
     <g id="line2d_17">
      <path d="M 64.19 293.765455 
L 565.2 293.765455 
" clip-path="url(#p5d73bfe2fe)" style="fill: none; stroke: #b0b0b0; stroke-opacity: 0.3; stroke-width: 0.8; stroke-linecap: square"/>
     </g>
     <g id="line2d_18">
      <defs>
       <path id="ma3dab93b55" d="M 0 0 
L -3.5 0 
" style="stroke: #000000; stroke-width: 0.8"/>
      </defs>
      <g>
       <use xlink:href="#ma3dab93b55" x="64.19" y="293.765455" style="stroke: #000000; stroke-width: 0.8"/>
      </g>
     </g>
     <g id="text_10">
      <!-- 0.0 -->
      <g transform="translate(31.745 299.844205) scale(0.16 -0.16)">
       <use xlink:href="#DejaVuSans-30"/>
       <use xlink:href="#DejaVuSans-2e" transform="translate(63.623047 0)"/>
       <use xlink:href="#DejaVuSans-30" transform="translate(95.410156 0)"/>
      </g>
     </g>
    </g>
    <g id="ytick_2">
     <g id="line2d_19">
      <path d="M 64.19 239.862464 
L 565.2 239.862464 
" clip-path="url(#p5d73bfe2fe)" style="fill: none; stroke: #b0b0b0; stroke-opacity: 0.3; stroke-width: 0.8; stroke-linecap: square"/>
     </g>
     <g id="line2d_20">
      <g>
       <use xlink:href="#ma3dab93b55" x="64.19" y="239.862464" style="stroke: #000000; stroke-width: 0.8"/>
      </g>
     </g>
     <g id="text_11">
      <!-- 0.2 -->
      <g transform="translate(31.745 245.941214) scale(0.16 -0.16)">
       <use xlink:href="#DejaVuSans-30"/>
       <use xlink:href="#DejaVuSans-2e" transform="translate(63.623047 0)"/>
       <use xlink:href="#DejaVuSans-32" transform="translate(95.410156 0)"/>
      </g>
     </g>
    </g>
    <g id="ytick_3">
     <g id="line2d_21">
      <path d="M 64.19 185.959473 
L 565.2 185.959473 
" clip-path="url(#p5d73bfe2fe)" style="fill: none; stroke: #b0b0b0; stroke-opacity: 0.3; stroke-width: 0.8; stroke-linecap: square"/>
     </g>
     <g id="line2d_22">
      <g>
       <use xlink:href="#ma3dab93b55" x="64.19" y="185.959473" style="stroke: #000000; stroke-width: 0.8"/>
      </g>
     </g>
     <g id="text_12">
      <!-- 0.4 -->
      <g transform="translate(31.745 192.038223) scale(0.16 -0.16)">
       <defs>
        <path id="DejaVuSans-34" d="M 2419 4116 
L 825 1625 
L 2419 1625 
L 2419 4116 
z
M 2253 4666 
L 3047 4666 
L 3047 1625 
L 3713 1625 
L 3713 1100 
L 3047 1100 
L 3047 0 
L 2419 0 
L 2419 1100 
L 313 1100 
L 313 1709 
L 2253 4666 
z
" transform="scale(0.015625)"/>
       </defs>
       <use xlink:href="#DejaVuSans-30"/>
       <use xlink:href="#DejaVuSans-2e" transform="translate(63.623047 0)"/>
       <use xlink:href="#DejaVuSans-34" transform="translate(95.410156 0)"/>
      </g>
     </g>
    </g>
    <g id="ytick_4">
     <g id="line2d_23">
      <path d="M 64.19 132.056482 
L 565.2 132.056482 
" clip-path="url(#p5d73bfe2fe)" style="fill: none; stroke: #b0b0b0; stroke-opacity: 0.3; stroke-width: 0.8; stroke-linecap: square"/>
     </g>
     <g id="line2d_24">
      <g>
       <use xlink:href="#ma3dab93b55" x="64.19" y="132.056482" style="stroke: #000000; stroke-width: 0.8"/>
      </g>
     </g>
     <g id="text_13">
      <!-- 0.6 -->
      <g transform="translate(31.745 138.135232) scale(0.16 -0.16)">
       <defs>
        <path id="DejaVuSans-36" d="M 2113 2584 
Q 1688 2584 1439 2293 
Q 1191 2003 1191 1497 
Q 1191 994 1439 701 
Q 1688 409 2113 409 
Q 2538 409 2786 701 
Q 3034 994 3034 1497 
Q 3034 2003 2786 2293 
Q 2538 2584 2113 2584 
z
M 3366 4563 
L 3366 3988 
Q 3128 4100 2886 4159 
Q 2644 4219 2406 4219 
Q 1781 4219 1451 3797 
Q 1122 3375 1075 2522 
Q 1259 2794 1537 2939 
Q 1816 3084 2150 3084 
Q 2853 3084 3261 2657 
Q 3669 2231 3669 1497 
Q 3669 778 3244 343 
Q 2819 -91 2113 -91 
Q 1303 -91 875 529 
Q 447 1150 447 2328 
Q 447 3434 972 4092 
Q 1497 4750 2381 4750 
Q 2619 4750 2861 4703 
Q 3103 4656 3366 4563 
z
" transform="scale(0.015625)"/>
       </defs>
       <use xlink:href="#DejaVuSans-30"/>
       <use xlink:href="#DejaVuSans-2e" transform="translate(63.623047 0)"/>
       <use xlink:href="#DejaVuSans-36" transform="translate(95.410156 0)"/>
      </g>
     </g>
    </g>
    <g id="ytick_5">
     <g id="line2d_25">
      <path d="M 64.19 78.153492 
L 565.2 78.153492 
" clip-path="url(#p5d73bfe2fe)" style="fill: none; stroke: #b0b0b0; stroke-opacity: 0.3; stroke-width: 0.8; stroke-linecap: square"/>
     </g>
     <g id="line2d_26">
      <g>
       <use xlink:href="#ma3dab93b55" x="64.19" y="78.153492" style="stroke: #000000; stroke-width: 0.8"/>
      </g>
     </g>
     <g id="text_14">
      <!-- 0.8 -->
      <g transform="translate(31.745 84.232242) scale(0.16 -0.16)">
       <defs>
        <path id="DejaVuSans-38" d="M 2034 2216 
Q 1584 2216 1326 1975 
Q 1069 1734 1069 1313 
Q 1069 891 1326 650 
Q 1584 409 2034 409 
Q 2484 409 2743 651 
Q 3003 894 3003 1313 
Q 3003 1734 2745 1975 
Q 2488 2216 2034 2216 
z
M 1403 2484 
Q 997 2584 770 2862 
Q 544 3141 544 3541 
Q 544 4100 942 4425 
Q 1341 4750 2034 4750 
Q 2731 4750 3128 4425 
Q 3525 4100 3525 3541 
Q 3525 3141 3298 2862 
Q 3072 2584 2669 2484 
Q 3125 2378 3379 2068 
Q 3634 1759 3634 1313 
Q 3634 634 3220 271 
Q 2806 -91 2034 -91 
Q 1263 -91 848 271 
Q 434 634 434 1313 
Q 434 1759 690 2068 
Q 947 2378 1403 2484 
z
M 1172 3481 
Q 1172 3119 1398 2916 
Q 1625 2713 2034 2713 
Q 2441 2713 2670 2916 
Q 2900 3119 2900 3481 
Q 2900 3844 2670 4047 
Q 2441 4250 2034 4250 
Q 1625 4250 1398 4047 
Q 1172 3844 1172 3481 
z
" transform="scale(0.015625)"/>
       </defs>
       <use xlink:href="#DejaVuSans-30"/>
       <use xlink:href="#DejaVuSans-2e" transform="translate(63.623047 0)"/>
       <use xlink:href="#DejaVuSans-38" transform="translate(95.410156 0)"/>
      </g>
     </g>
    </g>
    <g id="ytick_6">
     <g id="line2d_27">
      <path d="M 64.19 24.250501 
L 565.2 24.250501 
" clip-path="url(#p5d73bfe2fe)" style="fill: none; stroke: #b0b0b0; stroke-opacity: 0.3; stroke-width: 0.8; stroke-linecap: square"/>
     </g>
     <g id="line2d_28">
      <g>
       <use xlink:href="#ma3dab93b55" x="64.19" y="24.250501" style="stroke: #000000; stroke-width: 0.8"/>
      </g>
     </g>
     <g id="text_15">
      <!-- 1.0 -->
      <g transform="translate(31.745 30.329251) scale(0.16 -0.16)">
       <use xlink:href="#DejaVuSans-31"/>
       <use xlink:href="#DejaVuSans-2e" transform="translate(63.623047 0)"/>
       <use xlink:href="#DejaVuSans-30" transform="translate(95.410156 0)"/>
      </g>
     </g>
    </g>
    <g id="text_16">
     <!-- forget gate ($f_t$) -->
     <g transform="translate(24.385 217.82) rotate(-90) scale(0.16 -0.16)">
      <defs>
       <path id="DejaVuSans-66" d="M 2375 4863 
L 2375 4384 
L 1825 4384 
Q 1516 4384 1395 4259 
Q 1275 4134 1275 3809 
L 1275 3500 
L 2222 3500 
L 2222 3053 
L 1275 3053 
L 1275 0 
L 697 0 
L 697 3053 
L 147 3053 
L 147 3500 
L 697 3500 
L 697 3744 
Q 697 4328 969 4595 
Q 1241 4863 1831 4863 
L 2375 4863 
z
" transform="scale(0.015625)"/>
       <path id="DejaVuSans-6f" d="M 1959 3097 
Q 1497 3097 1228 2736 
Q 959 2375 959 1747 
Q 959 1119 1226 758 
Q 1494 397 1959 397 
Q 2419 397 2687 759 
Q 2956 1122 2956 1747 
Q 2956 2369 2687 2733 
Q 2419 3097 1959 3097 
z
M 1959 3584 
Q 2709 3584 3137 3096 
Q 3566 2609 3566 1747 
Q 3566 888 3137 398 
Q 2709 -91 1959 -91 
Q 1206 -91 779 398 
Q 353 888 353 1747 
Q 353 2609 779 3096 
Q 1206 3584 1959 3584 
z
" transform="scale(0.015625)"/>
       <path id="DejaVuSans-72" d="M 2631 2963 
Q 2534 3019 2420 3045 
Q 2306 3072 2169 3072 
Q 1681 3072 1420 2755 
Q 1159 2438 1159 1844 
L 1159 0 
L 581 0 
L 581 3500 
L 1159 3500 
L 1159 2956 
Q 1341 3275 1631 3429 
Q 1922 3584 2338 3584 
Q 2397 3584 2469 3576 
Q 2541 3569 2628 3553 
L 2631 2963 
z
" transform="scale(0.015625)"/>
       <path id="DejaVuSans-67" d="M 2906 1791 
Q 2906 2416 2648 2759 
Q 2391 3103 1925 3103 
Q 1463 3103 1205 2759 
Q 947 2416 947 1791 
Q 947 1169 1205 825 
Q 1463 481 1925 481 
Q 2391 481 2648 825 
Q 2906 1169 2906 1791 
z
M 3481 434 
Q 3481 -459 3084 -895 
Q 2688 -1331 1869 -1331 
Q 1566 -1331 1297 -1286 
Q 1028 -1241 775 -1147 
L 775 -588 
Q 1028 -725 1275 -790 
Q 1522 -856 1778 -856 
Q 2344 -856 2625 -561 
Q 2906 -266 2906 331 
L 2906 616 
Q 2728 306 2450 153 
Q 2172 0 1784 0 
Q 1141 0 747 490 
Q 353 981 353 1791 
Q 353 2603 747 3093 
Q 1141 3584 1784 3584 
Q 2172 3584 2450 3431 
Q 2728 3278 2906 2969 
L 2906 3500 
L 3481 3500 
L 3481 434 
z
" transform="scale(0.015625)"/>
       <path id="DejaVuSans-65" d="M 3597 1894 
L 3597 1613 
L 953 1613 
Q 991 1019 1311 708 
Q 1631 397 2203 397 
Q 2534 397 2845 478 
Q 3156 559 3463 722 
L 3463 178 
Q 3153 47 2828 -22 
Q 2503 -91 2169 -91 
Q 1331 -91 842 396 
Q 353 884 353 1716 
Q 353 2575 817 3079 
Q 1281 3584 2069 3584 
Q 2775 3584 3186 3129 
Q 3597 2675 3597 1894 
z
M 3022 2063 
Q 3016 2534 2758 2815 
Q 2500 3097 2075 3097 
Q 1594 3097 1305 2825 
Q 1016 2553 972 2059 
L 3022 2063 
z
" transform="scale(0.015625)"/>
       <path id="DejaVuSans-74" d="M 1172 4494 
L 1172 3500 
L 2356 3500 
L 2356 3053 
L 1172 3053 
L 1172 1153 
Q 1172 725 1289 603 
Q 1406 481 1766 481 
L 2356 481 
L 2356 0 
L 1766 0 
Q 1100 0 847 248 
Q 594 497 594 1153 
L 594 3053 
L 172 3053 
L 172 3500 
L 594 3500 
L 594 4494 
L 1172 4494 
z
" transform="scale(0.015625)"/>
       <path id="DejaVuSans-20" transform="scale(0.015625)"/>
       <path id="DejaVuSans-61" d="M 2194 1759 
Q 1497 1759 1228 1600 
Q 959 1441 959 1056 
Q 959 750 1161 570 
Q 1363 391 1709 391 
Q 2188 391 2477 730 
Q 2766 1069 2766 1631 
L 2766 1759 
L 2194 1759 
z
M 3341 1997 
L 3341 0 
L 2766 0 
L 2766 531 
Q 2569 213 2275 61 
Q 1981 -91 1556 -91 
Q 1019 -91 701 211 
Q 384 513 384 1019 
Q 384 1609 779 1909 
Q 1175 2209 1959 2209 
L 2766 2209 
L 2766 2266 
Q 2766 2663 2505 2880 
Q 2244 3097 1772 3097 
Q 1472 3097 1187 3025 
Q 903 2953 641 2809 
L 641 3341 
Q 956 3463 1253 3523 
Q 1550 3584 1831 3584 
Q 2591 3584 2966 3190 
Q 3341 2797 3341 1997 
z
" transform="scale(0.015625)"/>
       <path id="DejaVuSans-28" d="M 1984 4856 
Q 1566 4138 1362 3434 
Q 1159 2731 1159 2009 
Q 1159 1288 1364 580 
Q 1569 -128 1984 -844 
L 1484 -844 
Q 1016 -109 783 600 
Q 550 1309 550 2009 
Q 550 2706 781 3412 
Q 1013 4119 1484 4856 
L 1984 4856 
z
" transform="scale(0.015625)"/>
       <path id="DejaVuSans-Oblique-66" d="M 3059 4863 
L 2969 4384 
L 2419 4384 
Q 2106 4384 1964 4261 
Q 1822 4138 1753 3809 
L 1691 3500 
L 2638 3500 
L 2553 3053 
L 1606 3053 
L 1013 0 
L 434 0 
L 1031 3053 
L 481 3053 
L 563 3500 
L 1113 3500 
L 1159 3744 
Q 1278 4363 1576 4613 
Q 1875 4863 2516 4863 
L 3059 4863 
z
" transform="scale(0.015625)"/>
       <path id="DejaVuSans-29" d="M 513 4856 
L 1013 4856 
Q 1481 4119 1714 3412 
Q 1947 2706 1947 2009 
Q 1947 1309 1714 600 
Q 1481 -109 1013 -844 
L 513 -844 
Q 928 -128 1133 580 
Q 1338 1288 1338 2009 
Q 1338 2731 1133 3434 
Q 928 4138 513 4856 
z
" transform="scale(0.015625)"/>
      </defs>
      <use xlink:href="#DejaVuSans-66" transform="translate(0 0.015625)"/>
      <use xlink:href="#DejaVuSans-6f" transform="translate(35.205078 0.015625)"/>
      <use xlink:href="#DejaVuSans-72" transform="translate(96.386719 0.015625)"/>
      <use xlink:href="#DejaVuSans-67" transform="translate(137.5 0.015625)"/>
      <use xlink:href="#DejaVuSans-65" transform="translate(200.976562 0.015625)"/>
      <use xlink:href="#DejaVuSans-74" transform="translate(262.5 0.015625)"/>
      <use xlink:href="#DejaVuSans-20" transform="translate(301.708984 0.015625)"/>
      <use xlink:href="#DejaVuSans-67" transform="translate(333.496094 0.015625)"/>
      <use xlink:href="#DejaVuSans-61" transform="translate(396.972656 0.015625)"/>
      <use xlink:href="#DejaVuSans-74" transform="translate(458.251953 0.015625)"/>
      <use xlink:href="#DejaVuSans-65" transform="translate(497.460938 0.015625)"/>
      <use xlink:href="#DejaVuSans-20" transform="translate(558.984375 0.015625)"/>
      <use xlink:href="#DejaVuSans-28" transform="translate(590.771484 0.015625)"/>
      <use xlink:href="#DejaVuSans-Oblique-66" transform="translate(629.785156 0.015625)"/>
      <use xlink:href="#DejaVuSans-Oblique-74" transform="translate(664.990234 -16.390625) scale(0.7)"/>
      <use xlink:href="#DejaVuSans-29" transform="translate(695.170898 0.015625)"/>
     </g>
    </g>
   </g>
   <g id="line2d_29">
    <path d="M 86.963182 24.274545 
L 139.84985 24.433847 
L 164.013587 24.714001 
L 179.970771 25.105006 
L 192.280599 25.619255 
L 202.310829 26.258213 
L 210.517381 26.995175 
L 217.812094 27.87162 
L 224.194968 28.861514 
L 229.666003 29.918409 
L 234.681118 31.093513 
L 239.696233 32.504923 
L 244.255429 34.030159 
L 248.358705 35.632393 
L 252.461981 37.484271 
L 256.109337 39.367716 
L 259.756694 41.501871 
L 263.40405 43.914922 
L 266.595487 46.27854 
L 269.786924 48.899306 
L 272.978361 51.798492 
L 276.169798 54.997485 
L 279.361234 58.517335 
L 282.552671 62.378197 
L 285.744108 66.598671 
L 288.935545 71.195038 
L 292.126982 76.180413 
L 295.318419 81.563825 
L 298.509856 87.349274 
L 302.157212 94.450684 
L 305.804569 102.060497 
L 309.907845 111.195218 
L 314.011121 120.879715 
L 319.026236 133.342205 
L 324.95319 148.707498 
L 341.822214 192.836001 
L 346.837329 205.084016 
L 350.940605 214.541597 
L 354.587961 222.453632 
L 358.235318 229.859087 
L 361.882674 236.733451 
L 365.074111 242.303878 
L 368.265548 247.459282 
L 371.456985 252.206027 
L 374.648422 256.555612 
L 377.839858 260.523645 
L 381.031295 264.128863 
L 384.222732 267.39221 
L 387.414169 270.336028 
L 390.605606 272.983352 
L 393.797043 275.357326 
L 396.98848 277.480735 
L 400.635836 279.628931 
L 404.283193 281.509964 
L 407.930549 283.153124 
L 412.033825 284.750935 
L 416.137101 286.11685 
L 420.696297 287.400489 
L 425.711412 288.571265 
L 431.182447 289.609198 
L 437.109401 290.504646 
L 443.948194 291.303805 
L 451.698827 291.97759 
L 460.817218 292.539674 
L 471.759287 292.987091 
L 485.892793 293.333066 
L 505.497334 293.574407 
L 536.955784 293.714019 
L 542.426818 293.724517 
L 542.426818 293.724517 
" clip-path="url(#p5d73bfe2fe)" style="fill: none; stroke: #440154; stroke-width: 1.5; stroke-linecap: square"/>
   </g>
   <g id="line2d_30">
    <path d="M 86.963182 24.318316 
L 122.980827 24.520974 
L 143.497207 24.844966 
L 158.086633 25.290653 
L 169.484621 25.85996 
L 178.603013 26.531437 
L 186.353645 27.316686 
L 193.192438 28.229083 
L 199.119393 29.234055 
L 204.590427 30.382223 
L 209.605542 31.661379 
L 214.164738 33.0493 
L 218.268014 34.51358 
L 222.37129 36.21408 
L 226.018646 37.952481 
L 229.666003 39.9332 
L 233.313359 42.186807 
L 236.504796 44.408774 
L 239.696233 46.88938 
L 242.88767 49.654343 
L 246.079107 52.730776 
L 249.270544 56.14694 
L 252.461981 59.931873 
L 255.653418 64.114896 
L 258.844854 68.724958 
L 262.036291 73.789805 
L 265.227728 79.334956 
L 268.419165 85.382483 
L 271.610602 91.94958 
L 274.802039 99.046964 
L 277.993476 106.677126 
L 281.640832 116.039484 
L 285.288189 126.057091 
L 289.391465 138.042336 
L 293.95066 152.109795 
L 299.877614 171.218158 
L 311.731523 209.688192 
L 315.834799 222.203136 
L 319.482155 232.649519 
L 322.673592 241.147973 
L 325.865029 248.967676 
L 328.600546 255.08967 
L 331.336064 260.655249 
L 334.071581 265.658668 
L 336.351179 269.403224 
L 338.630777 272.77167 
L 340.910374 275.778558 
L 343.189972 278.442353 
L 345.46957 280.784585 
L 347.749168 282.82898 
L 350.028766 284.600624 
L 352.308363 286.125185 
L 355.043881 287.664457 
L 357.779398 288.927479 
L 360.514915 289.954499 
L 363.706352 290.90347 
L 367.353709 291.722542 
L 371.456985 292.383519 
L 376.01618 292.882001 
L 381.487215 293.257266 
L 388.781928 293.527941 
L 399.723997 293.692509 
L 422.519975 293.75981 
L 542.426818 293.765455 
L 542.426818 293.765455 
" clip-path="url(#p5d73bfe2fe)" style="fill: none; stroke: #46327e; stroke-width: 1.5; stroke-linecap: square"/>
   </g>
   <g id="line2d_31">
    <path d="M 86.963182 24.354831 
L 117.509792 24.587713 
L 136.202494 24.941496 
L 149.880081 25.417958 
L 160.36623 25.994931 
L 169.028702 26.680059 
L 176.779334 27.51664 
L 183.162208 28.41588 
L 189.089162 29.468591 
L 194.560197 30.671571 
L 199.575312 32.012131 
L 204.134508 33.467077 
L 208.237784 35.002519 
L 212.34106 36.786235 
L 215.988416 38.610338 
L 219.635773 40.689475 
L 222.827209 42.743321 
L 226.018646 45.040833 
L 229.210083 47.607456 
L 232.40152 50.470366 
L 235.592957 53.658318 
L 238.784394 57.201411 
L 241.975831 61.130722 
L 244.711348 64.830026 
L 247.446866 68.85607 
L 250.182383 73.228164 
L 252.9179 77.964649 
L 256.109337 83.973399 
L 259.300774 90.523687 
L 262.492211 97.632533 
L 265.683648 105.309311 
L 268.875085 113.553679 
L 272.522441 123.654523 
L 276.169798 134.43939 
L 280.273074 147.303454 
L 284.832269 162.332762 
L 291.671062 185.731072 
L 299.421695 212.09832 
L 303.524971 225.330262 
L 307.172327 236.352891 
L 310.363764 245.276502 
L 313.099282 252.310308 
L 315.834799 258.728029 
L 318.114397 263.58465 
L 320.393994 267.986645 
L 322.673592 271.935558 
L 324.95319 275.440921 
L 327.232788 278.519467 
L 329.512386 281.194086 
L 331.791983 283.492594 
L 334.071581 285.44639 
L 336.351179 287.089101 
L 338.630777 288.455286 
L 340.910374 289.579271 
L 343.645892 290.65482 
L 346.381409 291.482432 
L 349.572846 292.198053 
L 353.220202 292.765151 
L 357.323478 293.17588 
L 362.794513 293.484365 
L 370.545146 293.673014 
L 385.134571 293.755758 
L 465.376413 293.765455 
L 542.426818 293.765455 
L 542.426818 293.765455 
" clip-path="url(#p5d73bfe2fe)" style="fill: none; stroke: #365c8d; stroke-width: 1.5; stroke-linecap: square"/>
   </g>
   <g id="line2d_32">
    <path d="M 86.963182 24.438333 
L 110.670999 24.717292 
L 126.628183 25.111572 
L 138.938011 25.630819 
L 148.968241 26.277085 
L 157.174793 27.023991 
L 164.469506 27.914376 
L 170.85238 28.922782 
L 176.323415 30.00269 
L 181.33853 31.20733 
L 185.897725 32.516227 
L 190.456921 34.066206 
L 194.560197 35.702113 
L 198.207553 37.377299 
L 201.85491 39.289473 
L 205.502266 41.469614 
L 208.693703 43.623871 
L 211.88514 46.034444 
L 215.076577 48.728278 
L 218.268014 51.734188 
L 221.459451 55.082712 
L 224.650888 58.805866 
L 227.386405 62.320402 
L 230.121922 66.15572 
L 232.85744 70.333033 
L 235.592957 74.873139 
L 238.328474 79.795915 
L 241.063992 85.119719 
L 244.255429 91.859009 
L 247.446866 99.186105 
L 250.638302 107.113392 
L 253.829739 115.643166 
L 257.021176 124.765129 
L 260.668533 135.881915 
L 264.771809 149.188337 
L 269.331004 164.791132 
L 275.713878 187.53134 
L 283.92043 216.679243 
L 288.023706 230.42786 
L 291.215143 240.43299 
L 294.40658 249.673192 
L 297.142097 256.891897 
L 299.421695 262.368685 
L 301.701293 267.332675 
L 303.98089 271.774089 
L 306.260488 275.694532 
L 308.540086 279.106592 
L 310.363764 281.485096 
L 312.187442 283.568155 
L 314.011121 285.374322 
L 315.834799 286.924431 
L 318.114397 288.536235 
L 320.393994 289.82859 
L 322.673592 290.847196 
L 324.95319 291.636134 
L 327.688707 292.337205 
L 330.880144 292.895147 
L 334.527501 293.290279 
L 339.086696 293.555084 
L 345.92549 293.710438 
L 360.970835 293.763643 
L 542.426818 293.765455 
L 542.426818 293.765455 
" clip-path="url(#p5d73bfe2fe)" style="fill: none; stroke: #277f8e; stroke-width: 1.5; stroke-linecap: square"/>
   </g>
   <g id="line2d_33">
    <path d="M 86.963182 24.454264 
L 110.215079 24.748075 
L 125.716344 25.152404 
L 137.570253 25.671182 
L 147.144563 26.300221 
L 155.351115 27.055639 
L 162.189909 27.892298 
L 168.572782 28.894767 
L 174.043817 29.968385 
L 179.058932 31.166089 
L 183.618128 32.467548 
L 188.177323 34.008851 
L 192.280599 35.635757 
L 195.927956 37.301892 
L 199.575312 39.203941 
L 203.222669 41.372805 
L 206.414105 43.516202 
L 209.605542 45.914955 
L 212.796979 48.595997 
L 215.988416 51.588154 
L 219.179853 54.922008 
L 222.37129 58.629659 
L 225.106807 62.130342 
L 227.842325 65.951416 
L 230.577842 70.114254 
L 233.313359 74.639861 
L 236.048877 79.54838 
L 238.784394 84.858484 
L 241.975831 91.58301 
L 245.167268 98.897345 
L 248.358705 106.814712 
L 251.550142 115.33835 
L 254.741578 124.458992 
L 258.388935 135.581523 
L 262.492211 148.90547 
L 267.051406 164.543543 
L 273.43428 187.363006 
L 281.640832 216.656557 
L 285.744108 230.487216 
L 288.935545 240.554723 
L 292.126982 249.852018 
L 294.862499 257.112697 
L 297.142097 262.617996 
L 299.421695 267.603632 
L 301.701293 272.059216 
L 303.98089 275.986106 
L 306.260488 279.397025 
L 308.084166 281.76949 
L 309.907845 283.842408 
L 311.731523 285.634877 
L 313.555201 287.168372 
L 315.378879 288.466006 
L 317.658477 289.792997 
L 319.938075 290.836193 
L 322.217673 291.641364 
L 324.95319 292.353327 
L 328.144627 292.915689 
L 331.791983 293.309523 
L 336.351179 293.568976 
L 343.189972 293.716689 
L 358.691237 293.764251 
L 542.426818 293.765455 
L 542.426818 293.765455 
" clip-path="url(#p5d73bfe2fe)" style="fill: none; stroke: #1fa187; stroke-width: 1.5; stroke-linecap: square"/>
   </g>
   <g id="line2d_34">
    <path d="M 86.963182 24.476173 
L 109.30324 24.782594 
L 124.348585 25.19821 
L 136.202494 25.74327 
L 145.776805 26.404114 
L 153.527437 27.146759 
L 160.36623 28.010446 
L 166.749104 29.04521 
L 172.220139 30.153303 
L 177.235254 31.389332 
L 181.794449 32.732273 
L 185.897725 34.151149 
L 190.001001 35.801569 
L 193.648358 37.491721 
L 197.295714 39.421105 
L 200.943071 41.621031 
L 204.134508 43.795008 
L 207.325945 46.227845 
L 210.517381 48.946803 
L 213.708818 51.981045 
L 216.900255 55.361496 
L 219.635773 58.559132 
L 222.37129 62.056047 
L 225.106807 65.87373 
L 227.842325 70.033732 
L 230.577842 74.557274 
L 233.313359 79.464749 
L 236.048877 84.775126 
L 239.240313 91.502084 
L 242.43175 98.821706 
L 245.623187 106.747884 
L 248.814624 115.28457 
L 252.006061 124.423217 
L 255.653418 135.573267 
L 259.756694 148.937988 
L 264.315889 164.6342 
L 270.698763 187.556109 
L 278.905315 217.001862 
L 283.008591 230.905177 
L 286.200028 241.021322 
L 288.935545 249.075833 
L 291.671062 256.473901 
L 293.95066 262.091243 
L 296.230258 267.183644 
L 298.509856 271.738131 
L 300.789454 275.753901 
L 303.069051 279.242073 
L 304.89273 281.667303 
L 306.716408 283.784741 
L 308.540086 285.613585 
L 310.363764 287.175662 
L 312.187442 288.494655 
L 314.46704 289.839335 
L 316.746638 290.891813 
L 319.026236 291.699692 
L 321.761753 292.408765 
L 324.95319 292.962786 
L 328.600546 293.344742 
L 333.159742 293.590536 
L 340.454455 293.728929 
L 358.691237 293.765135 
L 542.426818 293.765455 
L 542.426818 293.765455 
" clip-path="url(#p5d73bfe2fe)" style="fill: none; stroke: #4ac16d; stroke-width: 1.5; stroke-linecap: square"/>
   </g>
   <g id="line2d_35">
    <path d="M 86.963182 24.48283 
L 108.847321 24.788777 
L 123.892666 25.209216 
L 135.290655 25.734448 
L 144.864965 26.391411 
L 153.071517 27.180291 
L 159.910311 28.053916 
L 165.837265 29.017148 
L 171.3083 30.118869 
L 176.323415 31.34784 
L 180.88261 32.683174 
L 184.985886 34.094082 
L 189.089162 35.735321 
L 192.736519 37.416171 
L 196.383875 39.335061 
L 200.031232 41.523182 
L 203.222669 43.685664 
L 206.414105 46.105838 
L 209.605542 48.810897 
L 212.796979 51.829948 
L 215.988416 55.193871 
L 218.723933 58.376262 
L 221.459451 61.856942 
L 224.194968 65.657426 
L 226.930485 69.799318 
L 229.666003 74.303922 
L 232.40152 79.191752 
L 235.137037 84.48194 
L 238.328474 91.184946 
L 241.519911 98.4806 
L 244.711348 106.38334 
L 247.902785 114.897778 
L 251.094222 124.016145 
L 254.741578 135.146553 
L 258.388935 146.97267 
L 262.94813 162.58172 
L 268.875085 183.80514 
L 278.449395 218.213807 
L 282.552671 232.068257 
L 285.744108 242.125183 
L 288.479626 250.115089 
L 291.215143 257.43728 
L 293.494741 262.984241 
L 295.774338 268.001311 
L 298.053936 272.477172 
L 300.333534 276.4128 
L 302.613132 279.821125 
L 304.43681 282.18387 
L 306.260488 284.240968 
L 308.084166 286.012359 
L 309.907845 287.520497 
L 311.731523 288.789567 
L 314.011121 290.078019 
L 316.290718 291.081469 
L 318.570316 291.847564 
L 321.305834 292.515676 
L 324.49727 293.033399 
L 328.144627 293.38659 
L 333.159742 293.624601 
L 341.366294 293.742822 
L 367.353709 293.76544 
L 542.426818 293.765455 
L 542.426818 293.765455 
" clip-path="url(#p5d73bfe2fe)" style="fill: none; stroke: #a0da39; stroke-width: 1.5; stroke-linecap: square"/>
   </g>
   <g id="line2d_36">
    <path d="M 86.963182 24.529054 
L 107.023642 24.852184 
L 121.157149 25.285241 
L 132.555137 25.852013 
L 141.673529 26.52089 
L 149.424161 27.303634 
L 156.262954 28.213844 
L 162.189909 29.21731 
L 167.660943 30.364915 
L 172.676058 31.6449 
L 177.235254 33.035456 
L 181.33853 34.504478 
L 185.441806 36.213015 
L 189.089162 37.962443 
L 192.736519 39.959195 
L 196.383875 42.235539 
L 199.575312 44.484615 
L 202.766749 47.00099 
L 205.958186 49.812671 
L 209.149623 52.949577 
L 212.34106 56.443373 
L 215.076577 59.7472 
L 217.812094 63.359076 
L 220.547612 67.300834 
L 223.283129 71.594287 
L 226.018646 76.260802 
L 228.754164 81.320775 
L 231.489681 86.792989 
L 234.681118 93.719993 
L 237.872555 101.250642 
L 241.063992 109.397037 
L 244.255429 118.160576 
L 247.446866 127.529279 
L 251.094222 138.940449 
L 255.197498 152.586584 
L 259.756694 168.562893 
L 267.051406 195.11547 
L 273.8902 219.727435 
L 277.993476 233.629285 
L 281.184913 243.693149 
L 283.92043 251.665023 
L 286.655947 258.945578 
L 288.935545 264.439633 
L 291.215143 269.387855 
L 293.494741 273.780235 
L 295.774338 277.61974 
L 297.598017 280.303321 
L 299.421695 282.656111 
L 301.245373 284.695608 
L 303.069051 286.442796 
L 304.89273 287.921363 
L 306.716408 289.156846 
L 308.996006 290.399794 
L 311.275603 291.356299 
L 313.555201 292.076381 
L 316.290718 292.693208 
L 319.482155 293.159364 
L 323.585431 293.492959 
L 329.056466 293.68212 
L 339.086696 293.758828 
L 407.01871 293.765455 
L 542.426818 293.765455 
L 542.426818 293.765455 
" clip-path="url(#p5d73bfe2fe)" style="fill: none; stroke: #fde725; stroke-width: 1.5; stroke-linecap: square"/>
   </g>
   <g id="patch_3">
    <path d="M 64.19 307.24 
L 64.19 10.8 
" style="fill: none; stroke: #000000; stroke-width: 0.8; stroke-linejoin: miter; stroke-linecap: square"/>
   </g>
   <g id="patch_4">
    <path d="M 565.2 307.24 
L 565.2 10.8 
" style="fill: none; stroke: #000000; stroke-width: 0.8; stroke-linejoin: miter; stroke-linecap: square"/>
   </g>
   <g id="patch_5">
    <path d="M 64.19 307.24 
L 565.2 307.24 
" style="fill: none; stroke: #000000; stroke-width: 0.8; stroke-linejoin: miter; stroke-linecap: square"/>
   </g>
   <g id="patch_6">
    <path d="M 64.19 10.8 
L 565.2 10.8 
" style="fill: none; stroke: #000000; stroke-width: 0.8; stroke-linejoin: miter; stroke-linecap: square"/>
   </g>
   <g id="legend_1">
    <g id="patch_7">
     <path d="M 484.2 136.225 
L 558.2 136.225 
Q 560.2 136.225 560.2 134.225 
L 560.2 17.8 
Q 560.2 15.8 558.2 15.8 
L 484.2 15.8 
Q 482.2 15.8 482.2 17.8 
L 482.2 134.225 
Q 482.2 136.225 484.2 136.225 
z
" style="fill: #ffffff; opacity: 0.8; stroke: #cccccc; stroke-linejoin: miter"/>
    </g>
    <g id="line2d_37">
     <path d="M 486.2 23.898438 
L 496.2 23.898438 
L 506.2 23.898438 
" style="fill: none; stroke: #440154; stroke-width: 1.5; stroke-linecap: square"/>
    </g>
    <g id="text_17">
     <!-- $\alpha_n$=1.1 -->
     <g transform="translate(514.2 27.398438) scale(0.1 -0.1)">
      <defs>
       <path id="DejaVuSans-Oblique-3b1" d="M 2619 1628 
L 2622 2350 
Q 2625 3088 2069 3091 
Q 1653 3094 1394 2747 
Q 1069 2319 959 1747 
Q 825 1059 994 731 
Q 1169 397 1547 397 
Q 1966 397 2319 1063 
L 2619 1628 
z
M 2166 3578 
Q 3141 3594 3128 2584 
Q 3128 2584 3616 3500 
L 4128 3500 
L 3119 1603 
L 3109 919 
Q 3109 766 3194 638 
Q 3291 488 3391 488 
L 3669 488 
L 3575 0 
L 3228 0 
Q 2934 0 2722 263 
Q 2622 394 2619 669 
Q 2416 334 2066 50 
Q 1900 -81 1453 -78 
Q 722 -72 456 397 
Q 184 884 353 1747 
Q 534 2675 1009 3097 
Q 1544 3569 2166 3578 
z
" transform="scale(0.015625)"/>
       <path id="DejaVuSans-Oblique-6e" d="M 3566 2113 
L 3156 0 
L 2578 0 
L 2988 2091 
Q 3016 2238 3031 2350 
Q 3047 2463 3047 2528 
Q 3047 2791 2881 2937 
Q 2716 3084 2419 3084 
Q 1956 3084 1622 2776 
Q 1288 2469 1184 1941 
L 800 0 
L 225 0 
L 903 3500 
L 1478 3500 
L 1363 2950 
Q 1603 3253 1940 3418 
Q 2278 3584 2650 3584 
Q 3113 3584 3367 3334 
Q 3622 3084 3622 2631 
Q 3622 2519 3608 2391 
Q 3594 2263 3566 2113 
z
" transform="scale(0.015625)"/>
       <path id="DejaVuSans-3d" d="M 678 2906 
L 4684 2906 
L 4684 2381 
L 678 2381 
L 678 2906 
z
M 678 1631 
L 4684 1631 
L 4684 1100 
L 678 1100 
L 678 1631 
z
" transform="scale(0.015625)"/>
      </defs>
      <use xlink:href="#DejaVuSans-Oblique-3b1" transform="translate(0 0.09375)"/>
      <use xlink:href="#DejaVuSans-Oblique-6e" transform="translate(65.917969 -16.3125) scale(0.7)"/>
      <use xlink:href="#DejaVuSans-3d" transform="translate(113.017578 0.09375)"/>
      <use xlink:href="#DejaVuSans-31" transform="translate(196.806641 0.09375)"/>
      <use xlink:href="#DejaVuSans-2e" transform="translate(260.429688 0.09375)"/>
      <use xlink:href="#DejaVuSans-31" transform="translate(292.216797 0.09375)"/>
     </g>
    </g>
    <g id="line2d_38">
     <path d="M 486.2 38.576563 
L 496.2 38.576563 
L 506.2 38.576563 
" style="fill: none; stroke: #46327e; stroke-width: 1.5; stroke-linecap: square"/>
    </g>
    <g id="text_18">
     <!-- $\alpha_n$=3.1 -->
     <g transform="translate(514.2 42.076563) scale(0.1 -0.1)">
      <defs>
       <path id="DejaVuSans-33" d="M 2597 2516 
Q 3050 2419 3304 2112 
Q 3559 1806 3559 1356 
Q 3559 666 3084 287 
Q 2609 -91 1734 -91 
Q 1441 -91 1130 -33 
Q 819 25 488 141 
L 488 750 
Q 750 597 1062 519 
Q 1375 441 1716 441 
Q 2309 441 2620 675 
Q 2931 909 2931 1356 
Q 2931 1769 2642 2001 
Q 2353 2234 1838 2234 
L 1294 2234 
L 1294 2753 
L 1863 2753 
Q 2328 2753 2575 2939 
Q 2822 3125 2822 3475 
Q 2822 3834 2567 4026 
Q 2313 4219 1838 4219 
Q 1578 4219 1281 4162 
Q 984 4106 628 3988 
L 628 4550 
Q 988 4650 1302 4700 
Q 1616 4750 1894 4750 
Q 2613 4750 3031 4423 
Q 3450 4097 3450 3541 
Q 3450 3153 3228 2886 
Q 3006 2619 2597 2516 
z
" transform="scale(0.015625)"/>
      </defs>
      <use xlink:href="#DejaVuSans-Oblique-3b1" transform="translate(0 0.78125)"/>
      <use xlink:href="#DejaVuSans-Oblique-6e" transform="translate(65.917969 -15.625) scale(0.7)"/>
      <use xlink:href="#DejaVuSans-3d" transform="translate(113.017578 0.78125)"/>
      <use xlink:href="#DejaVuSans-33" transform="translate(196.806641 0.78125)"/>
      <use xlink:href="#DejaVuSans-2e" transform="translate(260.429688 0.78125)"/>
      <use xlink:href="#DejaVuSans-31" transform="translate(292.216797 0.78125)"/>
     </g>
    </g>
    <g id="line2d_39">
     <path d="M 486.2 53.254687 
L 496.2 53.254687 
L 506.2 53.254687 
" style="fill: none; stroke: #365c8d; stroke-width: 1.5; stroke-linecap: square"/>
    </g>
    <g id="text_19">
     <!-- $\alpha_n$=4.7 -->
     <g transform="translate(514.2 56.754687) scale(0.1 -0.1)">
      <use xlink:href="#DejaVuSans-Oblique-3b1" transform="translate(0 0.09375)"/>
      <use xlink:href="#DejaVuSans-Oblique-6e" transform="translate(65.917969 -16.3125) scale(0.7)"/>
      <use xlink:href="#DejaVuSans-3d" transform="translate(113.017578 0.09375)"/>
      <use xlink:href="#DejaVuSans-34" transform="translate(196.806641 0.09375)"/>
      <use xlink:href="#DejaVuSans-2e" transform="translate(260.429688 0.09375)"/>
      <use xlink:href="#DejaVuSans-37" transform="translate(284.466797 0.09375)"/>
     </g>
    </g>
    <g id="line2d_40">
     <path d="M 486.2 67.932813 
L 496.2 67.932813 
L 506.2 67.932813 
" style="fill: none; stroke: #277f8e; stroke-width: 1.5; stroke-linecap: square"/>
    </g>
    <g id="text_20">
     <!-- $\alpha_n$=8.5 -->
     <g transform="translate(514.2 71.432813) scale(0.1 -0.1)">
      <use xlink:href="#DejaVuSans-Oblique-3b1" transform="translate(0 0.78125)"/>
      <use xlink:href="#DejaVuSans-Oblique-6e" transform="translate(65.917969 -15.625) scale(0.7)"/>
      <use xlink:href="#DejaVuSans-3d" transform="translate(113.017578 0.78125)"/>
      <use xlink:href="#DejaVuSans-38" transform="translate(196.806641 0.78125)"/>
      <use xlink:href="#DejaVuSans-2e" transform="translate(260.429688 0.78125)"/>
      <use xlink:href="#DejaVuSans-35" transform="translate(292.216797 0.78125)"/>
     </g>
    </g>
    <g id="line2d_41">
     <path d="M 486.2 82.610937 
L 496.2 82.610937 
L 506.2 82.610937 
" style="fill: none; stroke: #1fa187; stroke-width: 1.5; stroke-linecap: square"/>
    </g>
    <g id="text_21">
     <!-- $\alpha_n$=9.2 -->
     <g transform="translate(514.2 86.110937) scale(0.1 -0.1)">
      <defs>
       <path id="DejaVuSans-39" d="M 703 97 
L 703 672 
Q 941 559 1184 500 
Q 1428 441 1663 441 
Q 2288 441 2617 861 
Q 2947 1281 2994 2138 
Q 2813 1869 2534 1725 
Q 2256 1581 1919 1581 
Q 1219 1581 811 2004 
Q 403 2428 403 3163 
Q 403 3881 828 4315 
Q 1253 4750 1959 4750 
Q 2769 4750 3195 4129 
Q 3622 3509 3622 2328 
Q 3622 1225 3098 567 
Q 2575 -91 1691 -91 
Q 1453 -91 1209 -44 
Q 966 3 703 97 
z
M 1959 2075 
Q 2384 2075 2632 2365 
Q 2881 2656 2881 3163 
Q 2881 3666 2632 3958 
Q 2384 4250 1959 4250 
Q 1534 4250 1286 3958 
Q 1038 3666 1038 3163 
Q 1038 2656 1286 2365 
Q 1534 2075 1959 2075 
z
" transform="scale(0.015625)"/>
      </defs>
      <use xlink:href="#DejaVuSans-Oblique-3b1" transform="translate(0 0.78125)"/>
      <use xlink:href="#DejaVuSans-Oblique-6e" transform="translate(65.917969 -15.625) scale(0.7)"/>
      <use xlink:href="#DejaVuSans-3d" transform="translate(113.017578 0.78125)"/>
      <use xlink:href="#DejaVuSans-39" transform="translate(196.806641 0.78125)"/>
      <use xlink:href="#DejaVuSans-2e" transform="translate(260.429688 0.78125)"/>
      <use xlink:href="#DejaVuSans-32" transform="translate(286.716797 0.78125)"/>
     </g>
    </g>
    <g id="line2d_42">
     <path d="M 486.2 97.289062 
L 496.2 97.289062 
L 506.2 97.289062 
" style="fill: none; stroke: #4ac16d; stroke-width: 1.5; stroke-linecap: square"/>
    </g>
    <g id="text_22">
     <!-- $\alpha_n$=10.2 -->
     <g transform="translate(514.2 100.789062) scale(0.1 -0.1)">
      <use xlink:href="#DejaVuSans-Oblique-3b1" transform="translate(0 0.78125)"/>
      <use xlink:href="#DejaVuSans-Oblique-6e" transform="translate(65.917969 -15.625) scale(0.7)"/>
      <use xlink:href="#DejaVuSans-3d" transform="translate(113.017578 0.78125)"/>
      <use xlink:href="#DejaVuSans-31" transform="translate(196.806641 0.78125)"/>
      <use xlink:href="#DejaVuSans-30" transform="translate(260.429688 0.78125)"/>
      <use xlink:href="#DejaVuSans-2e" transform="translate(324.052734 0.78125)"/>
      <use xlink:href="#DejaVuSans-32" transform="translate(350.339844 0.78125)"/>
     </g>
    </g>
    <g id="line2d_43">
     <path d="M 486.2 111.967187 
L 496.2 111.967187 
L 506.2 111.967187 
" style="fill: none; stroke: #a0da39; stroke-width: 1.5; stroke-linecap: square"/>
    </g>
    <g id="text_23">
     <!-- $\alpha_n$=10.5 -->
     <g transform="translate(514.2 115.467187) scale(0.1 -0.1)">
      <use xlink:href="#DejaVuSans-Oblique-3b1" transform="translate(0 0.78125)"/>
      <use xlink:href="#DejaVuSans-Oblique-6e" transform="translate(65.917969 -15.625) scale(0.7)"/>
      <use xlink:href="#DejaVuSans-3d" transform="translate(113.017578 0.78125)"/>
      <use xlink:href="#DejaVuSans-31" transform="translate(196.806641 0.78125)"/>
      <use xlink:href="#DejaVuSans-30" transform="translate(260.429688 0.78125)"/>
      <use xlink:href="#DejaVuSans-2e" transform="translate(324.052734 0.78125)"/>
      <use xlink:href="#DejaVuSans-35" transform="translate(355.839844 0.78125)"/>
     </g>
    </g>
    <g id="line2d_44">
     <path d="M 486.2 126.645312 
L 496.2 126.645312 
L 506.2 126.645312 
" style="fill: none; stroke: #fde725; stroke-width: 1.5; stroke-linecap: square"/>
    </g>
    <g id="text_24">
     <!-- $\alpha_n$=12.6 -->
     <g transform="translate(514.2 130.145312) scale(0.1 -0.1)">
      <use xlink:href="#DejaVuSans-Oblique-3b1" transform="translate(0 0.78125)"/>
      <use xlink:href="#DejaVuSans-Oblique-6e" transform="translate(65.917969 -15.625) scale(0.7)"/>
      <use xlink:href="#DejaVuSans-3d" transform="translate(113.017578 0.78125)"/>
      <use xlink:href="#DejaVuSans-31" transform="translate(196.806641 0.78125)"/>
      <use xlink:href="#DejaVuSans-32" transform="translate(260.429688 0.78125)"/>
      <use xlink:href="#DejaVuSans-2e" transform="translate(324.052734 0.78125)"/>
      <use xlink:href="#DejaVuSans-36" transform="translate(355.839844 0.78125)"/>
     </g>
    </g>
   </g>
  </g>
 </g>
 <defs>
  <clipPath id="p5d73bfe2fe">
   <rect x="64.19" y="10.8" width="501.01" height="296.44"/>
  </clipPath>
 </defs>
</svg>
