<?xml version="1.0" encoding="utf-8" standalone="no"?>
<!DOCTYPE svg PUBLIC "-//W3C//DTD SVG 1.1//EN"
  "http://www.w3.org/Graphics/SVG/1.1/DTD/svg11.dtd">
<svg xmlns:xlink="http://www.w3.org/1999/xlink" width="576pt" height="360pt" viewBox="0 0 576 360" xmlns="http://www.w3.org/2000/svg" version="1.1">
 <metadata>
  <rdf:RDF xmlns:dc="http://purl.org/dc/elements/1.1/" xmlns:cc="http://creativecommons.org/ns#" xmlns:rdf="http://www.w3.org/1999/02/22-rdf-syntax-ns#">
   <cc:Work>
    <dc:type rdf:resource="http://purl.org/dc/dcmitype/StillImage"/>
    <dc:date>2026-03-06T21:41:31.062868</dc:date>
    <dc:format>image/svg+xml</dc:format>
    <dc:creator>
     <cc:Agent>
      <dc:title>Matplotlib v3.10.8, https://matplotlib.org/</dc:title>
     </cc:Agent>
    </dc:creator>
   </cc:Work>
  </rdf:RDF>
 </metadata>
 <defs>
  <style type="text/css">*{stroke-linejoin: round; stroke-linecap: butt}</style>
 </defs>
 <g id="figure_1">
  <g id="patch_1">
   <path d="M 0 360 
L 576 360 
L 576 0 
L 0 0 
z
" style="fill: #ffffff"/>
  </g>
  <g id="axes_1">
   <g id="patch_2">
    <path d="M 64.19 307.24 
L 565.2 307.24 
L 565.2 10.8 
L 64.19 10.8 
z
" style="fill: #ffffff"/>
   </g>
   <g id="matplotlib.axis_1">
    <g id="xtick_1">
     <g id="line2d_1">
      <path d="M 86.963182 307.24 
L 86.963182 10.8 
" clip-path="url(#pcf5fd70cf5)" style="fill: none; stroke: #b0b0b0; stroke-opacity: 0.3; stroke-width: 0.8; stroke-linecap: square"/>
     </g>
     <g id="line2d_2">
      <defs>
       <path id="m4092d65e7c" d="M 0 0 
L 0 3.5 
" style="stroke: #000000; stroke-width: 0.8"/>
      </defs>
      <g>
       <use xlink:href="#m4092d65e7c" x="86.963182" y="307.24" style="stroke: #000000; stroke-width: 0.8"/>
      </g>
     </g>
     <g id="text_1">
      <!-- −2.5 -->
      <g transform="translate(67.536932 326.3975) scale(0.16 -0.16)">
       <defs>
        <path id="DejaVuSans-2212" d="M 678 2272 
L 4684 2272 
L 4684 1741 
L 678 1741 
L 678 2272 
z
" transform="scale(0.015625)"/>
        <path id="DejaVuSans-32" d="M 1228 531 
L 3431 531 
L 3431 0 
L 469 0 
L 469 531 
Q 828 903 1448 1529 
Q 2069 2156 2228 2338 
Q 2531 2678 2651 2914 
Q 2772 3150 2772 3378 
Q 2772 3750 2511 3984 
Q 2250 4219 1831 4219 
Q 1534 4219 1204 4116 
Q 875 4013 500 3803 
L 500 4441 
Q 881 4594 1212 4672 
Q 1544 4750 1819 4750 
Q 2544 4750 2975 4387 
Q 3406 4025 3406 3419 
Q 3406 3131 3298 2873 
Q 3191 2616 2906 2266 
Q 2828 2175 2409 1742 
Q 1991 1309 1228 531 
z
" transform="scale(0.015625)"/>
        <path id="DejaVuSans-2e" d="M 684 794 
L 1344 794 
L 1344 0 
L 684 0 
L 684 794 
z
" transform="scale(0.015625)"/>
        <path id="DejaVuSans-35" d="M 691 4666 
L 3169 4666 
L 3169 4134 
L 1269 4134 
L 1269 2991 
Q 1406 3038 1543 3061 
Q 1681 3084 1819 3084 
Q 2600 3084 3056 2656 
Q 3513 2228 3513 1497 
Q 3513 744 3044 326 
Q 2575 -91 1722 -91 
Q 1428 -91 1123 -41 
Q 819 9 494 109 
L 494 744 
Q 775 591 1075 516 
Q 1375 441 1709 441 
Q 2250 441 2565 725 
Q 2881 1009 2881 1497 
Q 2881 1984 2565 2268 
Q 2250 2553 1709 2553 
Q 1456 2553 1204 2497 
Q 953 2441 691 2322 
L 691 4666 
z
" transform="scale(0.015625)"/>
       </defs>
       <use xlink:href="#DejaVuSans-2212"/>
       <use xlink:href="#DejaVuSans-32" transform="translate(83.789062 0)"/>
       <use xlink:href="#DejaVuSans-2e" transform="translate(147.412109 0)"/>
       <use xlink:href="#DejaVuSans-35" transform="translate(179.199219 0)"/>
      </g>
     </g>
    </g>
    <g id="xtick_2">
     <g id="line2d_3">
      <path d="M 152.029416 307.24 
L 152.029416 10.8 
" clip-path="url(#pcf5fd70cf5)" style="fill: none; stroke: #b0b0b0; stroke-opacity: 0.3; stroke-width: 0.8; stroke-linecap: square"/>
     </g>
     <g id="line2d_4">
      <g>
       <use xlink:href="#m4092d65e7c" x="152.029416" y="307.24" style="stroke: #000000; stroke-width: 0.8"/>
      </g>
     </g>
     <g id="text_2">
      <!-- 0.0 -->
      <g transform="translate(139.306916 326.3975) scale(0.16 -0.16)">
       <defs>
        <path id="DejaVuSans-30" d="M 2034 4250 
Q 1547 4250 1301 3770 
Q 1056 3291 1056 2328 
Q 1056 1369 1301 889 
Q 1547 409 2034 409 
Q 2525 409 2770 889 
Q 3016 1369 3016 2328 
Q 3016 3291 2770 3770 
Q 2525 4250 2034 4250 
z
M 2034 4750 
Q 2819 4750 3233 4129 
Q 3647 3509 3647 2328 
Q 3647 1150 3233 529 
Q 2819 -91 2034 -91 
Q 1250 -91 836 529 
Q 422 1150 422 2328 
Q 422 3509 836 4129 
Q 1250 4750 2034 4750 
z
" transform="scale(0.015625)"/>
       </defs>
       <use xlink:href="#DejaVuSans-30"/>
       <use xlink:href="#DejaVuSans-2e" transform="translate(63.623047 0)"/>
       <use xlink:href="#DejaVuSans-30" transform="translate(95.410156 0)"/>
      </g>
     </g>
    </g>
    <g id="xtick_3">
     <g id="line2d_5">
      <path d="M 217.095649 307.24 
L 217.095649 10.8 
" clip-path="url(#pcf5fd70cf5)" style="fill: none; stroke: #b0b0b0; stroke-opacity: 0.3; stroke-width: 0.8; stroke-linecap: square"/>
     </g>
     <g id="line2d_6">
      <g>
       <use xlink:href="#m4092d65e7c" x="217.095649" y="307.24" style="stroke: #000000; stroke-width: 0.8"/>
      </g>
     </g>
     <g id="text_3">
      <!-- 2.5 -->
      <g transform="translate(204.373149 326.3975) scale(0.16 -0.16)">
       <use xlink:href="#DejaVuSans-32"/>
       <use xlink:href="#DejaVuSans-2e" transform="translate(63.623047 0)"/>
       <use xlink:href="#DejaVuSans-35" transform="translate(95.410156 0)"/>
      </g>
     </g>
    </g>
    <g id="xtick_4">
     <g id="line2d_7">
      <path d="M 282.161883 307.24 
L 282.161883 10.8 
" clip-path="url(#pcf5fd70cf5)" style="fill: none; stroke: #b0b0b0; stroke-opacity: 0.3; stroke-width: 0.8; stroke-linecap: square"/>
     </g>
     <g id="line2d_8">
      <g>
       <use xlink:href="#m4092d65e7c" x="282.161883" y="307.24" style="stroke: #000000; stroke-width: 0.8"/>
      </g>
     </g>
     <g id="text_4">
      <!-- 5.0 -->
      <g transform="translate(269.439383 326.3975) scale(0.16 -0.16)">
       <use xlink:href="#DejaVuSans-35"/>
       <use xlink:href="#DejaVuSans-2e" transform="translate(63.623047 0)"/>
       <use xlink:href="#DejaVuSans-30" transform="translate(95.410156 0)"/>
      </g>
     </g>
    </g>
    <g id="xtick_5">
     <g id="line2d_9">
      <path d="M 347.228117 307.24 
L 347.228117 10.8 
" clip-path="url(#pcf5fd70cf5)" style="fill: none; stroke: #b0b0b0; stroke-opacity: 0.3; stroke-width: 0.8; stroke-linecap: square"/>
     </g>
     <g id="line2d_10">
      <g>
       <use xlink:href="#m4092d65e7c" x="347.228117" y="307.24" style="stroke: #000000; stroke-width: 0.8"/>
      </g>
     </g>
     <g id="text_5">
      <!-- 7.5 -->
      <g transform="translate(334.505617 326.3975) scale(0.16 -0.16)">
       <defs>
        <path id="DejaVuSans-37" d="M 525 4666 
L 3525 4666 
L 3525 4397 
L 1831 0 
L 1172 0 
L 2766 4134 
L 525 4134 
L 525 4666 
z
" transform="scale(0.015625)"/>
       </defs>
       <use xlink:href="#DejaVuSans-37"/>
       <use xlink:href="#DejaVuSans-2e" transform="translate(63.623047 0)"/>
       <use xlink:href="#DejaVuSans-35" transform="translate(95.410156 0)"/>
      </g>
     </g>
    </g>
    <g id="xtick_6">
     <g id="line2d_11">
      <path d="M 412.294351 307.24 
L 412.294351 10.8 
" clip-path="url(#pcf5fd70cf5)" style="fill: none; stroke: #b0b0b0; stroke-opacity: 0.3; stroke-width: 0.8; stroke-linecap: square"/>
     </g>
     <g id="line2d_12">
      <g>
       <use xlink:href="#m4092d65e7c" x="412.294351" y="307.24" style="stroke: #000000; stroke-width: 0.8"/>
      </g>
     </g>
     <g id="text_6">
      <!-- 10.0 -->
      <g transform="translate(394.481851 326.3975) scale(0.16 -0.16)">
       <defs>
        <path id="DejaVuSans-31" d="M 794 531 
L 1825 531 
L 1825 4091 
L 703 3866 
L 703 4441 
L 1819 4666 
L 2450 4666 
L 2450 531 
L 3481 531 
L 3481 0 
L 794 0 
L 794 531 
z
" transform="scale(0.015625)"/>
       </defs>
       <use xlink:href="#DejaVuSans-31"/>
       <use xlink:href="#DejaVuSans-30" transform="translate(63.623047 0)"/>
       <use xlink:href="#DejaVuSans-2e" transform="translate(127.246094 0)"/>
       <use xlink:href="#DejaVuSans-30" transform="translate(159.033203 0)"/>
      </g>
     </g>
    </g>
    <g id="xtick_7">
     <g id="line2d_13">
      <path d="M 477.360584 307.24 
L 477.360584 10.8 
" clip-path="url(#pcf5fd70cf5)" style="fill: none; stroke: #b0b0b0; stroke-opacity: 0.3; stroke-width: 0.8; stroke-linecap: square"/>
     </g>
     <g id="line2d_14">
      <g>
       <use xlink:href="#m4092d65e7c" x="477.360584" y="307.24" style="stroke: #000000; stroke-width: 0.8"/>
      </g>
     </g>
     <g id="text_7">
      <!-- 12.5 -->
      <g transform="translate(459.548084 326.3975) scale(0.16 -0.16)">
       <use xlink:href="#DejaVuSans-31"/>
       <use xlink:href="#DejaVuSans-32" transform="translate(63.623047 0)"/>
       <use xlink:href="#DejaVuSans-2e" transform="translate(127.246094 0)"/>
       <use xlink:href="#DejaVuSans-35" transform="translate(159.033203 0)"/>
      </g>
     </g>
    </g>
    <g id="xtick_8">
     <g id="line2d_15">
      <path d="M 542.426818 307.24 
L 542.426818 10.8 
" clip-path="url(#pcf5fd70cf5)" style="fill: none; stroke: #b0b0b0; stroke-opacity: 0.3; stroke-width: 0.8; stroke-linecap: square"/>
     </g>
     <g id="line2d_16">
      <g>
       <use xlink:href="#m4092d65e7c" x="542.426818" y="307.24" style="stroke: #000000; stroke-width: 0.8"/>
      </g>
     </g>
     <g id="text_8">
      <!-- 15.0 -->
      <g transform="translate(524.614318 326.3975) scale(0.16 -0.16)">
       <use xlink:href="#DejaVuSans-31"/>
       <use xlink:href="#DejaVuSans-35" transform="translate(63.623047 0)"/>
       <use xlink:href="#DejaVuSans-2e" transform="translate(127.246094 0)"/>
       <use xlink:href="#DejaVuSans-30" transform="translate(159.033203 0)"/>
      </g>
     </g>
    </g>
    <g id="text_9">
     <!-- $x_t$ -->
     <g transform="translate(307.495 345.8825) scale(0.16 -0.16)">
      <defs>
       <path id="DejaVuSans-Oblique-78" d="M 3841 3500 
L 2234 1784 
L 3219 0 
L 2559 0 
L 1819 1388 
L 531 0 
L -166 0 
L 1556 1844 
L 641 3500 
L 1300 3500 
L 1972 2234 
L 3144 3500 
L 3841 3500 
z
" transform="scale(0.015625)"/>
       <path id="DejaVuSans-Oblique-74" d="M 2706 3500 
L 2619 3053 
L 1472 3053 
L 1100 1153 
Q 1081 1047 1072 975 
Q 1063 903 1063 863 
Q 1063 663 1183 572 
Q 1303 481 1569 481 
L 2150 481 
L 2053 0 
L 1503 0 
Q 991 0 739 200 
Q 488 400 488 806 
Q 488 878 497 964 
Q 506 1050 525 1153 
L 897 3053 
L 409 3053 
L 500 3500 
L 978 3500 
L 1172 4494 
L 1747 4494 
L 1556 3500 
L 2706 3500 
z
" transform="scale(0.015625)"/>
      </defs>
      <use xlink:href="#DejaVuSans-Oblique-78" transform="translate(0 0.3125)"/>
      <use xlink:href="#DejaVuSans-Oblique-74" transform="translate(59.179688 -16.09375) scale(0.7)"/>
     </g>
    </g>
   </g>
   <g id="matplotlib.axis_2">
    <g id="ytick_1">
     <g id="line2d_17">
      <path d="M 64.19 293.765455 
L 565.2 293.765455 
" clip-path="url(#pcf5fd70cf5)" style="fill: none; stroke: #b0b0b0; stroke-opacity: 0.3; stroke-width: 0.8; stroke-linecap: square"/>
     </g>
     <g id="line2d_18">
      <defs>
       <path id="m7c4895d310" d="M 0 0 
L -3.5 0 
" style="stroke: #000000; stroke-width: 0.8"/>
      </defs>
      <g>
       <use xlink:href="#m7c4895d310" x="64.19" y="293.765455" style="stroke: #000000; stroke-width: 0.8"/>
      </g>
     </g>
     <g id="text_10">
      <!-- 0.0 -->
      <g transform="translate(31.745 299.844205) scale(0.16 -0.16)">
       <use xlink:href="#DejaVuSans-30"/>
       <use xlink:href="#DejaVuSans-2e" transform="translate(63.623047 0)"/>
       <use xlink:href="#DejaVuSans-30" transform="translate(95.410156 0)"/>
      </g>
     </g>
    </g>
    <g id="ytick_2">
     <g id="line2d_19">
      <path d="M 64.19 239.863159 
L 565.2 239.863159 
" clip-path="url(#pcf5fd70cf5)" style="fill: none; stroke: #b0b0b0; stroke-opacity: 0.3; stroke-width: 0.8; stroke-linecap: square"/>
     </g>
     <g id="line2d_20">
      <g>
       <use xlink:href="#m7c4895d310" x="64.19" y="239.863159" style="stroke: #000000; stroke-width: 0.8"/>
      </g>
     </g>
     <g id="text_11">
      <!-- 0.2 -->
      <g transform="translate(31.745 245.941909) scale(0.16 -0.16)">
       <use xlink:href="#DejaVuSans-30"/>
       <use xlink:href="#DejaVuSans-2e" transform="translate(63.623047 0)"/>
       <use xlink:href="#DejaVuSans-32" transform="translate(95.410156 0)"/>
      </g>
     </g>
    </g>
    <g id="ytick_3">
     <g id="line2d_21">
      <path d="M 64.19 185.960864 
L 565.2 185.960864 
" clip-path="url(#pcf5fd70cf5)" style="fill: none; stroke: #b0b0b0; stroke-opacity: 0.3; stroke-width: 0.8; stroke-linecap: square"/>
     </g>
     <g id="line2d_22">
      <g>
       <use xlink:href="#m7c4895d310" x="64.19" y="185.960864" style="stroke: #000000; stroke-width: 0.8"/>
      </g>
     </g>
     <g id="text_12">
      <!-- 0.4 -->
      <g transform="translate(31.745 192.039614) scale(0.16 -0.16)">
       <defs>
        <path id="DejaVuSans-34" d="M 2419 4116 
L 825 1625 
L 2419 1625 
L 2419 4116 
z
M 2253 4666 
L 3047 4666 
L 3047 1625 
L 3713 1625 
L 3713 1100 
L 3047 1100 
L 3047 0 
L 2419 0 
L 2419 1100 
L 313 1100 
L 313 1709 
L 2253 4666 
z
" transform="scale(0.015625)"/>
       </defs>
       <use xlink:href="#DejaVuSans-30"/>
       <use xlink:href="#DejaVuSans-2e" transform="translate(63.623047 0)"/>
       <use xlink:href="#DejaVuSans-34" transform="translate(95.410156 0)"/>
      </g>
     </g>
    </g>
    <g id="ytick_4">
     <g id="line2d_23">
      <path d="M 64.19 132.058568 
L 565.2 132.058568 
" clip-path="url(#pcf5fd70cf5)" style="fill: none; stroke: #b0b0b0; stroke-opacity: 0.3; stroke-width: 0.8; stroke-linecap: square"/>
     </g>
     <g id="line2d_24">
      <g>
       <use xlink:href="#m7c4895d310" x="64.19" y="132.058568" style="stroke: #000000; stroke-width: 0.8"/>
      </g>
     </g>
     <g id="text_13">
      <!-- 0.6 -->
      <g transform="translate(31.745 138.137318) scale(0.16 -0.16)">
       <defs>
        <path id="DejaVuSans-36" d="M 2113 2584 
Q 1688 2584 1439 2293 
Q 1191 2003 1191 1497 
Q 1191 994 1439 701 
Q 1688 409 2113 409 
Q 2538 409 2786 701 
Q 3034 994 3034 1497 
Q 3034 2003 2786 2293 
Q 2538 2584 2113 2584 
z
M 3366 4563 
L 3366 3988 
Q 3128 4100 2886 4159 
Q 2644 4219 2406 4219 
Q 1781 4219 1451 3797 
Q 1122 3375 1075 2522 
Q 1259 2794 1537 2939 
Q 1816 3084 2150 3084 
Q 2853 3084 3261 2657 
Q 3669 2231 3669 1497 
Q 3669 778 3244 343 
Q 2819 -91 2113 -91 
Q 1303 -91 875 529 
Q 447 1150 447 2328 
Q 447 3434 972 4092 
Q 1497 4750 2381 4750 
Q 2619 4750 2861 4703 
Q 3103 4656 3366 4563 
z
" transform="scale(0.015625)"/>
       </defs>
       <use xlink:href="#DejaVuSans-30"/>
       <use xlink:href="#DejaVuSans-2e" transform="translate(63.623047 0)"/>
       <use xlink:href="#DejaVuSans-36" transform="translate(95.410156 0)"/>
      </g>
     </g>
    </g>
    <g id="ytick_5">
     <g id="line2d_25">
      <path d="M 64.19 78.156273 
L 565.2 78.156273 
" clip-path="url(#pcf5fd70cf5)" style="fill: none; stroke: #b0b0b0; stroke-opacity: 0.3; stroke-width: 0.8; stroke-linecap: square"/>
     </g>
     <g id="line2d_26">
      <g>
       <use xlink:href="#m7c4895d310" x="64.19" y="78.156273" style="stroke: #000000; stroke-width: 0.8"/>
      </g>
     </g>
     <g id="text_14">
      <!-- 0.8 -->
      <g transform="translate(31.745 84.235023) scale(0.16 -0.16)">
       <defs>
        <path id="DejaVuSans-38" d="M 2034 2216 
Q 1584 2216 1326 1975 
Q 1069 1734 1069 1313 
Q 1069 891 1326 650 
Q 1584 409 2034 409 
Q 2484 409 2743 651 
Q 3003 894 3003 1313 
Q 3003 1734 2745 1975 
Q 2488 2216 2034 2216 
z
M 1403 2484 
Q 997 2584 770 2862 
Q 544 3141 544 3541 
Q 544 4100 942 4425 
Q 1341 4750 2034 4750 
Q 2731 4750 3128 4425 
Q 3525 4100 3525 3541 
Q 3525 3141 3298 2862 
Q 3072 2584 2669 2484 
Q 3125 2378 3379 2068 
Q 3634 1759 3634 1313 
Q 3634 634 3220 271 
Q 2806 -91 2034 -91 
Q 1263 -91 848 271 
Q 434 634 434 1313 
Q 434 1759 690 2068 
Q 947 2378 1403 2484 
z
M 1172 3481 
Q 1172 3119 1398 2916 
Q 1625 2713 2034 2713 
Q 2441 2713 2670 2916 
Q 2900 3119 2900 3481 
Q 2900 3844 2670 4047 
Q 2441 4250 2034 4250 
Q 1625 4250 1398 4047 
Q 1172 3844 1172 3481 
z
" transform="scale(0.015625)"/>
       </defs>
       <use xlink:href="#DejaVuSans-30"/>
       <use xlink:href="#DejaVuSans-2e" transform="translate(63.623047 0)"/>
       <use xlink:href="#DejaVuSans-38" transform="translate(95.410156 0)"/>
      </g>
     </g>
    </g>
    <g id="ytick_6">
     <g id="line2d_27">
      <path d="M 64.19 24.253977 
L 565.2 24.253977 
" clip-path="url(#pcf5fd70cf5)" style="fill: none; stroke: #b0b0b0; stroke-opacity: 0.3; stroke-width: 0.8; stroke-linecap: square"/>
     </g>
     <g id="line2d_28">
      <g>
       <use xlink:href="#m7c4895d310" x="64.19" y="24.253977" style="stroke: #000000; stroke-width: 0.8"/>
      </g>
     </g>
     <g id="text_15">
      <!-- 1.0 -->
      <g transform="translate(31.745 30.332727) scale(0.16 -0.16)">
       <use xlink:href="#DejaVuSans-31"/>
       <use xlink:href="#DejaVuSans-2e" transform="translate(63.623047 0)"/>
       <use xlink:href="#DejaVuSans-30" transform="translate(95.410156 0)"/>
      </g>
     </g>
    </g>
    <g id="text_16">
     <!-- forget gate ($f_t$) -->
     <g transform="translate(24.385 217.82) rotate(-90) scale(0.16 -0.16)">
      <defs>
       <path id="DejaVuSans-66" d="M 2375 4863 
L 2375 4384 
L 1825 4384 
Q 1516 4384 1395 4259 
Q 1275 4134 1275 3809 
L 1275 3500 
L 2222 3500 
L 2222 3053 
L 1275 3053 
L 1275 0 
L 697 0 
L 697 3053 
L 147 3053 
L 147 3500 
L 697 3500 
L 697 3744 
Q 697 4328 969 4595 
Q 1241 4863 1831 4863 
L 2375 4863 
z
" transform="scale(0.015625)"/>
       <path id="DejaVuSans-6f" d="M 1959 3097 
Q 1497 3097 1228 2736 
Q 959 2375 959 1747 
Q 959 1119 1226 758 
Q 1494 397 1959 397 
Q 2419 397 2687 759 
Q 2956 1122 2956 1747 
Q 2956 2369 2687 2733 
Q 2419 3097 1959 3097 
z
M 1959 3584 
Q 2709 3584 3137 3096 
Q 3566 2609 3566 1747 
Q 3566 888 3137 398 
Q 2709 -91 1959 -91 
Q 1206 -91 779 398 
Q 353 888 353 1747 
Q 353 2609 779 3096 
Q 1206 3584 1959 3584 
z
" transform="scale(0.015625)"/>
       <path id="DejaVuSans-72" d="M 2631 2963 
Q 2534 3019 2420 3045 
Q 2306 3072 2169 3072 
Q 1681 3072 1420 2755 
Q 1159 2438 1159 1844 
L 1159 0 
L 581 0 
L 581 3500 
L 1159 3500 
L 1159 2956 
Q 1341 3275 1631 3429 
Q 1922 3584 2338 3584 
Q 2397 3584 2469 3576 
Q 2541 3569 2628 3553 
L 2631 2963 
z
" transform="scale(0.015625)"/>
       <path id="DejaVuSans-67" d="M 2906 1791 
Q 2906 2416 2648 2759 
Q 2391 3103 1925 3103 
Q 1463 3103 1205 2759 
Q 947 2416 947 1791 
Q 947 1169 1205 825 
Q 1463 481 1925 481 
Q 2391 481 2648 825 
Q 2906 1169 2906 1791 
z
M 3481 434 
Q 3481 -459 3084 -895 
Q 2688 -1331 1869 -1331 
Q 1566 -1331 1297 -1286 
Q 1028 -1241 775 -1147 
L 775 -588 
Q 1028 -725 1275 -790 
Q 1522 -856 1778 -856 
Q 2344 -856 2625 -561 
Q 2906 -266 2906 331 
L 2906 616 
Q 2728 306 2450 153 
Q 2172 0 1784 0 
Q 1141 0 747 490 
Q 353 981 353 1791 
Q 353 2603 747 3093 
Q 1141 3584 1784 3584 
Q 2172 3584 2450 3431 
Q 2728 3278 2906 2969 
L 2906 3500 
L 3481 3500 
L 3481 434 
z
" transform="scale(0.015625)"/>
       <path id="DejaVuSans-65" d="M 3597 1894 
L 3597 1613 
L 953 1613 
Q 991 1019 1311 708 
Q 1631 397 2203 397 
Q 2534 397 2845 478 
Q 3156 559 3463 722 
L 3463 178 
Q 3153 47 2828 -22 
Q 2503 -91 2169 -91 
Q 1331 -91 842 396 
Q 353 884 353 1716 
Q 353 2575 817 3079 
Q 1281 3584 2069 3584 
Q 2775 3584 3186 3129 
Q 3597 2675 3597 1894 
z
M 3022 2063 
Q 3016 2534 2758 2815 
Q 2500 3097 2075 3097 
Q 1594 3097 1305 2825 
Q 1016 2553 972 2059 
L 3022 2063 
z
" transform="scale(0.015625)"/>
       <path id="DejaVuSans-74" d="M 1172 4494 
L 1172 3500 
L 2356 3500 
L 2356 3053 
L 1172 3053 
L 1172 1153 
Q 1172 725 1289 603 
Q 1406 481 1766 481 
L 2356 481 
L 2356 0 
L 1766 0 
Q 1100 0 847 248 
Q 594 497 594 1153 
L 594 3053 
L 172 3053 
L 172 3500 
L 594 3500 
L 594 4494 
L 1172 4494 
z
" transform="scale(0.015625)"/>
       <path id="DejaVuSans-20" transform="scale(0.015625)"/>
       <path id="DejaVuSans-61" d="M 2194 1759 
Q 1497 1759 1228 1600 
Q 959 1441 959 1056 
Q 959 750 1161 570 
Q 1363 391 1709 391 
Q 2188 391 2477 730 
Q 2766 1069 2766 1631 
L 2766 1759 
L 2194 1759 
z
M 3341 1997 
L 3341 0 
L 2766 0 
L 2766 531 
Q 2569 213 2275 61 
Q 1981 -91 1556 -91 
Q 1019 -91 701 211 
Q 384 513 384 1019 
Q 384 1609 779 1909 
Q 1175 2209 1959 2209 
L 2766 2209 
L 2766 2266 
Q 2766 2663 2505 2880 
Q 2244 3097 1772 3097 
Q 1472 3097 1187 3025 
Q 903 2953 641 2809 
L 641 3341 
Q 956 3463 1253 3523 
Q 1550 3584 1831 3584 
Q 2591 3584 2966 3190 
Q 3341 2797 3341 1997 
z
" transform="scale(0.015625)"/>
       <path id="DejaVuSans-28" d="M 1984 4856 
Q 1566 4138 1362 3434 
Q 1159 2731 1159 2009 
Q 1159 1288 1364 580 
Q 1569 -128 1984 -844 
L 1484 -844 
Q 1016 -109 783 600 
Q 550 1309 550 2009 
Q 550 2706 781 3412 
Q 1013 4119 1484 4856 
L 1984 4856 
z
" transform="scale(0.015625)"/>
       <path id="DejaVuSans-Oblique-66" d="M 3059 4863 
L 2969 4384 
L 2419 4384 
Q 2106 4384 1964 4261 
Q 1822 4138 1753 3809 
L 1691 3500 
L 2638 3500 
L 2553 3053 
L 1606 3053 
L 1013 0 
L 434 0 
L 1031 3053 
L 481 3053 
L 563 3500 
L 1113 3500 
L 1159 3744 
Q 1278 4363 1576 4613 
Q 1875 4863 2516 4863 
L 3059 4863 
z
" transform="scale(0.015625)"/>
       <path id="DejaVuSans-29" d="M 513 4856 
L 1013 4856 
Q 1481 4119 1714 3412 
Q 1947 2706 1947 2009 
Q 1947 1309 1714 600 
Q 1481 -109 1013 -844 
L 513 -844 
Q 928 -128 1133 580 
Q 1338 1288 1338 2009 
Q 1338 2731 1133 3434 
Q 928 4138 513 4856 
z
" transform="scale(0.015625)"/>
      </defs>
      <use xlink:href="#DejaVuSans-66" transform="translate(0 0.015625)"/>
      <use xlink:href="#DejaVuSans-6f" transform="translate(35.205078 0.015625)"/>
      <use xlink:href="#DejaVuSans-72" transform="translate(96.386719 0.015625)"/>
      <use xlink:href="#DejaVuSans-67" transform="translate(137.5 0.015625)"/>
      <use xlink:href="#DejaVuSans-65" transform="translate(200.976562 0.015625)"/>
      <use xlink:href="#DejaVuSans-74" transform="translate(262.5 0.015625)"/>
      <use xlink:href="#DejaVuSans-20" transform="translate(301.708984 0.015625)"/>
      <use xlink:href="#DejaVuSans-67" transform="translate(333.496094 0.015625)"/>
      <use xlink:href="#DejaVuSans-61" transform="translate(396.972656 0.015625)"/>
      <use xlink:href="#DejaVuSans-74" transform="translate(458.251953 0.015625)"/>
      <use xlink:href="#DejaVuSans-65" transform="translate(497.460938 0.015625)"/>
      <use xlink:href="#DejaVuSans-20" transform="translate(558.984375 0.015625)"/>
      <use xlink:href="#DejaVuSans-28" transform="translate(590.771484 0.015625)"/>
      <use xlink:href="#DejaVuSans-Oblique-66" transform="translate(629.785156 0.015625)"/>
      <use xlink:href="#DejaVuSans-Oblique-74" transform="translate(664.990234 -16.390625) scale(0.7)"/>
      <use xlink:href="#DejaVuSans-29" transform="translate(695.170898 0.015625)"/>
     </g>
    </g>
   </g>
   <g id="line2d_29">
    <path d="M 86.963182 24.274545 
L 142.585368 24.428193 
L 167.205024 24.702152 
L 183.618128 25.094731 
L 195.927956 25.600546 
L 205.958186 26.228862 
L 214.164738 26.953326 
L 221.459451 27.814596 
L 227.842325 28.786944 
L 233.769279 29.92093 
L 238.784394 31.09351 
L 243.799509 32.500847 
L 248.358705 34.02041 
L 252.461981 35.615274 
L 256.565257 37.456849 
L 260.212613 39.327867 
L 263.85997 41.445591 
L 267.507326 43.837092 
L 270.698763 46.176579 
L 273.8902 48.767138 
L 277.081637 51.628743 
L 280.273074 54.781275 
L 283.46451 58.244065 
L 286.655947 62.035335 
L 289.847384 66.171557 
L 293.038821 70.666724 
L 296.230258 75.531559 
L 299.421695 80.772684 
L 303.069051 87.225215 
L 306.716408 94.164538 
L 310.363764 101.572889 
L 314.46704 110.430399 
L 319.026236 120.84878 
L 324.041351 132.879763 
L 330.880144 149.920039 
L 344.557731 184.141456 
L 350.028766 197.109321 
L 354.587961 207.340917 
L 358.691237 216.015255 
L 362.338594 223.257909 
L 365.98595 230.036085 
L 369.633306 236.337956 
L 373.280663 242.161516 
L 376.4721 246.869634 
L 379.663537 251.225057 
L 382.854974 255.239765 
L 386.046411 258.928272 
L 389.237847 262.306943 
L 392.429284 265.393385 
L 395.620721 268.20592 
L 399.268078 271.108697 
L 402.915434 273.705566 
L 406.562791 276.023391 
L 410.210147 278.087923 
L 414.313423 280.138024 
L 418.416699 281.930634 
L 422.519975 283.495383 
L 427.079171 284.999403 
L 432.094286 286.406618 
L 437.56532 287.690276 
L 443.492275 288.833287 
L 449.875148 289.82776 
L 457.169861 290.723408 
L 465.376413 291.491511 
L 474.950724 292.147242 
L 486.348713 292.686846 
L 500.026299 293.102944 
L 518.263082 293.419752 
L 542.426818 293.619516 
L 542.426818 293.619516 
" clip-path="url(#pcf5fd70cf5)" style="fill: none; stroke: #440154; stroke-width: 1.5; stroke-linecap: square"/>
   </g>
   <g id="line2d_30">
    <path d="M 86.963182 24.309214 
L 126.172264 24.50302 
L 147.600483 24.820842 
L 162.189909 25.245829 
L 173.587897 25.788685 
L 183.162208 26.467165 
L 190.912841 27.22895 
L 197.751634 28.113993 
L 203.678588 29.088724 
L 209.149623 30.2022 
L 214.164738 31.44253 
L 218.723933 32.788113 
L 223.283129 34.378727 
L 227.386405 36.05423 
L 231.033761 37.766475 
L 234.681118 39.716655 
L 238.328474 41.934568 
L 241.519911 44.12036 
L 244.711348 46.55944 
L 247.902785 49.27671 
L 251.094222 52.298356 
L 254.285659 55.651582 
L 257.477096 59.36424 
L 260.668533 63.464332 
L 263.85997 67.979354 
L 267.051406 72.935489 
L 270.242843 78.356611 
L 273.43428 84.263107 
L 276.625717 90.670534 
L 279.817154 97.588114 
L 283.008591 105.017131 
L 286.655947 114.122543 
L 290.303304 123.854357 
L 294.40658 135.485667 
L 298.965775 149.126293 
L 304.89273 167.649669 
L 317.658477 207.821598 
L 321.761753 219.93147 
L 325.40911 230.058387 
L 328.600546 238.324207 
L 331.791983 245.966152 
L 334.527501 251.985264 
L 337.263018 257.496487 
L 339.998535 262.494557 
L 342.734053 266.984495 
L 345.46957 270.980525 
L 347.749168 273.948951 
L 350.028766 276.605686 
L 352.308363 278.969167 
L 354.587961 281.059494 
L 357.323478 283.237107 
L 360.058996 285.089085 
L 362.794513 286.652394 
L 365.53003 287.962698 
L 368.721467 289.2163 
L 371.912904 290.220019 
L 375.560261 291.116626 
L 379.663537 291.871991 
L 384.222732 292.472647 
L 389.693767 292.956096 
L 396.53256 293.320784 
L 405.650951 293.569051 
L 420.240377 293.713983 
L 454.434344 293.763397 
L 542.426818 293.765454 
L 542.426818 293.765454 
" clip-path="url(#pcf5fd70cf5)" style="fill: none; stroke: #46327e; stroke-width: 1.5; stroke-linecap: square"/>
   </g>
   <g id="line2d_31">
    <path d="M 86.963182 24.309222 
L 126.172264 24.503058 
L 147.144563 24.811099 
L 162.189909 25.245982 
L 173.587897 25.788922 
L 183.162208 26.467506 
L 190.912841 27.229407 
L 197.751634 28.114586 
L 203.678588 29.089465 
L 209.149623 30.20311 
L 214.164738 31.443627 
L 218.723933 32.789412 
L 223.283129 34.380263 
L 227.386405 36.056014 
L 231.033761 37.768511 
L 234.681118 39.718976 
L 238.328474 41.93721 
L 241.519911 44.123316 
L 244.711348 46.562742 
L 247.902785 49.280394 
L 251.094222 52.302458 
L 254.285659 55.656142 
L 257.477096 59.369299 
L 260.668533 63.46993 
L 263.85997 67.985534 
L 267.051406 72.942292 
L 270.242843 78.364074 
L 273.43428 84.271266 
L 276.625717 90.679419 
L 279.817154 97.597748 
L 283.008591 105.027526 
L 286.655947 114.13381 
L 290.303304 123.866476 
L 294.40658 135.498692 
L 298.965775 149.140211 
L 304.89273 167.664477 
L 317.658477 207.836784 
L 321.761753 219.946251 
L 325.40911 230.072593 
L 328.600546 238.337761 
L 331.791983 245.978933 
L 334.527501 251.997305 
L 337.263018 257.507733 
L 339.998535 262.50497 
L 342.734053 266.994055 
L 345.46957 270.989227 
L 347.749168 273.956947 
L 350.028766 276.612991 
L 352.308363 278.975806 
L 354.587961 281.065494 
L 357.323478 283.242384 
L 360.058996 285.093693 
L 362.794513 286.656391 
L 365.53003 287.966141 
L 368.721467 289.21917 
L 371.912904 290.222393 
L 375.560261 291.118518 
L 379.663537 291.873442 
L 384.222732 292.473714 
L 389.693767 292.956823 
L 396.53256 293.321224 
L 405.650951 293.56927 
L 420.240377 293.714051 
L 454.434344 293.7634 
L 542.426818 293.765454 
L 542.426818 293.765454 
" clip-path="url(#pcf5fd70cf5)" style="fill: none; stroke: #365c8d; stroke-width: 1.5; stroke-linecap: square"/>
   </g>
   <g id="line2d_32">
    <path d="M 86.963182 24.38658 
L 114.774275 24.639799 
L 132.099218 25.004111 
L 144.864965 25.477774 
L 155.351115 26.082568 
L 164.013587 26.800714 
L 171.3083 27.618566 
L 177.691173 28.544981 
L 183.618128 29.629542 
L 189.089162 30.868967 
L 194.104277 32.2502 
L 198.663473 33.74936 
L 202.766749 35.331538 
L 206.870025 37.169644 
L 210.517381 39.049471 
L 214.164738 41.192245 
L 217.356175 43.309077 
L 220.547612 45.677184 
L 223.739049 48.322833 
L 226.930485 51.274078 
L 230.121922 54.560608 
L 233.313359 58.213491 
L 236.048877 61.660422 
L 238.784394 65.420581 
L 241.519911 69.514426 
L 244.255429 73.961963 
L 246.990946 78.782255 
L 250.182383 84.90033 
L 253.37382 91.573465 
L 256.565257 98.819727 
L 259.756694 106.649338 
L 262.94813 115.062493 
L 266.595487 125.375808 
L 270.242843 136.393011 
L 274.346119 149.538893 
L 278.905315 164.898526 
L 286.200028 190.396307 
L 293.038821 214.094439 
L 297.142097 227.578147 
L 300.789454 238.779417 
L 303.98089 247.811081 
L 306.716408 254.894525 
L 309.451925 261.318237 
L 311.731523 266.145348 
L 314.011121 270.486856 
L 316.290718 274.345946 
L 318.570316 277.734938 
L 320.849914 280.67437 
L 323.129512 283.191726 
L 325.40911 285.319929 
L 327.688707 287.095702 
L 329.968305 288.557899 
L 332.247903 289.745933 
L 334.527501 290.698373 
L 337.263018 291.581616 
L 339.998535 292.235743 
L 343.189972 292.776036 
L 347.293248 293.217909 
L 352.308363 293.511755 
L 359.603076 293.689292 
L 373.736582 293.759654 
L 483.157276 293.765455 
L 542.426818 293.765455 
L 542.426818 293.765455 
" clip-path="url(#pcf5fd70cf5)" style="fill: none; stroke: #277f8e; stroke-width: 1.5; stroke-linecap: square"/>
   </g>
   <g id="line2d_33">
    <path d="M 86.963182 24.465896 
L 109.75916 24.762479 
L 125.260425 25.175674 
L 137.114333 25.705809 
L 146.688644 26.348591 
L 154.895196 27.120474 
L 161.733989 27.975316 
L 168.116863 28.999501 
L 173.587897 30.09629 
L 178.603013 31.319736 
L 183.162208 32.64904 
L 187.265484 34.053547 
L 191.36876 35.687303 
L 195.016117 37.360446 
L 198.663473 39.270485 
L 202.310829 41.448448 
L 205.502266 43.600822 
L 208.693703 46.009605 
L 211.88514 48.701833 
L 215.076577 51.706442 
L 218.268014 55.054129 
L 221.459451 58.777107 
L 224.194968 62.292206 
L 226.930485 66.128945 
L 229.666003 70.308761 
L 232.40152 74.852714 
L 235.137037 79.780986 
L 237.872555 85.112274 
L 241.063992 91.863323 
L 244.255429 99.206075 
L 247.446866 107.153631 
L 250.638302 115.709016 
L 253.829739 124.862634 
L 257.477096 136.023763 
L 261.580372 149.39116 
L 266.139567 165.075437 
L 272.522441 187.949995 
L 280.728993 217.282216 
L 284.832269 231.112019 
L 288.023706 241.167557 
L 290.759223 249.170323 
L 293.494741 256.519071 
L 295.774338 262.098656 
L 298.053936 267.157489 
L 300.333534 271.683475 
L 302.613132 275.676434 
L 304.89273 279.147811 
L 306.716408 281.563947 
L 308.540086 283.676001 
L 310.363764 285.502909 
L 312.187442 287.066126 
L 314.011121 288.388893 
L 316.290718 289.74123 
L 318.570316 290.803682 
L 320.849914 291.622865 
L 323.585431 292.346017 
L 326.776868 292.915649 
L 330.424225 293.312842 
L 334.98342 293.572677 
L 341.822214 293.718716 
L 357.779398 293.764514 
L 542.426818 293.765455 
L 542.426818 293.765455 
" clip-path="url(#pcf5fd70cf5)" style="fill: none; stroke: #1fa187; stroke-width: 1.5; stroke-linecap: square"/>
   </g>
   <g id="line2d_34">
    <path d="M 86.963182 24.513072 
L 107.935481 24.833587 
L 122.524907 25.268362 
L 133.922896 25.82401 
L 143.041287 26.479782 
L 150.79192 27.247222 
L 157.630713 28.139681 
L 163.557667 29.123631 
L 169.028702 30.248988 
L 174.043817 31.504248 
L 178.603013 32.868052 
L 182.706289 34.308934 
L 186.809565 35.984904 
L 190.456921 37.701165 
L 194.104277 39.660285 
L 197.751634 41.894024 
L 200.943071 44.101316 
L 204.134508 46.571314 
L 207.325945 49.331647 
L 210.517381 52.411861 
L 213.708818 55.843268 
L 216.444336 59.08884 
L 219.179853 62.637872 
L 221.91537 66.512069 
L 224.650888 70.733176 
L 227.386405 75.322567 
L 230.121922 80.300737 
L 232.85744 85.686684 
L 236.048877 92.507888 
L 239.240313 99.928013 
L 242.43175 107.960387 
L 245.623187 116.608061 
L 248.814624 125.861185 
L 252.461981 137.14403 
L 256.565257 150.656382 
L 261.124452 166.506698 
L 267.507326 189.605597 
L 275.257958 217.563898 
L 279.361234 231.546666 
L 282.552671 241.712461 
L 285.288189 249.797517 
L 288.023706 257.212571 
L 290.303304 262.832437 
L 292.582902 267.91617 
L 294.862499 272.450723 
L 297.142097 276.435757 
L 298.965775 279.235879 
L 300.789454 281.703442 
L 302.613132 283.854306 
L 304.43681 285.707969 
L 306.260488 287.286827 
L 308.084166 288.615366 
L 310.363764 289.963301 
L 312.643362 291.011385 
L 314.92296 291.809417 
L 317.658477 292.502378 
L 320.849914 293.035494 
L 324.49727 293.395002 
L 329.512386 293.632511 
L 337.263018 293.743412 
L 362.794513 293.765444 
L 542.426818 293.765455 
L 542.426818 293.765455 
" clip-path="url(#pcf5fd70cf5)" style="fill: none; stroke: #4ac16d; stroke-width: 1.5; stroke-linecap: square"/>
   </g>
   <g id="line2d_35">
    <path d="M 86.963182 24.56054 
L 106.111803 24.893355 
L 120.245309 25.353488 
L 131.187379 25.92618 
L 140.30577 26.624462 
L 148.056402 27.441527 
L 154.895196 28.391527 
L 160.82215 29.438707 
L 166.293185 30.636108 
L 171.3083 31.971386 
L 175.867495 33.421713 
L 179.970771 34.95354 
L 184.074047 36.73468 
L 187.721404 38.557954 
L 191.36876 40.638376 
L 194.560197 42.695822 
L 197.751634 45.000109 
L 200.943071 47.577734 
L 204.134508 50.457191 
L 207.325945 53.668874 
L 210.517381 57.244901 
L 213.252899 60.625445 
L 215.988416 64.320011 
L 218.723933 68.350576 
L 221.459451 72.739019 
L 224.194968 77.506671 
L 226.930485 82.67376 
L 229.666003 88.258745 
L 232.85744 95.32376 
L 236.048877 102.998192 
L 239.240313 111.29243 
L 242.43175 120.205595 
L 246.079107 131.130085 
L 249.726463 142.793499 
L 253.829739 156.692874 
L 258.844854 174.543675 
L 273.43428 227.209531 
L 277.081637 239.202902 
L 280.273074 248.888856 
L 283.008591 256.472955 
L 285.288189 262.230673 
L 287.567786 267.445534 
L 289.847384 272.101086 
L 292.126982 276.194127 
L 293.95066 279.069846 
L 295.774338 281.602625 
L 297.598017 283.808018 
L 299.421695 285.705598 
L 301.245373 287.318199 
L 303.069051 288.671061 
L 304.89273 289.790938 
L 307.172327 290.904831 
L 309.451925 291.750166 
L 311.731523 292.376899 
L 314.46704 292.904004 
L 317.658477 293.292878 
L 321.761753 293.562111 
L 328.144627 293.719045 
L 342.278133 293.764611 
L 542.426818 293.765455 
L 542.426818 293.765455 
" clip-path="url(#pcf5fd70cf5)" style="fill: none; stroke: #a0da39; stroke-width: 1.5; stroke-linecap: square"/>
   </g>
   <g id="line2d_36">
    <path d="M 86.963182 24.590442 
L 105.655884 24.943508 
L 119.33347 25.419114 
L 129.81962 25.995217 
L 138.482092 26.679551 
L 146.232724 27.515513 
L 152.615598 28.414518 
L 158.542552 29.467521 
L 164.013587 30.671583 
L 169.028702 32.01429 
L 173.587897 33.47269 
L 177.691173 35.013044 
L 181.794449 36.804103 
L 185.441806 38.637533 
L 189.089162 40.729545 
L 192.280599 42.798456 
L 195.472036 45.115583 
L 198.663473 47.707571 
L 201.85491 50.603069 
L 205.046347 53.832639 
L 208.237784 57.428567 
L 210.973301 60.827908 
L 213.708818 64.542992 
L 216.444336 68.595904 
L 219.179853 73.008625 
L 221.91537 77.802573 
L 224.650888 82.998051 
L 227.386405 88.613567 
L 230.577842 95.716927 
L 233.769279 103.432587 
L 236.960716 111.770779 
L 240.152153 120.730326 
L 243.799509 131.710185 
L 247.446866 143.430473 
L 251.550142 157.393775 
L 256.565257 175.318523 
L 271.154682 228.105499 
L 274.802039 240.089787 
L 277.993476 249.75058 
L 280.728993 257.299883 
L 283.008591 263.019496 
L 285.288189 268.188546 
L 287.567786 272.79148 
L 289.847384 276.826316 
L 291.671062 279.652449 
L 293.494741 282.133892 
L 295.318419 284.28712 
L 297.142097 286.132647 
L 298.965775 287.694225 
L 300.789454 288.997957 
L 302.613132 290.071358 
L 304.89273 291.131844 
L 307.172327 291.929811 
L 309.907845 292.611564 
L 312.643362 293.06532 
L 316.290718 293.425892 
L 320.849914 293.64066 
L 328.600546 293.747868 
L 356.411639 293.765454 
L 542.426818 293.765455 
L 542.426818 293.765455 
" clip-path="url(#pcf5fd70cf5)" style="fill: none; stroke: #fde725; stroke-width: 1.5; stroke-linecap: square"/>
   </g>
   <g id="patch_3">
    <path d="M 64.19 307.24 
L 64.19 10.8 
" style="fill: none; stroke: #000000; stroke-width: 0.8; stroke-linejoin: miter; stroke-linecap: square"/>
   </g>
   <g id="patch_4">
    <path d="M 565.2 307.24 
L 565.2 10.8 
" style="fill: none; stroke: #000000; stroke-width: 0.8; stroke-linejoin: miter; stroke-linecap: square"/>
   </g>
   <g id="patch_5">
    <path d="M 64.19 307.24 
L 565.2 307.24 
" style="fill: none; stroke: #000000; stroke-width: 0.8; stroke-linejoin: miter; stroke-linecap: square"/>
   </g>
   <g id="patch_6">
    <path d="M 64.19 10.8 
L 565.2 10.8 
" style="fill: none; stroke: #000000; stroke-width: 0.8; stroke-linejoin: miter; stroke-linecap: square"/>
   </g>
   <g id="legend_1">
    <g id="patch_7">
     <path d="M 423.4 137.2 
L 558.2 137.2 
Q 560.2 137.2 560.2 135.2 
L 560.2 17.8 
Q 560.2 15.8 558.2 15.8 
L 423.4 15.8 
Q 421.4 15.8 421.4 17.8 
L 421.4 135.2 
Q 421.4 137.2 423.4 137.2 
z
" style="fill: #ffffff; opacity: 0.8; stroke: #cccccc; stroke-linejoin: miter"/>
    </g>
    <g id="line2d_37">
     <path d="M 425.4 24 
L 435.4 24 
L 445.4 24 
" style="fill: none; stroke: #440154; stroke-width: 1.5; stroke-linecap: square"/>
    </g>
    <g id="text_17">
     <!-- $\alpha_n$=0.9, $\beta_n$=0.0010 -->
     <g transform="translate(453.4 27.5) scale(0.1 -0.1)">
      <defs>
       <path id="DejaVuSans-Oblique-3b1" d="M 2619 1628 
L 2622 2350 
Q 2625 3088 2069 3091 
Q 1653 3094 1394 2747 
Q 1069 2319 959 1747 
Q 825 1059 994 731 
Q 1169 397 1547 397 
Q 1966 397 2319 1063 
L 2619 1628 
z
M 2166 3578 
Q 3141 3594 3128 2584 
Q 3128 2584 3616 3500 
L 4128 3500 
L 3119 1603 
L 3109 919 
Q 3109 766 3194 638 
Q 3291 488 3391 488 
L 3669 488 
L 3575 0 
L 3228 0 
Q 2934 0 2722 263 
Q 2622 394 2619 669 
Q 2416 334 2066 50 
Q 1900 -81 1453 -78 
Q 722 -72 456 397 
Q 184 884 353 1747 
Q 534 2675 1009 3097 
Q 1544 3569 2166 3578 
z
" transform="scale(0.015625)"/>
       <path id="DejaVuSans-Oblique-6e" d="M 3566 2113 
L 3156 0 
L 2578 0 
L 2988 2091 
Q 3016 2238 3031 2350 
Q 3047 2463 3047 2528 
Q 3047 2791 2881 2937 
Q 2716 3084 2419 3084 
Q 1956 3084 1622 2776 
Q 1288 2469 1184 1941 
L 800 0 
L 225 0 
L 903 3500 
L 1478 3500 
L 1363 2950 
Q 1603 3253 1940 3418 
Q 2278 3584 2650 3584 
Q 3113 3584 3367 3334 
Q 3622 3084 3622 2631 
Q 3622 2519 3608 2391 
Q 3594 2263 3566 2113 
z
" transform="scale(0.015625)"/>
       <path id="DejaVuSans-3d" d="M 678 2906 
L 4684 2906 
L 4684 2381 
L 678 2381 
L 678 2906 
z
M 678 1631 
L 4684 1631 
L 4684 1100 
L 678 1100 
L 678 1631 
z
" transform="scale(0.015625)"/>
       <path id="DejaVuSans-39" d="M 703 97 
L 703 672 
Q 941 559 1184 500 
Q 1428 441 1663 441 
Q 2288 441 2617 861 
Q 2947 1281 2994 2138 
Q 2813 1869 2534 1725 
Q 2256 1581 1919 1581 
Q 1219 1581 811 2004 
Q 403 2428 403 3163 
Q 403 3881 828 4315 
Q 1253 4750 1959 4750 
Q 2769 4750 3195 4129 
Q 3622 3509 3622 2328 
Q 3622 1225 3098 567 
Q 2575 -91 1691 -91 
Q 1453 -91 1209 -44 
Q 966 3 703 97 
z
M 1959 2075 
Q 2384 2075 2632 2365 
Q 2881 2656 2881 3163 
Q 2881 3666 2632 3958 
Q 2384 4250 1959 4250 
Q 1534 4250 1286 3958 
Q 1038 3666 1038 3163 
Q 1038 2656 1286 2365 
Q 1534 2075 1959 2075 
z
" transform="scale(0.015625)"/>
       <path id="DejaVuSans-2c" d="M 750 794 
L 1409 794 
L 1409 256 
L 897 -744 
L 494 -744 
L 750 256 
L 750 794 
z
" transform="scale(0.015625)"/>
       <path id="DejaVuSans-Oblique-3b2" d="M 872 216 
L 572 -1331 
L -6 -1331 
L 928 3478 
Q 1206 4903 2538 4903 
Q 3888 4903 3659 3700 
Q 3503 2844 2894 2531 
Q 3713 2250 3553 1416 
Q 3272 -69 1759 -66 
Q 1097 -63 872 216 
z
M 1019 966 
Q 1259 422 1875 425 
Q 2775 425 2966 1406 
Q 3138 2288 1675 2219 
L 1778 2750 
Q 2909 2731 3106 3750 
Q 3241 4438 2509 4434 
Q 1691 4434 1503 3459 
L 1019 966 
z
" transform="scale(0.015625)"/>
      </defs>
      <use xlink:href="#DejaVuSans-Oblique-3b1" transform="translate(0 0.390625)"/>
      <use xlink:href="#DejaVuSans-Oblique-6e" transform="translate(65.917969 -16.015625) scale(0.7)"/>
      <use xlink:href="#DejaVuSans-3d" transform="translate(113.017578 0.390625)"/>
      <use xlink:href="#DejaVuSans-30" transform="translate(196.806641 0.390625)"/>
      <use xlink:href="#DejaVuSans-2e" transform="translate(260.429688 0.390625)"/>
      <use xlink:href="#DejaVuSans-39" transform="translate(292.216797 0.390625)"/>
      <use xlink:href="#DejaVuSans-2c" transform="translate(355.839844 0.390625)"/>
      <use xlink:href="#DejaVuSans-20" transform="translate(387.626953 0.390625)"/>
      <use xlink:href="#DejaVuSans-Oblique-3b2" transform="translate(419.414062 0.390625)"/>
      <use xlink:href="#DejaVuSans-Oblique-6e" transform="translate(483.232422 -16.015625) scale(0.7)"/>
      <use xlink:href="#DejaVuSans-3d" transform="translate(530.332031 0.390625)"/>
      <use xlink:href="#DejaVuSans-30" transform="translate(614.121094 0.390625)"/>
      <use xlink:href="#DejaVuSans-2e" transform="translate(677.744141 0.390625)"/>
      <use xlink:href="#DejaVuSans-30" transform="translate(709.53125 0.390625)"/>
      <use xlink:href="#DejaVuSans-30" transform="translate(773.154297 0.390625)"/>
      <use xlink:href="#DejaVuSans-31" transform="translate(836.777344 0.390625)"/>
      <use xlink:href="#DejaVuSans-30" transform="translate(900.400391 0.390625)"/>
     </g>
    </g>
    <g id="line2d_38">
     <path d="M 425.4 38.8 
L 435.4 38.8 
L 445.4 38.8 
" style="fill: none; stroke: #46327e; stroke-width: 1.5; stroke-linecap: square"/>
    </g>
    <g id="text_18">
     <!-- $\alpha_n$=2.5, $\beta_n$=0.0010 -->
     <g transform="translate(453.4 42.3) scale(0.1 -0.1)">
      <use xlink:href="#DejaVuSans-Oblique-3b1" transform="translate(0 0.390625)"/>
      <use xlink:href="#DejaVuSans-Oblique-6e" transform="translate(65.917969 -16.015625) scale(0.7)"/>
      <use xlink:href="#DejaVuSans-3d" transform="translate(113.017578 0.390625)"/>
      <use xlink:href="#DejaVuSans-32" transform="translate(196.806641 0.390625)"/>
      <use xlink:href="#DejaVuSans-2e" transform="translate(260.429688 0.390625)"/>
      <use xlink:href="#DejaVuSans-35" transform="translate(292.216797 0.390625)"/>
      <use xlink:href="#DejaVuSans-2c" transform="translate(355.839844 0.390625)"/>
      <use xlink:href="#DejaVuSans-20" transform="translate(387.626953 0.390625)"/>
      <use xlink:href="#DejaVuSans-Oblique-3b2" transform="translate(419.414062 0.390625)"/>
      <use xlink:href="#DejaVuSans-Oblique-6e" transform="translate(483.232422 -16.015625) scale(0.7)"/>
      <use xlink:href="#DejaVuSans-3d" transform="translate(530.332031 0.390625)"/>
      <use xlink:href="#DejaVuSans-30" transform="translate(614.121094 0.390625)"/>
      <use xlink:href="#DejaVuSans-2e" transform="translate(677.744141 0.390625)"/>
      <use xlink:href="#DejaVuSans-30" transform="translate(709.53125 0.390625)"/>
      <use xlink:href="#DejaVuSans-30" transform="translate(773.154297 0.390625)"/>
      <use xlink:href="#DejaVuSans-31" transform="translate(836.777344 0.390625)"/>
      <use xlink:href="#DejaVuSans-30" transform="translate(900.400391 0.390625)"/>
     </g>
    </g>
    <g id="line2d_39">
     <path d="M 425.4 53.6 
L 435.4 53.6 
L 445.4 53.6 
" style="fill: none; stroke: #365c8d; stroke-width: 1.5; stroke-linecap: square"/>
    </g>
    <g id="text_19">
     <!-- $\alpha_n$=2.5, $\beta_n$=0.0010 -->
     <g transform="translate(453.4 57.1) scale(0.1 -0.1)">
      <use xlink:href="#DejaVuSans-Oblique-3b1" transform="translate(0 0.390625)"/>
      <use xlink:href="#DejaVuSans-Oblique-6e" transform="translate(65.917969 -16.015625) scale(0.7)"/>
      <use xlink:href="#DejaVuSans-3d" transform="translate(113.017578 0.390625)"/>
      <use xlink:href="#DejaVuSans-32" transform="translate(196.806641 0.390625)"/>
      <use xlink:href="#DejaVuSans-2e" transform="translate(260.429688 0.390625)"/>
      <use xlink:href="#DejaVuSans-35" transform="translate(292.216797 0.390625)"/>
      <use xlink:href="#DejaVuSans-2c" transform="translate(355.839844 0.390625)"/>
      <use xlink:href="#DejaVuSans-20" transform="translate(387.626953 0.390625)"/>
      <use xlink:href="#DejaVuSans-Oblique-3b2" transform="translate(419.414062 0.390625)"/>
      <use xlink:href="#DejaVuSans-Oblique-6e" transform="translate(483.232422 -16.015625) scale(0.7)"/>
      <use xlink:href="#DejaVuSans-3d" transform="translate(530.332031 0.390625)"/>
      <use xlink:href="#DejaVuSans-30" transform="translate(614.121094 0.390625)"/>
      <use xlink:href="#DejaVuSans-2e" transform="translate(677.744141 0.390625)"/>
      <use xlink:href="#DejaVuSans-30" transform="translate(709.53125 0.390625)"/>
      <use xlink:href="#DejaVuSans-30" transform="translate(773.154297 0.390625)"/>
      <use xlink:href="#DejaVuSans-31" transform="translate(836.777344 0.390625)"/>
      <use xlink:href="#DejaVuSans-30" transform="translate(900.400391 0.390625)"/>
     </g>
    </g>
    <g id="line2d_40">
     <path d="M 425.4 68.4 
L 435.4 68.4 
L 445.4 68.4 
" style="fill: none; stroke: #277f8e; stroke-width: 1.5; stroke-linecap: square"/>
    </g>
    <g id="text_20">
     <!-- $\alpha_n$=6.0, $\beta_n$=0.0010 -->
     <g transform="translate(453.4 71.9) scale(0.1 -0.1)">
      <use xlink:href="#DejaVuSans-Oblique-3b1" transform="translate(0 0.390625)"/>
      <use xlink:href="#DejaVuSans-Oblique-6e" transform="translate(65.917969 -16.015625) scale(0.7)"/>
      <use xlink:href="#DejaVuSans-3d" transform="translate(113.017578 0.390625)"/>
      <use xlink:href="#DejaVuSans-36" transform="translate(196.806641 0.390625)"/>
      <use xlink:href="#DejaVuSans-2e" transform="translate(260.429688 0.390625)"/>
      <use xlink:href="#DejaVuSans-30" transform="translate(292.216797 0.390625)"/>
      <use xlink:href="#DejaVuSans-2c" transform="translate(355.839844 0.390625)"/>
      <use xlink:href="#DejaVuSans-20" transform="translate(387.626953 0.390625)"/>
      <use xlink:href="#DejaVuSans-Oblique-3b2" transform="translate(419.414062 0.390625)"/>
      <use xlink:href="#DejaVuSans-Oblique-6e" transform="translate(483.232422 -16.015625) scale(0.7)"/>
      <use xlink:href="#DejaVuSans-3d" transform="translate(530.332031 0.390625)"/>
      <use xlink:href="#DejaVuSans-30" transform="translate(614.121094 0.390625)"/>
      <use xlink:href="#DejaVuSans-2e" transform="translate(677.744141 0.390625)"/>
      <use xlink:href="#DejaVuSans-30" transform="translate(709.53125 0.390625)"/>
      <use xlink:href="#DejaVuSans-30" transform="translate(773.154297 0.390625)"/>
      <use xlink:href="#DejaVuSans-31" transform="translate(836.777344 0.390625)"/>
      <use xlink:href="#DejaVuSans-30" transform="translate(900.400391 0.390625)"/>
     </g>
    </g>
    <g id="line2d_41">
     <path d="M 425.4 83.2 
L 435.4 83.2 
L 445.4 83.2 
" style="fill: none; stroke: #1fa187; stroke-width: 1.5; stroke-linecap: square"/>
    </g>
    <g id="text_21">
     <!-- $\alpha_n$=9.6, $\beta_n$=0.0010 -->
     <g transform="translate(453.4 86.7) scale(0.1 -0.1)">
      <use xlink:href="#DejaVuSans-Oblique-3b1" transform="translate(0 0.390625)"/>
      <use xlink:href="#DejaVuSans-Oblique-6e" transform="translate(65.917969 -16.015625) scale(0.7)"/>
      <use xlink:href="#DejaVuSans-3d" transform="translate(113.017578 0.390625)"/>
      <use xlink:href="#DejaVuSans-39" transform="translate(196.806641 0.390625)"/>
      <use xlink:href="#DejaVuSans-2e" transform="translate(260.429688 0.390625)"/>
      <use xlink:href="#DejaVuSans-36" transform="translate(292.216797 0.390625)"/>
      <use xlink:href="#DejaVuSans-2c" transform="translate(355.839844 0.390625)"/>
      <use xlink:href="#DejaVuSans-20" transform="translate(387.626953 0.390625)"/>
      <use xlink:href="#DejaVuSans-Oblique-3b2" transform="translate(419.414062 0.390625)"/>
      <use xlink:href="#DejaVuSans-Oblique-6e" transform="translate(483.232422 -16.015625) scale(0.7)"/>
      <use xlink:href="#DejaVuSans-3d" transform="translate(530.332031 0.390625)"/>
      <use xlink:href="#DejaVuSans-30" transform="translate(614.121094 0.390625)"/>
      <use xlink:href="#DejaVuSans-2e" transform="translate(677.744141 0.390625)"/>
      <use xlink:href="#DejaVuSans-30" transform="translate(709.53125 0.390625)"/>
      <use xlink:href="#DejaVuSans-30" transform="translate(773.154297 0.390625)"/>
      <use xlink:href="#DejaVuSans-31" transform="translate(836.777344 0.390625)"/>
      <use xlink:href="#DejaVuSans-30" transform="translate(900.400391 0.390625)"/>
     </g>
    </g>
    <g id="line2d_42">
     <path d="M 425.4 98 
L 435.4 98 
L 445.4 98 
" style="fill: none; stroke: #4ac16d; stroke-width: 1.5; stroke-linecap: square"/>
    </g>
    <g id="text_22">
     <!-- $\alpha_n$=11.7, $\beta_n$=0.0010 -->
     <g transform="translate(453.4 101.5) scale(0.1 -0.1)">
      <use xlink:href="#DejaVuSans-Oblique-3b1" transform="translate(0 0.390625)"/>
      <use xlink:href="#DejaVuSans-Oblique-6e" transform="translate(65.917969 -16.015625) scale(0.7)"/>
      <use xlink:href="#DejaVuSans-3d" transform="translate(113.017578 0.390625)"/>
      <use xlink:href="#DejaVuSans-31" transform="translate(196.806641 0.390625)"/>
      <use xlink:href="#DejaVuSans-31" transform="translate(260.429688 0.390625)"/>
      <use xlink:href="#DejaVuSans-2e" transform="translate(324.052734 0.390625)"/>
      <use xlink:href="#DejaVuSans-37" transform="translate(348.089844 0.390625)"/>
      <use xlink:href="#DejaVuSans-2c" transform="translate(411.712891 0.390625)"/>
      <use xlink:href="#DejaVuSans-20" transform="translate(443.5 0.390625)"/>
      <use xlink:href="#DejaVuSans-Oblique-3b2" transform="translate(475.287109 0.390625)"/>
      <use xlink:href="#DejaVuSans-Oblique-6e" transform="translate(539.105469 -16.015625) scale(0.7)"/>
      <use xlink:href="#DejaVuSans-3d" transform="translate(586.205078 0.390625)"/>
      <use xlink:href="#DejaVuSans-30" transform="translate(669.994141 0.390625)"/>
      <use xlink:href="#DejaVuSans-2e" transform="translate(733.617188 0.390625)"/>
      <use xlink:href="#DejaVuSans-30" transform="translate(765.404297 0.390625)"/>
      <use xlink:href="#DejaVuSans-30" transform="translate(829.027344 0.390625)"/>
      <use xlink:href="#DejaVuSans-31" transform="translate(892.650391 0.390625)"/>
      <use xlink:href="#DejaVuSans-30" transform="translate(956.273438 0.390625)"/>
     </g>
    </g>
    <g id="line2d_43">
     <path d="M 425.4 112.8 
L 435.4 112.8 
L 445.4 112.8 
" style="fill: none; stroke: #a0da39; stroke-width: 1.5; stroke-linecap: square"/>
    </g>
    <g id="text_23">
     <!-- $\alpha_n$=13.9, $\beta_n$=0.0010 -->
     <g transform="translate(453.4 116.3) scale(0.1 -0.1)">
      <defs>
       <path id="DejaVuSans-33" d="M 2597 2516 
Q 3050 2419 3304 2112 
Q 3559 1806 3559 1356 
Q 3559 666 3084 287 
Q 2609 -91 1734 -91 
Q 1441 -91 1130 -33 
Q 819 25 488 141 
L 488 750 
Q 750 597 1062 519 
Q 1375 441 1716 441 
Q 2309 441 2620 675 
Q 2931 909 2931 1356 
Q 2931 1769 2642 2001 
Q 2353 2234 1838 2234 
L 1294 2234 
L 1294 2753 
L 1863 2753 
Q 2328 2753 2575 2939 
Q 2822 3125 2822 3475 
Q 2822 3834 2567 4026 
Q 2313 4219 1838 4219 
Q 1578 4219 1281 4162 
Q 984 4106 628 3988 
L 628 4550 
Q 988 4650 1302 4700 
Q 1616 4750 1894 4750 
Q 2613 4750 3031 4423 
Q 3450 4097 3450 3541 
Q 3450 3153 3228 2886 
Q 3006 2619 2597 2516 
z
" transform="scale(0.015625)"/>
      </defs>
      <use xlink:href="#DejaVuSans-Oblique-3b1" transform="translate(0 0.390625)"/>
      <use xlink:href="#DejaVuSans-Oblique-6e" transform="translate(65.917969 -16.015625) scale(0.7)"/>
      <use xlink:href="#DejaVuSans-3d" transform="translate(113.017578 0.390625)"/>
      <use xlink:href="#DejaVuSans-31" transform="translate(196.806641 0.390625)"/>
      <use xlink:href="#DejaVuSans-33" transform="translate(260.429688 0.390625)"/>
      <use xlink:href="#DejaVuSans-2e" transform="translate(324.052734 0.390625)"/>
      <use xlink:href="#DejaVuSans-39" transform="translate(355.839844 0.390625)"/>
      <use xlink:href="#DejaVuSans-2c" transform="translate(419.462891 0.390625)"/>
      <use xlink:href="#DejaVuSans-20" transform="translate(451.25 0.390625)"/>
      <use xlink:href="#DejaVuSans-Oblique-3b2" transform="translate(483.037109 0.390625)"/>
      <use xlink:href="#DejaVuSans-Oblique-6e" transform="translate(546.855469 -16.015625) scale(0.7)"/>
      <use xlink:href="#DejaVuSans-3d" transform="translate(593.955078 0.390625)"/>
      <use xlink:href="#DejaVuSans-30" transform="translate(677.744141 0.390625)"/>
      <use xlink:href="#DejaVuSans-2e" transform="translate(741.367188 0.390625)"/>
      <use xlink:href="#DejaVuSans-30" transform="translate(773.154297 0.390625)"/>
      <use xlink:href="#DejaVuSans-30" transform="translate(836.777344 0.390625)"/>
      <use xlink:href="#DejaVuSans-31" transform="translate(900.400391 0.390625)"/>
      <use xlink:href="#DejaVuSans-30" transform="translate(964.023438 0.390625)"/>
     </g>
    </g>
    <g id="line2d_44">
     <path d="M 425.4 127.6 
L 435.4 127.6 
L 445.4 127.6 
" style="fill: none; stroke: #fde725; stroke-width: 1.5; stroke-linecap: square"/>
    </g>
    <g id="text_24">
     <!-- $\alpha_n$=15.2, $\beta_n$=0.0010 -->
     <g transform="translate(453.4 131.1) scale(0.1 -0.1)">
      <use xlink:href="#DejaVuSans-Oblique-3b1" transform="translate(0 0.390625)"/>
      <use xlink:href="#DejaVuSans-Oblique-6e" transform="translate(65.917969 -16.015625) scale(0.7)"/>
      <use xlink:href="#DejaVuSans-3d" transform="translate(113.017578 0.390625)"/>
      <use xlink:href="#DejaVuSans-31" transform="translate(196.806641 0.390625)"/>
      <use xlink:href="#DejaVuSans-35" transform="translate(260.429688 0.390625)"/>
      <use xlink:href="#DejaVuSans-2e" transform="translate(324.052734 0.390625)"/>
      <use xlink:href="#DejaVuSans-32" transform="translate(350.339844 0.390625)"/>
      <use xlink:href="#DejaVuSans-2c" transform="translate(413.962891 0.390625)"/>
      <use xlink:href="#DejaVuSans-20" transform="translate(445.75 0.390625)"/>
      <use xlink:href="#DejaVuSans-Oblique-3b2" transform="translate(477.537109 0.390625)"/>
      <use xlink:href="#DejaVuSans-Oblique-6e" transform="translate(541.355469 -16.015625) scale(0.7)"/>
      <use xlink:href="#DejaVuSans-3d" transform="translate(588.455078 0.390625)"/>
      <use xlink:href="#DejaVuSans-30" transform="translate(672.244141 0.390625)"/>
      <use xlink:href="#DejaVuSans-2e" transform="translate(735.867188 0.390625)"/>
      <use xlink:href="#DejaVuSans-30" transform="translate(767.654297 0.390625)"/>
      <use xlink:href="#DejaVuSans-30" transform="translate(831.277344 0.390625)"/>
      <use xlink:href="#DejaVuSans-31" transform="translate(894.900391 0.390625)"/>
      <use xlink:href="#DejaVuSans-30" transform="translate(958.523438 0.390625)"/>
     </g>
    </g>
   </g>
  </g>
 </g>
 <defs>
  <clipPath id="pcf5fd70cf5">
   <rect x="64.19" y="10.8" width="501.01" height="296.44"/>
  </clipPath>
 </defs>
</svg>
