<?xml version="1.0" encoding="utf-8" standalone="no"?>
<!DOCTYPE svg PUBLIC "-//W3C//DTD SVG 1.1//EN"
  "http://www.w3.org/Graphics/SVG/1.1/DTD/svg11.dtd">
<svg xmlns:xlink="http://www.w3.org/1999/xlink" width="576pt" height="360pt" viewBox="0 0 576 360" xmlns="http://www.w3.org/2000/svg" version="1.1">
 <metadata>
  <rdf:RDF xmlns:dc="http://purl.org/dc/elements/1.1/" xmlns:cc="http://creativecommons.org/ns#" xmlns:rdf="http://www.w3.org/1999/02/22-rdf-syntax-ns#">
   <cc:Work>
    <dc:type rdf:resource="http://purl.org/dc/dcmitype/StillImage"/>
    <dc:date>2026-03-04T11:07:58.131058</dc:date>
    <dc:format>image/svg+xml</dc:format>
    <dc:creator>
     <cc:Agent>
      <dc:title>Matplotlib v3.10.8, https://matplotlib.org/</dc:title>
     </cc:Agent>
    </dc:creator>
   </cc:Work>
  </rdf:RDF>
 </metadata>
 <defs>
  <style type="text/css">*{stroke-linejoin: round; stroke-linecap: butt}</style>
 </defs>
 <g id="figure_1">
  <g id="patch_1">
   <path d="M 0 360 
L 576 360 
L 576 0 
L 0 0 
z
" style="fill: #ffffff"/>
  </g>
  <g id="axes_1">
   <g id="patch_2">
    <path d="M 49.295 318.04 
L 565.2 318.04 
L 565.2 10.8 
L 49.295 10.8 
z
" style="fill: #ffffff"/>
   </g>
   <g id="matplotlib.axis_1">
    <g id="xtick_1">
     <g id="line2d_1">
      <path d="M 102.058011 318.04 
L 102.058011 10.8 
" clip-path="url(#p45415c0778)" style="fill: none; stroke: #b0b0b0; stroke-opacity: 0.3; stroke-width: 0.8; stroke-linecap: square"/>
     </g>
     <g id="line2d_2">
      <defs>
       <path id="m4df5121f93" d="M 0 0 
L 0 3.5 
" style="stroke: #000000; stroke-width: 0.8"/>
      </defs>
      <g>
       <use xlink:href="#m4df5121f93" x="102.058011" y="318.04" style="stroke: #000000; stroke-width: 0.8"/>
      </g>
     </g>
     <g id="text_1">
      <!-- −5 -->
      <g transform="translate(94.686918 332.638438) scale(0.1 -0.1)">
       <defs>
        <path id="DejaVuSans-2212" d="M 678 2272 
L 4684 2272 
L 4684 1741 
L 678 1741 
L 678 2272 
z
" transform="scale(0.015625)"/>
        <path id="DejaVuSans-35" d="M 691 4666 
L 3169 4666 
L 3169 4134 
L 1269 4134 
L 1269 2991 
Q 1406 3038 1543 3061 
Q 1681 3084 1819 3084 
Q 2600 3084 3056 2656 
Q 3513 2228 3513 1497 
Q 3513 744 3044 326 
Q 2575 -91 1722 -91 
Q 1428 -91 1123 -41 
Q 819 9 494 109 
L 494 744 
Q 775 591 1075 516 
Q 1375 441 1709 441 
Q 2250 441 2565 725 
Q 2881 1009 2881 1497 
Q 2881 1984 2565 2268 
Q 2250 2553 1709 2553 
Q 1456 2553 1204 2497 
Q 953 2441 691 2322 
L 691 4666 
z
" transform="scale(0.015625)"/>
       </defs>
       <use xlink:href="#DejaVuSans-2212"/>
       <use xlink:href="#DejaVuSans-35" transform="translate(83.789062 0)"/>
      </g>
     </g>
    </g>
    <g id="xtick_2">
     <g id="line2d_3">
      <path d="M 175.339972 318.04 
L 175.339972 10.8 
" clip-path="url(#p45415c0778)" style="fill: none; stroke: #b0b0b0; stroke-opacity: 0.3; stroke-width: 0.8; stroke-linecap: square"/>
     </g>
     <g id="line2d_4">
      <g>
       <use xlink:href="#m4df5121f93" x="175.339972" y="318.04" style="stroke: #000000; stroke-width: 0.8"/>
      </g>
     </g>
     <g id="text_2">
      <!-- 0 -->
      <g transform="translate(172.158722 332.638438) scale(0.1 -0.1)">
       <defs>
        <path id="DejaVuSans-30" d="M 2034 4250 
Q 1547 4250 1301 3770 
Q 1056 3291 1056 2328 
Q 1056 1369 1301 889 
Q 1547 409 2034 409 
Q 2525 409 2770 889 
Q 3016 1369 3016 2328 
Q 3016 3291 2770 3770 
Q 2525 4250 2034 4250 
z
M 2034 4750 
Q 2819 4750 3233 4129 
Q 3647 3509 3647 2328 
Q 3647 1150 3233 529 
Q 2819 -91 2034 -91 
Q 1250 -91 836 529 
Q 422 1150 422 2328 
Q 422 3509 836 4129 
Q 1250 4750 2034 4750 
z
" transform="scale(0.015625)"/>
       </defs>
       <use xlink:href="#DejaVuSans-30"/>
      </g>
     </g>
    </g>
    <g id="xtick_3">
     <g id="line2d_5">
      <path d="M 248.621932 318.04 
L 248.621932 10.8 
" clip-path="url(#p45415c0778)" style="fill: none; stroke: #b0b0b0; stroke-opacity: 0.3; stroke-width: 0.8; stroke-linecap: square"/>
     </g>
     <g id="line2d_6">
      <g>
       <use xlink:href="#m4df5121f93" x="248.621932" y="318.04" style="stroke: #000000; stroke-width: 0.8"/>
      </g>
     </g>
     <g id="text_3">
      <!-- 5 -->
      <g transform="translate(245.440682 332.638438) scale(0.1 -0.1)">
       <use xlink:href="#DejaVuSans-35"/>
      </g>
     </g>
    </g>
    <g id="xtick_4">
     <g id="line2d_7">
      <path d="M 321.903892 318.04 
L 321.903892 10.8 
" clip-path="url(#p45415c0778)" style="fill: none; stroke: #b0b0b0; stroke-opacity: 0.3; stroke-width: 0.8; stroke-linecap: square"/>
     </g>
     <g id="line2d_8">
      <g>
       <use xlink:href="#m4df5121f93" x="321.903892" y="318.04" style="stroke: #000000; stroke-width: 0.8"/>
      </g>
     </g>
     <g id="text_4">
      <!-- 10 -->
      <g transform="translate(315.541392 332.638438) scale(0.1 -0.1)">
       <defs>
        <path id="DejaVuSans-31" d="M 794 531 
L 1825 531 
L 1825 4091 
L 703 3866 
L 703 4441 
L 1819 4666 
L 2450 4666 
L 2450 531 
L 3481 531 
L 3481 0 
L 794 0 
L 794 531 
z
" transform="scale(0.015625)"/>
       </defs>
       <use xlink:href="#DejaVuSans-31"/>
       <use xlink:href="#DejaVuSans-30" transform="translate(63.623047 0)"/>
      </g>
     </g>
    </g>
    <g id="xtick_5">
     <g id="line2d_9">
      <path d="M 395.185852 318.04 
L 395.185852 10.8 
" clip-path="url(#p45415c0778)" style="fill: none; stroke: #b0b0b0; stroke-opacity: 0.3; stroke-width: 0.8; stroke-linecap: square"/>
     </g>
     <g id="line2d_10">
      <g>
       <use xlink:href="#m4df5121f93" x="395.185852" y="318.04" style="stroke: #000000; stroke-width: 0.8"/>
      </g>
     </g>
     <g id="text_5">
      <!-- 15 -->
      <g transform="translate(388.823352 332.638438) scale(0.1 -0.1)">
       <use xlink:href="#DejaVuSans-31"/>
       <use xlink:href="#DejaVuSans-35" transform="translate(63.623047 0)"/>
      </g>
     </g>
    </g>
    <g id="xtick_6">
     <g id="line2d_11">
      <path d="M 468.467812 318.04 
L 468.467812 10.8 
" clip-path="url(#p45415c0778)" style="fill: none; stroke: #b0b0b0; stroke-opacity: 0.3; stroke-width: 0.8; stroke-linecap: square"/>
     </g>
     <g id="line2d_12">
      <g>
       <use xlink:href="#m4df5121f93" x="468.467812" y="318.04" style="stroke: #000000; stroke-width: 0.8"/>
      </g>
     </g>
     <g id="text_6">
      <!-- 20 -->
      <g transform="translate(462.105312 332.638438) scale(0.1 -0.1)">
       <defs>
        <path id="DejaVuSans-32" d="M 1228 531 
L 3431 531 
L 3431 0 
L 469 0 
L 469 531 
Q 828 903 1448 1529 
Q 2069 2156 2228 2338 
Q 2531 2678 2651 2914 
Q 2772 3150 2772 3378 
Q 2772 3750 2511 3984 
Q 2250 4219 1831 4219 
Q 1534 4219 1204 4116 
Q 875 4013 500 3803 
L 500 4441 
Q 881 4594 1212 4672 
Q 1544 4750 1819 4750 
Q 2544 4750 2975 4387 
Q 3406 4025 3406 3419 
Q 3406 3131 3298 2873 
Q 3191 2616 2906 2266 
Q 2828 2175 2409 1742 
Q 1991 1309 1228 531 
z
" transform="scale(0.015625)"/>
       </defs>
       <use xlink:href="#DejaVuSans-32"/>
       <use xlink:href="#DejaVuSans-30" transform="translate(63.623047 0)"/>
      </g>
     </g>
    </g>
    <g id="xtick_7">
     <g id="line2d_13">
      <path d="M 541.749773 318.04 
L 541.749773 10.8 
" clip-path="url(#p45415c0778)" style="fill: none; stroke: #b0b0b0; stroke-opacity: 0.3; stroke-width: 0.8; stroke-linecap: square"/>
     </g>
     <g id="line2d_14">
      <g>
       <use xlink:href="#m4df5121f93" x="541.749773" y="318.04" style="stroke: #000000; stroke-width: 0.8"/>
      </g>
     </g>
     <g id="text_7">
      <!-- 25 -->
      <g transform="translate(535.387273 332.638438) scale(0.1 -0.1)">
       <use xlink:href="#DejaVuSans-32"/>
       <use xlink:href="#DejaVuSans-35" transform="translate(63.623047 0)"/>
      </g>
     </g>
    </g>
    <g id="text_8">
     <!-- $x_t$ -->
     <g transform="translate(302.7475 346.316563) scale(0.1 -0.1)">
      <defs>
       <path id="DejaVuSans-Oblique-78" d="M 3841 3500 
L 2234 1784 
L 3219 0 
L 2559 0 
L 1819 1388 
L 531 0 
L -166 0 
L 1556 1844 
L 641 3500 
L 1300 3500 
L 1972 2234 
L 3144 3500 
L 3841 3500 
z
" transform="scale(0.015625)"/>
       <path id="DejaVuSans-Oblique-74" d="M 2706 3500 
L 2619 3053 
L 1472 3053 
L 1100 1153 
Q 1081 1047 1072 975 
Q 1063 903 1063 863 
Q 1063 663 1183 572 
Q 1303 481 1569 481 
L 2150 481 
L 2053 0 
L 1503 0 
Q 991 0 739 200 
Q 488 400 488 806 
Q 488 878 497 964 
Q 506 1050 525 1153 
L 897 3053 
L 409 3053 
L 500 3500 
L 978 3500 
L 1172 4494 
L 1747 4494 
L 1556 3500 
L 2706 3500 
z
" transform="scale(0.015625)"/>
      </defs>
      <use xlink:href="#DejaVuSans-Oblique-78" transform="translate(0 0.3125)"/>
      <use xlink:href="#DejaVuSans-Oblique-74" transform="translate(59.179688 -16.09375) scale(0.7)"/>
     </g>
    </g>
   </g>
   <g id="matplotlib.axis_2">
    <g id="ytick_1">
     <g id="line2d_15">
      <path d="M 49.295 304.074545 
L 565.2 304.074545 
" clip-path="url(#p45415c0778)" style="fill: none; stroke: #b0b0b0; stroke-opacity: 0.3; stroke-width: 0.8; stroke-linecap: square"/>
     </g>
     <g id="line2d_16">
      <defs>
       <path id="m4932df3bdb" d="M 0 0 
L -3.5 0 
" style="stroke: #000000; stroke-width: 0.8"/>
      </defs>
      <g>
       <use xlink:href="#m4932df3bdb" x="49.295" y="304.074545" style="stroke: #000000; stroke-width: 0.8"/>
      </g>
     </g>
     <g id="text_9">
      <!-- 0.0 -->
      <g transform="translate(26.391875 307.873764) scale(0.1 -0.1)">
       <defs>
        <path id="DejaVuSans-2e" d="M 684 794 
L 1344 794 
L 1344 0 
L 684 0 
L 684 794 
z
" transform="scale(0.015625)"/>
       </defs>
       <use xlink:href="#DejaVuSans-30"/>
       <use xlink:href="#DejaVuSans-2e" transform="translate(63.623047 0)"/>
       <use xlink:href="#DejaVuSans-30" transform="translate(95.410156 0)"/>
      </g>
     </g>
    </g>
    <g id="ytick_2">
     <g id="line2d_17">
      <path d="M 49.295 248.212685 
L 565.2 248.212685 
" clip-path="url(#p45415c0778)" style="fill: none; stroke: #b0b0b0; stroke-opacity: 0.3; stroke-width: 0.8; stroke-linecap: square"/>
     </g>
     <g id="line2d_18">
      <g>
       <use xlink:href="#m4932df3bdb" x="49.295" y="248.212685" style="stroke: #000000; stroke-width: 0.8"/>
      </g>
     </g>
     <g id="text_10">
      <!-- 0.2 -->
      <g transform="translate(26.391875 252.011904) scale(0.1 -0.1)">
       <use xlink:href="#DejaVuSans-30"/>
       <use xlink:href="#DejaVuSans-2e" transform="translate(63.623047 0)"/>
       <use xlink:href="#DejaVuSans-32" transform="translate(95.410156 0)"/>
      </g>
     </g>
    </g>
    <g id="ytick_3">
     <g id="line2d_19">
      <path d="M 49.295 192.350825 
L 565.2 192.350825 
" clip-path="url(#p45415c0778)" style="fill: none; stroke: #b0b0b0; stroke-opacity: 0.3; stroke-width: 0.8; stroke-linecap: square"/>
     </g>
     <g id="line2d_20">
      <g>
       <use xlink:href="#m4932df3bdb" x="49.295" y="192.350825" style="stroke: #000000; stroke-width: 0.8"/>
      </g>
     </g>
     <g id="text_11">
      <!-- 0.4 -->
      <g transform="translate(26.391875 196.150044) scale(0.1 -0.1)">
       <defs>
        <path id="DejaVuSans-34" d="M 2419 4116 
L 825 1625 
L 2419 1625 
L 2419 4116 
z
M 2253 4666 
L 3047 4666 
L 3047 1625 
L 3713 1625 
L 3713 1100 
L 3047 1100 
L 3047 0 
L 2419 0 
L 2419 1100 
L 313 1100 
L 313 1709 
L 2253 4666 
z
" transform="scale(0.015625)"/>
       </defs>
       <use xlink:href="#DejaVuSans-30"/>
       <use xlink:href="#DejaVuSans-2e" transform="translate(63.623047 0)"/>
       <use xlink:href="#DejaVuSans-34" transform="translate(95.410156 0)"/>
      </g>
     </g>
    </g>
    <g id="ytick_4">
     <g id="line2d_21">
      <path d="M 49.295 136.488965 
L 565.2 136.488965 
" clip-path="url(#p45415c0778)" style="fill: none; stroke: #b0b0b0; stroke-opacity: 0.3; stroke-width: 0.8; stroke-linecap: square"/>
     </g>
     <g id="line2d_22">
      <g>
       <use xlink:href="#m4932df3bdb" x="49.295" y="136.488965" style="stroke: #000000; stroke-width: 0.8"/>
      </g>
     </g>
     <g id="text_12">
      <!-- 0.6 -->
      <g transform="translate(26.391875 140.288183) scale(0.1 -0.1)">
       <defs>
        <path id="DejaVuSans-36" d="M 2113 2584 
Q 1688 2584 1439 2293 
Q 1191 2003 1191 1497 
Q 1191 994 1439 701 
Q 1688 409 2113 409 
Q 2538 409 2786 701 
Q 3034 994 3034 1497 
Q 3034 2003 2786 2293 
Q 2538 2584 2113 2584 
z
M 3366 4563 
L 3366 3988 
Q 3128 4100 2886 4159 
Q 2644 4219 2406 4219 
Q 1781 4219 1451 3797 
Q 1122 3375 1075 2522 
Q 1259 2794 1537 2939 
Q 1816 3084 2150 3084 
Q 2853 3084 3261 2657 
Q 3669 2231 3669 1497 
Q 3669 778 3244 343 
Q 2819 -91 2113 -91 
Q 1303 -91 875 529 
Q 447 1150 447 2328 
Q 447 3434 972 4092 
Q 1497 4750 2381 4750 
Q 2619 4750 2861 4703 
Q 3103 4656 3366 4563 
z
" transform="scale(0.015625)"/>
       </defs>
       <use xlink:href="#DejaVuSans-30"/>
       <use xlink:href="#DejaVuSans-2e" transform="translate(63.623047 0)"/>
       <use xlink:href="#DejaVuSans-36" transform="translate(95.410156 0)"/>
      </g>
     </g>
    </g>
    <g id="ytick_5">
     <g id="line2d_23">
      <path d="M 49.295 80.627104 
L 565.2 80.627104 
" clip-path="url(#p45415c0778)" style="fill: none; stroke: #b0b0b0; stroke-opacity: 0.3; stroke-width: 0.8; stroke-linecap: square"/>
     </g>
     <g id="line2d_24">
      <g>
       <use xlink:href="#m4932df3bdb" x="49.295" y="80.627104" style="stroke: #000000; stroke-width: 0.8"/>
      </g>
     </g>
     <g id="text_13">
      <!-- 0.8 -->
      <g transform="translate(26.391875 84.426323) scale(0.1 -0.1)">
       <defs>
        <path id="DejaVuSans-38" d="M 2034 2216 
Q 1584 2216 1326 1975 
Q 1069 1734 1069 1313 
Q 1069 891 1326 650 
Q 1584 409 2034 409 
Q 2484 409 2743 651 
Q 3003 894 3003 1313 
Q 3003 1734 2745 1975 
Q 2488 2216 2034 2216 
z
M 1403 2484 
Q 997 2584 770 2862 
Q 544 3141 544 3541 
Q 544 4100 942 4425 
Q 1341 4750 2034 4750 
Q 2731 4750 3128 4425 
Q 3525 4100 3525 3541 
Q 3525 3141 3298 2862 
Q 3072 2584 2669 2484 
Q 3125 2378 3379 2068 
Q 3634 1759 3634 1313 
Q 3634 634 3220 271 
Q 2806 -91 2034 -91 
Q 1263 -91 848 271 
Q 434 634 434 1313 
Q 434 1759 690 2068 
Q 947 2378 1403 2484 
z
M 1172 3481 
Q 1172 3119 1398 2916 
Q 1625 2713 2034 2713 
Q 2441 2713 2670 2916 
Q 2900 3119 2900 3481 
Q 2900 3844 2670 4047 
Q 2441 4250 2034 4250 
Q 1625 4250 1398 4047 
Q 1172 3844 1172 3481 
z
" transform="scale(0.015625)"/>
       </defs>
       <use xlink:href="#DejaVuSans-30"/>
       <use xlink:href="#DejaVuSans-2e" transform="translate(63.623047 0)"/>
       <use xlink:href="#DejaVuSans-38" transform="translate(95.410156 0)"/>
      </g>
     </g>
    </g>
    <g id="ytick_6">
     <g id="line2d_25">
      <path d="M 49.295 24.765244 
L 565.2 24.765244 
" clip-path="url(#p45415c0778)" style="fill: none; stroke: #b0b0b0; stroke-opacity: 0.3; stroke-width: 0.8; stroke-linecap: square"/>
     </g>
     <g id="line2d_26">
      <g>
       <use xlink:href="#m4932df3bdb" x="49.295" y="24.765244" style="stroke: #000000; stroke-width: 0.8"/>
      </g>
     </g>
     <g id="text_14">
      <!-- 1.0 -->
      <g transform="translate(26.391875 28.564463) scale(0.1 -0.1)">
       <use xlink:href="#DejaVuSans-31"/>
       <use xlink:href="#DejaVuSans-2e" transform="translate(63.623047 0)"/>
       <use xlink:href="#DejaVuSans-30" transform="translate(95.410156 0)"/>
      </g>
     </g>
    </g>
    <g id="text_15">
     <!-- forget gate ($f_t$) -->
     <g transform="translate(20.291875 201.17) rotate(-90) scale(0.1 -0.1)">
      <defs>
       <path id="DejaVuSans-66" d="M 2375 4863 
L 2375 4384 
L 1825 4384 
Q 1516 4384 1395 4259 
Q 1275 4134 1275 3809 
L 1275 3500 
L 2222 3500 
L 2222 3053 
L 1275 3053 
L 1275 0 
L 697 0 
L 697 3053 
L 147 3053 
L 147 3500 
L 697 3500 
L 697 3744 
Q 697 4328 969 4595 
Q 1241 4863 1831 4863 
L 2375 4863 
z
" transform="scale(0.015625)"/>
       <path id="DejaVuSans-6f" d="M 1959 3097 
Q 1497 3097 1228 2736 
Q 959 2375 959 1747 
Q 959 1119 1226 758 
Q 1494 397 1959 397 
Q 2419 397 2687 759 
Q 2956 1122 2956 1747 
Q 2956 2369 2687 2733 
Q 2419 3097 1959 3097 
z
M 1959 3584 
Q 2709 3584 3137 3096 
Q 3566 2609 3566 1747 
Q 3566 888 3137 398 
Q 2709 -91 1959 -91 
Q 1206 -91 779 398 
Q 353 888 353 1747 
Q 353 2609 779 3096 
Q 1206 3584 1959 3584 
z
" transform="scale(0.015625)"/>
       <path id="DejaVuSans-72" d="M 2631 2963 
Q 2534 3019 2420 3045 
Q 2306 3072 2169 3072 
Q 1681 3072 1420 2755 
Q 1159 2438 1159 1844 
L 1159 0 
L 581 0 
L 581 3500 
L 1159 3500 
L 1159 2956 
Q 1341 3275 1631 3429 
Q 1922 3584 2338 3584 
Q 2397 3584 2469 3576 
Q 2541 3569 2628 3553 
L 2631 2963 
z
" transform="scale(0.015625)"/>
       <path id="DejaVuSans-67" d="M 2906 1791 
Q 2906 2416 2648 2759 
Q 2391 3103 1925 3103 
Q 1463 3103 1205 2759 
Q 947 2416 947 1791 
Q 947 1169 1205 825 
Q 1463 481 1925 481 
Q 2391 481 2648 825 
Q 2906 1169 2906 1791 
z
M 3481 434 
Q 3481 -459 3084 -895 
Q 2688 -1331 1869 -1331 
Q 1566 -1331 1297 -1286 
Q 1028 -1241 775 -1147 
L 775 -588 
Q 1028 -725 1275 -790 
Q 1522 -856 1778 -856 
Q 2344 -856 2625 -561 
Q 2906 -266 2906 331 
L 2906 616 
Q 2728 306 2450 153 
Q 2172 0 1784 0 
Q 1141 0 747 490 
Q 353 981 353 1791 
Q 353 2603 747 3093 
Q 1141 3584 1784 3584 
Q 2172 3584 2450 3431 
Q 2728 3278 2906 2969 
L 2906 3500 
L 3481 3500 
L 3481 434 
z
" transform="scale(0.015625)"/>
       <path id="DejaVuSans-65" d="M 3597 1894 
L 3597 1613 
L 953 1613 
Q 991 1019 1311 708 
Q 1631 397 2203 397 
Q 2534 397 2845 478 
Q 3156 559 3463 722 
L 3463 178 
Q 3153 47 2828 -22 
Q 2503 -91 2169 -91 
Q 1331 -91 842 396 
Q 353 884 353 1716 
Q 353 2575 817 3079 
Q 1281 3584 2069 3584 
Q 2775 3584 3186 3129 
Q 3597 2675 3597 1894 
z
M 3022 2063 
Q 3016 2534 2758 2815 
Q 2500 3097 2075 3097 
Q 1594 3097 1305 2825 
Q 1016 2553 972 2059 
L 3022 2063 
z
" transform="scale(0.015625)"/>
       <path id="DejaVuSans-74" d="M 1172 4494 
L 1172 3500 
L 2356 3500 
L 2356 3053 
L 1172 3053 
L 1172 1153 
Q 1172 725 1289 603 
Q 1406 481 1766 481 
L 2356 481 
L 2356 0 
L 1766 0 
Q 1100 0 847 248 
Q 594 497 594 1153 
L 594 3053 
L 172 3053 
L 172 3500 
L 594 3500 
L 594 4494 
L 1172 4494 
z
" transform="scale(0.015625)"/>
       <path id="DejaVuSans-20" transform="scale(0.015625)"/>
       <path id="DejaVuSans-61" d="M 2194 1759 
Q 1497 1759 1228 1600 
Q 959 1441 959 1056 
Q 959 750 1161 570 
Q 1363 391 1709 391 
Q 2188 391 2477 730 
Q 2766 1069 2766 1631 
L 2766 1759 
L 2194 1759 
z
M 3341 1997 
L 3341 0 
L 2766 0 
L 2766 531 
Q 2569 213 2275 61 
Q 1981 -91 1556 -91 
Q 1019 -91 701 211 
Q 384 513 384 1019 
Q 384 1609 779 1909 
Q 1175 2209 1959 2209 
L 2766 2209 
L 2766 2266 
Q 2766 2663 2505 2880 
Q 2244 3097 1772 3097 
Q 1472 3097 1187 3025 
Q 903 2953 641 2809 
L 641 3341 
Q 956 3463 1253 3523 
Q 1550 3584 1831 3584 
Q 2591 3584 2966 3190 
Q 3341 2797 3341 1997 
z
" transform="scale(0.015625)"/>
       <path id="DejaVuSans-28" d="M 1984 4856 
Q 1566 4138 1362 3434 
Q 1159 2731 1159 2009 
Q 1159 1288 1364 580 
Q 1569 -128 1984 -844 
L 1484 -844 
Q 1016 -109 783 600 
Q 550 1309 550 2009 
Q 550 2706 781 3412 
Q 1013 4119 1484 4856 
L 1984 4856 
z
" transform="scale(0.015625)"/>
       <path id="DejaVuSans-Oblique-66" d="M 3059 4863 
L 2969 4384 
L 2419 4384 
Q 2106 4384 1964 4261 
Q 1822 4138 1753 3809 
L 1691 3500 
L 2638 3500 
L 2553 3053 
L 1606 3053 
L 1013 0 
L 434 0 
L 1031 3053 
L 481 3053 
L 563 3500 
L 1113 3500 
L 1159 3744 
Q 1278 4363 1576 4613 
Q 1875 4863 2516 4863 
L 3059 4863 
z
" transform="scale(0.015625)"/>
       <path id="DejaVuSans-29" d="M 513 4856 
L 1013 4856 
Q 1481 4119 1714 3412 
Q 1947 2706 1947 2009 
Q 1947 1309 1714 600 
Q 1481 -109 1013 -844 
L 513 -844 
Q 928 -128 1133 580 
Q 1338 1288 1338 2009 
Q 1338 2731 1133 3434 
Q 928 4138 513 4856 
z
" transform="scale(0.015625)"/>
      </defs>
      <use xlink:href="#DejaVuSans-66" transform="translate(0 0.015625)"/>
      <use xlink:href="#DejaVuSans-6f" transform="translate(35.205078 0.015625)"/>
      <use xlink:href="#DejaVuSans-72" transform="translate(96.386719 0.015625)"/>
      <use xlink:href="#DejaVuSans-67" transform="translate(137.5 0.015625)"/>
      <use xlink:href="#DejaVuSans-65" transform="translate(200.976562 0.015625)"/>
      <use xlink:href="#DejaVuSans-74" transform="translate(262.5 0.015625)"/>
      <use xlink:href="#DejaVuSans-20" transform="translate(301.708984 0.015625)"/>
      <use xlink:href="#DejaVuSans-67" transform="translate(333.496094 0.015625)"/>
      <use xlink:href="#DejaVuSans-61" transform="translate(396.972656 0.015625)"/>
      <use xlink:href="#DejaVuSans-74" transform="translate(458.251953 0.015625)"/>
      <use xlink:href="#DejaVuSans-65" transform="translate(497.460938 0.015625)"/>
      <use xlink:href="#DejaVuSans-20" transform="translate(558.984375 0.015625)"/>
      <use xlink:href="#DejaVuSans-28" transform="translate(590.771484 0.015625)"/>
      <use xlink:href="#DejaVuSans-Oblique-66" transform="translate(629.785156 0.015625)"/>
      <use xlink:href="#DejaVuSans-Oblique-74" transform="translate(664.990234 -16.390625) scale(0.7)"/>
      <use xlink:href="#DejaVuSans-29" transform="translate(695.170898 0.015625)"/>
     </g>
    </g>
   </g>
   <g id="line2d_27">
    <path d="M 72.745227 24.771453 
L 117.814733 24.899636 
L 133.307376 25.151807 
L 143.16633 25.522114 
L 150.20844 25.987797 
L 155.842129 26.55867 
L 160.536869 27.232315 
L 164.762135 28.050992 
L 168.517927 29.002181 
L 171.804245 30.055317 
L 174.621089 31.161237 
L 177.437934 32.494532 
L 180.254778 34.100183 
L 182.602148 35.684289 
L 184.949518 37.529737 
L 187.296888 39.676881 
L 189.644258 42.171286 
L 191.991628 45.064019 
L 193.869524 47.702919 
L 195.74742 50.664542 
L 197.625316 53.982662 
L 199.503213 57.692981 
L 201.381109 61.832757 
L 203.259005 66.440245 
L 205.136901 71.553924 
L 207.014797 77.211464 
L 209.362167 85.101989 
L 211.709537 93.958037 
L 214.056907 103.824469 
L 216.404277 114.722927 
L 218.751647 126.643194 
L 221.568491 142.220737 
L 224.85481 161.904929 
L 229.080076 188.797747 
L 235.183238 227.614471 
L 238.000082 244.045122 
L 240.347452 256.428742 
L 242.225348 265.290023 
L 244.103244 273.123996 
L 245.98114 279.887245 
L 247.389563 284.256863 
L 248.797985 288.04196 
L 250.206407 291.271951 
L 251.614829 293.986288 
L 253.023251 296.231916 
L 254.431673 298.060546 
L 255.840095 299.525958 
L 257.248517 300.681545 
L 258.656939 301.578251 
L 260.534835 302.451535 
L 262.412731 303.044345 
L 264.760101 303.509755 
L 267.576945 303.812397 
L 271.802212 303.998629 
L 279.78327 304.068834 
L 344.101211 304.074545 
L 541.749773 304.074545 
L 541.749773 304.074545 
" clip-path="url(#p45415c0778)" style="fill: none; stroke: #1f77b4; stroke-width: 1.5; stroke-linecap: square"/>
   </g>
   <g id="line2d_28">
    <path d="M 72.745227 24.808906 
L 96.688402 24.988825 
L 109.364201 25.295868 
L 117.814733 25.708974 
L 124.387369 26.241507 
L 129.551584 26.862595 
L 134.246324 27.650119 
L 138.002116 28.486739 
L 141.288434 29.413808 
L 144.574752 30.569218 
L 147.391596 31.782516 
L 150.20844 33.245232 
L 152.555811 34.690015 
L 154.903181 36.375285 
L 157.250551 38.338962 
L 159.597921 40.624165 
L 161.945291 43.279618 
L 163.823187 45.707086 
L 165.701083 48.437176 
L 167.578979 51.503176 
L 169.456875 54.940769 
L 171.334771 58.78782 
L 173.212667 63.084014 
L 175.090564 67.870304 
L 176.96846 73.188132 
L 178.846356 79.078358 
L 180.724252 85.579873 
L 183.071622 94.619396 
L 185.418992 104.723413 
L 187.766362 115.924052 
L 190.113732 128.221001 
L 192.930576 144.359424 
L 195.74742 161.830419 
L 199.503213 186.629225 
L 206.545323 233.605582 
L 209.362167 250.627142 
L 211.709537 263.264273 
L 213.587433 272.132067 
L 215.465329 279.782276 
L 216.873751 284.693955 
L 218.282173 288.903017 
L 219.690595 292.435647 
L 221.099017 295.33557 
L 222.507439 297.660764 
L 223.915862 299.479293 
L 225.324284 300.864689 
L 226.732706 301.89136 
L 228.141128 302.630478 
L 229.54955 303.146732 
L 231.427446 303.583845 
L 233.774816 303.870069 
L 237.061134 304.023115 
L 244.572718 304.073465 
L 447.385495 304.074545 
L 541.749773 304.074545 
L 541.749773 304.074545 
" clip-path="url(#p45415c0778)" style="fill: none; stroke: #ff7f0e; stroke-width: 1.5; stroke-linecap: square"/>
   </g>
   <g id="line2d_29">
    <path d="M 72.745227 24.787127 
L 103.261039 24.94072 
L 116.875785 25.209282 
L 126.265265 25.607241 
L 133.307376 26.125253 
L 138.941064 26.760228 
L 143.635804 27.509445 
L 147.86107 28.419864 
L 151.616863 29.477501 
L 154.903181 30.648316 
L 157.720025 31.877608 
L 160.536869 33.359357 
L 162.884239 34.822671 
L 165.231609 36.52922 
L 167.578979 38.517232 
L 169.926349 40.83013 
L 172.273719 43.516923 
L 174.151615 45.972244 
L 176.029512 48.732748 
L 177.907408 51.831751 
L 179.785304 55.304892 
L 181.6632 59.189893 
L 183.541096 63.526173 
L 185.418992 68.354256 
L 187.296888 73.714959 
L 189.174784 79.64828 
L 191.05268 86.191964 
L 193.40005 95.280642 
L 195.74742 105.426452 
L 198.09479 116.657059 
L 200.442161 128.966936 
L 203.259005 145.090365 
L 206.075849 162.504084 
L 209.831641 187.148883 
L 216.873751 233.618274 
L 219.690595 250.40601 
L 222.037965 262.868829 
L 223.915862 271.625227 
L 225.793758 279.198284 
L 227.20218 284.077845 
L 228.610602 288.277663 
L 230.019024 291.823011 
L 231.427446 294.755243 
L 232.835868 297.128717 
L 234.24429 299.007008 
L 235.652712 300.458761 
L 237.061134 301.553608 
L 238.469556 302.358521 
L 239.877978 302.934911 
L 241.755874 303.439805 
L 244.103244 303.788427 
L 247.389563 303.991768 
L 253.492725 304.068936 
L 301.379075 304.074545 
L 541.749773 304.074545 
L 541.749773 304.074545 
" clip-path="url(#p45415c0778)" style="fill: none; stroke: #2ca02c; stroke-width: 1.5; stroke-linecap: square"/>
   </g>
   <g id="line2d_30">
    <path d="M 72.745227 24.774589 
L 112.650519 24.907461 
L 127.673688 25.161429 
L 137.532642 25.540972 
L 144.574752 26.018293 
L 150.20844 26.603472 
L 154.903181 27.294052 
L 159.128447 28.133388 
L 162.884239 29.108686 
L 166.170557 30.188649 
L 168.987401 31.322892 
L 171.804245 32.690536 
L 174.621089 34.337848 
L 176.96846 35.96337 
L 179.31583 37.857458 
L 181.6632 40.061719 
L 184.01057 42.623182 
L 185.888466 44.964801 
L 187.766362 47.598429 
L 189.644258 50.556227 
L 191.522154 53.872688 
L 193.40005 57.584439 
L 195.277946 61.729905 
L 197.155842 66.348797 
L 199.033739 71.481378 
L 200.911635 77.167466 
L 202.789531 83.44513 
L 205.136901 92.176439 
L 207.484271 101.940924 
L 209.831641 112.77267 
L 212.179011 124.675774 
L 214.995855 140.319698 
L 217.812699 157.292616 
L 221.568491 181.477318 
L 229.54955 233.675869 
L 232.366394 250.237198 
L 234.713764 262.530114 
L 236.59166 271.176386 
L 238.469556 278.670796 
L 239.877978 283.515051 
L 241.2864 287.700648 
L 242.694822 291.252128 
L 244.103244 294.208821 
L 245.511666 296.621974 
L 246.920088 298.551274 
L 248.328511 300.061099 
L 249.736933 301.216865 
L 251.145355 302.081761 
L 252.553777 302.714144 
L 254.431673 303.283906 
L 256.779043 303.694769 
L 259.595887 303.929261 
L 264.290627 304.05041 
L 279.313796 304.074527 
L 541.749773 304.074545 
L 541.749773 304.074545 
" clip-path="url(#p45415c0778)" style="fill: none; stroke: #d62728; stroke-width: 1.5; stroke-linecap: square"/>
   </g>
   <g id="line2d_31">
    <path d="M 72.745227 24.775975 
L 111.242097 24.913576 
L 126.265265 25.178394 
L 135.654746 25.548549 
L 142.696856 26.030198 
L 148.330544 26.620333 
L 153.025285 27.31627 
L 157.250551 28.161401 
L 161.006343 29.142447 
L 164.292661 30.227543 
L 167.109505 31.365784 
L 169.926349 32.73636 
L 172.743193 34.38447 
L 175.090564 36.007864 
L 177.437934 37.895833 
L 179.785304 40.088067 
L 182.132674 42.628966 
L 184.480044 45.567733 
L 186.35794 48.241287 
L 188.235836 51.233516 
L 190.113732 54.575587 
L 191.991628 58.299854 
L 193.869524 62.439346 
L 195.74742 67.027074 
L 197.625316 72.095133 
L 199.972687 79.151155 
L 202.320057 87.055162 
L 204.667427 95.84451 
L 207.014797 105.537345 
L 209.362167 116.126271 
L 212.179011 129.957941 
L 214.995855 144.881567 
L 218.751647 166.074774 
L 229.080076 225.29438 
L 231.89692 239.70247 
L 234.24429 250.610336 
L 236.59166 260.373616 
L 238.469556 267.309022 
L 240.347452 273.454884 
L 242.225348 278.825233 
L 244.103244 283.453995 
L 245.98114 287.390819 
L 247.859037 290.696489 
L 249.736933 293.438377 
L 251.614829 295.686323 
L 253.492725 297.509193 
L 255.370621 298.972239 
L 257.248517 300.135288 
L 259.126413 301.05168 
L 261.473783 301.920371 
L 263.821153 302.55139 
L 266.637997 303.078815 
L 269.924315 303.474663 
L 274.619056 303.788483 
L 281.191692 303.975592 
L 293.86749 304.062407 
L 356.777009 304.074545 
L 541.749773 304.074545 
L 541.749773 304.074545 
" clip-path="url(#p45415c0778)" style="fill: none; stroke: #9467bd; stroke-width: 1.5; stroke-linecap: square"/>
   </g>
   <g id="line2d_32">
    <path d="M 72.745227 24.766454 
L 139.410538 24.879516 
L 155.842129 25.115655 
L 166.170557 25.473577 
L 173.682141 25.946386 
L 179.785304 26.553728 
L 184.480044 27.224833 
L 188.70531 28.039923 
L 192.461102 28.986254 
L 195.74742 30.03315 
L 198.564264 31.131543 
L 201.381109 32.454443 
L 204.197953 34.045663 
L 206.545323 35.613494 
L 208.892693 37.437437 
L 211.240063 39.556133 
L 213.587433 42.012884 
L 215.934803 44.855792 
L 217.812699 47.443513 
L 219.690595 50.341243 
L 221.568491 53.579736 
L 223.446388 57.191051 
L 225.324284 61.208084 
L 227.20218 65.663932 
L 229.080076 70.591057 
L 231.427446 77.459302 
L 233.774816 85.164859 
L 236.122186 93.748644 
L 238.469556 103.233749 
L 240.816926 113.619203 
L 243.63377 127.223457 
L 246.450614 141.952851 
L 250.206407 162.967704 
L 261.473783 227.417127 
L 264.290627 241.636304 
L 266.637997 252.356584 
L 268.985367 261.915531 
L 270.863263 268.682522 
L 272.74116 274.661169 
L 274.619056 279.870052 
L 276.496952 284.346813 
L 278.374848 288.143856 
L 280.252744 291.323732 
L 282.13064 293.954653 
L 284.008536 296.106507 
L 285.886432 297.847572 
L 287.764328 299.242062 
L 289.642224 300.348481 
L 291.52012 301.218707 
L 293.86749 302.042153 
L 296.214861 302.639223 
L 299.031705 303.137408 
L 302.787497 303.550557 
L 307.482237 303.825437 
L 314.524347 303.994991 
L 329.078042 304.067457 
L 432.362326 304.074545 
L 541.749773 304.074545 
L 541.749773 304.074545 
" clip-path="url(#p45415c0778)" style="fill: none; stroke: #8c564b; stroke-width: 1.5; stroke-linecap: square"/>
   </g>
   <g id="line2d_33">
    <path d="M 72.745227 24.766154 
L 143.635804 24.879992 
L 160.067395 25.117016 
L 170.395823 25.476015 
L 177.907408 25.949768 
L 184.01057 26.557521 
L 188.70531 27.228036 
L 192.930576 28.040943 
L 196.686368 28.982731 
L 199.972687 30.022101 
L 203.259005 31.311294 
L 206.075849 32.657764 
L 208.892693 34.271179 
L 211.240063 35.854367 
L 213.587433 37.68813 
L 215.934803 39.807497 
L 218.282173 42.250784 
L 220.629543 45.059333 
L 222.976914 48.277002 
L 225.324284 51.94935 
L 227.671654 56.122436 
L 230.019024 60.841195 
L 232.366394 66.147339 
L 234.713764 72.076798 
L 237.061134 78.656762 
L 239.408504 85.902464 
L 241.755874 93.813926 
L 244.572718 104.159498 
L 247.389563 115.365959 
L 250.675881 129.37156 
L 254.901147 148.444942 
L 265.699049 197.87532 
L 268.985367 211.747412 
L 271.802212 222.829913 
L 274.619056 233.058077 
L 277.4359 242.373741 
L 279.78327 249.424866 
L 282.13064 255.834927 
L 284.47801 261.623213 
L 286.82538 266.818731 
L 289.17275 271.457345 
L 291.52012 275.579236 
L 293.86749 279.226778 
L 296.214861 282.442831 
L 298.562231 285.269445 
L 300.909601 287.746922 
L 303.256971 289.91319 
L 305.604341 291.803416 
L 308.421185 293.752477 
L 311.238029 295.400305 
L 314.054873 296.790911 
L 317.341191 298.139075 
L 320.62751 299.241239 
L 324.383302 300.255286 
L 328.608568 301.146197 
L 333.303308 301.896031 
L 338.936996 302.547979 
L 345.509633 303.06702 
L 353.490691 303.466588 
L 364.288593 303.767778 
L 380.25071 303.963008 
L 409.358099 304.056928 
L 526.25713 304.074535 
L 541.749773 304.074541 
L 541.749773 304.074541 
" clip-path="url(#p45415c0778)" style="fill: none; stroke: #e377c2; stroke-width: 1.5; stroke-linecap: square"/>
   </g>
   <g id="line2d_34">
    <path d="M 72.745227 24.78437 
L 104.669461 24.934085 
L 118.753681 25.206398 
L 128.143162 25.601785 
L 135.185272 26.116466 
L 140.81896 26.747384 
L 145.5137 27.491852 
L 149.738966 28.396553 
L 153.494759 29.447623 
L 156.781077 30.611264 
L 159.597921 31.833129 
L 162.414765 33.306072 
L 164.762135 34.760846 
L 167.109505 36.457631 
L 169.456875 38.434537 
L 171.804245 40.734876 
L 174.151615 43.40757 
L 176.029512 45.850471 
L 177.907408 48.597539 
L 179.785304 51.682127 
L 181.6632 55.139957 
L 183.541096 59.008891 
L 185.418992 63.328564 
L 187.296888 68.13981 
L 189.174784 73.483867 
L 191.05268 79.40129 
L 192.930576 85.930532 
L 195.277946 95.004558 
L 197.625316 105.141479 
L 199.972687 116.371478 
L 202.320057 128.691862 
L 205.136901 144.846715 
L 207.953745 162.316649 
L 211.709537 187.079166 
L 218.751647 233.871462 
L 221.568491 250.79049 
L 223.915862 263.341994 
L 225.793758 272.14733 
L 227.671654 279.744906 
L 229.080076 284.62549 
L 230.488498 288.811564 
L 231.89692 292.329546 
L 233.305342 295.222817 
L 234.713764 297.548484 
L 236.122186 299.373312 
L 237.530608 300.76927 
L 238.93903 301.809119 
L 240.347452 302.562482 
L 241.755874 303.092742 
L 243.63377 303.546529 
L 245.98114 303.848764 
L 249.267459 304.015029 
L 256.309569 304.072636 
L 378.372814 304.074545 
L 541.749773 304.074545 
L 541.749773 304.074545 
" clip-path="url(#p45415c0778)" style="fill: none; stroke: #7f7f7f; stroke-width: 1.5; stroke-linecap: square"/>
   </g>
   <g id="line2d_35">
    <path d="M 72.745227 24.785335 
L 104.199987 24.937006 
L 118.284207 25.214021 
L 127.673688 25.616208 
L 134.715798 26.139699 
L 140.349486 26.781348 
L 145.044226 27.538384 
L 149.269492 28.45822 
L 153.025285 29.526682 
L 156.311603 30.709337 
L 159.128447 31.950897 
L 161.945291 33.447212 
L 164.292661 34.924671 
L 166.640031 36.647416 
L 168.987401 38.653887 
L 171.334771 40.987708 
L 173.682141 43.698056 
L 175.560038 46.174197 
L 177.437934 48.957303 
L 179.31583 52.080659 
L 181.193726 55.579809 
L 183.071622 59.492291 
L 184.949518 63.857225 
L 186.827414 68.714701 
L 188.70531 74.104925 
L 190.583206 80.067088 
L 192.461102 86.637893 
L 194.808472 95.756047 
L 197.155842 105.92346 
L 199.503213 117.164024 
L 201.850583 129.467926 
L 204.667427 145.556847 
L 207.953745 165.890925 
L 212.648485 196.765177 
L 217.812699 230.479743 
L 220.629543 247.34892 
L 222.976914 259.977644 
L 224.85481 268.929328 
L 226.732706 276.74664 
L 228.141128 281.835269 
L 229.54955 286.259931 
L 230.957972 290.039216 
L 232.366394 293.207381 
L 233.774816 295.811758 
L 235.183238 297.909455 
L 236.59166 299.563663 
L 238.000082 300.839917 
L 239.408504 301.802644 
L 240.816926 302.512294 
L 242.694822 303.1577 
L 244.572718 303.557066 
L 246.920088 303.835031 
L 250.675881 304.013085 
L 258.187465 304.071967 
L 364.288593 304.074545 
L 541.749773 304.074545 
L 541.749773 304.074545 
" clip-path="url(#p45415c0778)" style="fill: none; stroke: #bcbd22; stroke-width: 1.5; stroke-linecap: square"/>
   </g>
   <g id="line2d_36">
    <path d="M 72.745227 24.874534 
L 89.646292 25.111333 
L 99.97472 25.464986 
L 107.486305 25.932383 
L 113.589467 26.533151 
L 118.284207 27.197487 
L 122.509473 28.005056 
L 126.265265 28.943619 
L 129.551584 29.983129 
L 132.368428 31.075139 
L 135.185272 32.392207 
L 138.002116 33.979107 
L 140.349486 35.545561 
L 142.696856 37.371505 
L 145.044226 39.497396 
L 147.391596 41.969056 
L 149.738966 44.838033 
L 151.616863 47.457722 
L 153.494759 50.400582 
L 155.372655 53.701198 
L 157.250551 57.396353 
L 159.128447 61.524709 
L 161.006343 66.126313 
L 162.884239 71.241884 
L 164.762135 76.911846 
L 166.640031 83.175036 
L 168.987401 91.892044 
L 171.334771 101.6486 
L 173.682141 112.48154 
L 176.029512 124.398081 
L 178.376882 137.365593 
L 181.193726 154.192741 
L 184.480044 175.228024 
L 194.808472 242.632024 
L 197.155842 255.913973 
L 199.033739 265.440812 
L 200.911635 273.849221 
L 202.789531 281.063113 
L 204.197953 285.676689 
L 205.606375 289.621385 
L 207.014797 292.928736 
L 208.423219 295.645091 
L 209.831641 297.828264 
L 211.240063 299.543619 
L 212.648485 300.859967 
L 214.056907 301.845674 
L 215.465329 302.565329 
L 217.343225 303.210624 
L 219.221121 303.601579 
L 221.568491 303.865661 
L 225.324284 304.025945 
L 233.774816 304.073606 
L 491.516053 304.074545 
L 541.749773 304.074545 
L 541.749773 304.074545 
" clip-path="url(#p45415c0778)" style="fill: none; stroke: #17becf; stroke-width: 1.5; stroke-linecap: square"/>
   </g>
   <g id="line2d_37">
    <path d="M 72.745227 24.765455 
L 164.762135 24.877406 
L 181.193726 25.108814 
L 191.522154 25.458614 
L 199.033739 25.91895 
L 205.136901 26.507384 
L 210.301115 27.230241 
L 214.526381 28.034579 
L 218.282173 28.960812 
L 221.568491 29.976121 
L 224.85481 31.225608 
L 227.671654 32.5192 
L 230.488498 34.054276 
L 233.305342 35.868614 
L 235.652712 37.623237 
L 238.000082 39.624835 
L 240.347452 41.89864 
L 242.694822 44.469631 
L 245.042192 47.361624 
L 247.389563 50.596193 
L 249.736933 54.191471 
L 252.084303 58.160885 
L 254.431673 62.511923 
L 257.248517 68.237028 
L 260.065361 74.49776 
L 262.882205 81.262804 
L 266.168523 89.72785 
L 269.924315 100.031072 
L 274.619056 113.582968 
L 291.52012 163.017204 
L 295.745387 174.436077 
L 299.970653 185.217453 
L 303.726445 194.222657 
L 307.482237 202.6675 
L 311.238029 210.55255 
L 314.993821 217.889616 
L 318.749613 224.698268 
L 322.505406 231.003096 
L 326.261198 236.83164 
L 330.01699 242.212855 
L 333.772782 247.176025 
L 337.528574 251.750004 
L 341.284366 255.962721 
L 345.040159 259.840857 
L 348.795951 263.409662 
L 352.551743 266.692865 
L 356.777009 270.072648 
L 361.002275 273.148277 
L 365.227541 275.946671 
L 369.452808 278.492512 
L 374.147548 281.052419 
L 378.842288 283.356526 
L 384.006502 285.625876 
L 389.170716 287.64683 
L 394.804405 289.600003 
L 400.438093 291.321032 
L 406.541255 292.955395 
L 413.113891 294.482078 
L 420.156002 295.886006 
L 427.667586 297.157827 
L 436.118118 298.354099 
L 445.038125 299.393125 
L 455.366553 300.362785 
L 466.63393 301.193045 
L 479.779202 301.930023 
L 494.802371 302.544461 
L 513.111858 303.060568 
L 535.64661 303.463455 
L 541.749773 303.541772 
L 541.749773 303.541772 
" clip-path="url(#p45415c0778)" style="fill: none; stroke: #1f77b4; stroke-width: 1.5; stroke-linecap: square"/>
   </g>
   <g id="line2d_38">
    <path d="M 72.745227 24.80767 
L 97.157876 24.989564 
L 109.833675 25.297621 
L 118.284207 25.712091 
L 124.856843 26.246379 
L 130.021058 26.869511 
L 134.715798 27.659622 
L 138.47159 28.498986 
L 141.757908 29.429089 
L 145.044226 30.58827 
L 147.86107 31.805515 
L 150.677915 33.272975 
L 153.025285 34.722426 
L 155.372655 36.413118 
L 157.720025 38.383083 
L 160.067395 40.675561 
L 162.414765 43.339411 
L 164.292661 45.774502 
L 166.170557 48.5131 
L 168.048453 51.588574 
L 169.926349 55.036687 
L 171.804245 58.895378 
L 173.682141 63.204401 
L 175.560038 68.004767 
L 177.437934 73.337958 
L 179.31583 79.244852 
L 181.193726 85.764321 
L 183.541096 94.827995 
L 185.888466 104.957823 
L 188.235836 116.185507 
L 190.583206 128.510084 
L 193.40005 144.681128 
L 196.216894 162.182143 
L 199.972687 187.012211 
L 207.014797 233.996182 
L 209.831641 250.995096 
L 212.179011 263.601507 
L 214.056907 272.437904 
L 215.934803 280.052029 
L 217.343225 284.934604 
L 218.751647 289.113752 
L 220.160069 292.616547 
L 221.568491 295.487587 
L 222.976914 297.785643 
L 224.385336 299.579433 
L 225.793758 300.942965 
L 227.20218 301.950915 
L 228.610602 302.674522 
L 230.019024 303.178351 
L 231.89692 303.603207 
L 234.24429 303.879732 
L 238.000082 304.035555 
L 246.920088 304.074234 
L 541.749773 304.074545 
L 541.749773 304.074545 
" clip-path="url(#p45415c0778)" style="fill: none; stroke: #ff7f0e; stroke-width: 1.5; stroke-linecap: square"/>
   </g>
   <g id="line2d_39">
    <path d="M 72.745227 24.817557 
L 95.27998 25.008574 
L 107.486305 25.32452 
L 115.936837 25.759883 
L 122.509473 26.321042 
L 127.673688 26.975424 
L 131.898954 27.709741 
L 135.654746 28.563471 
L 138.941064 29.509404 
L 142.227382 30.688182 
L 145.044226 31.92585 
L 147.86107 33.417717 
L 150.20844 34.891044 
L 152.555811 36.609297 
L 154.903181 38.61098 
L 157.250551 40.939831 
L 159.597921 43.645217 
L 161.475817 46.117587 
L 163.353713 48.89732 
L 165.231609 52.017985 
L 167.109505 55.515493 
L 168.987401 59.427857 
L 170.865297 63.794798 
L 172.743193 68.657158 
L 174.621089 74.056064 
L 176.498986 80.031818 
L 178.376882 86.622435 
L 180.724252 95.77643 
L 183.071622 105.995141 
L 185.418992 117.306111 
L 187.766362 129.703172 
L 190.583206 145.93825 
L 193.40005 163.467223 
L 197.625316 191.423267 
L 203.728479 231.945026 
L 206.545323 249.014105 
L 208.892693 261.744648 
L 210.770589 270.721509 
L 212.648485 278.507528 
L 214.056907 283.53502 
L 215.465329 287.868164 
L 216.873751 291.529281 
L 218.282173 294.557996 
L 219.690595 297.008248 
L 221.099017 298.944424 
L 222.507439 300.437018 
L 223.915862 301.558249 
L 225.324284 302.378065 
L 226.732706 302.960898 
L 228.610602 303.465958 
L 230.957972 303.808387 
L 234.24429 304.00177 
L 240.347452 304.070334 
L 299.501179 304.074545 
L 541.749773 304.074545 
L 541.749773 304.074545 
" clip-path="url(#p45415c0778)" style="fill: none; stroke: #2ca02c; stroke-width: 1.5; stroke-linecap: square"/>
   </g>
   <g id="line2d_40">
    <path d="M 72.745227 24.766316 
L 141.288434 24.880399 
L 157.720025 25.118378 
L 168.048453 25.479124 
L 175.560038 25.955734 
L 181.6632 26.568071 
L 186.35794 27.244845 
L 190.583206 28.067029 
L 194.338998 29.021885 
L 197.625316 30.078573 
L 200.442161 31.187648 
L 203.259005 32.523964 
L 206.075849 34.13212 
L 208.423219 35.717488 
L 210.770589 37.562894 
L 213.117959 39.707948 
L 215.465329 42.197178 
L 217.812699 45.080225 
L 219.690595 47.706856 
L 221.568491 50.650828 
L 223.446388 53.944321 
L 225.324284 57.621071 
L 227.20218 61.715934 
L 229.080076 66.264264 
L 230.957972 71.301094 
L 232.835868 76.860063 
L 235.183238 84.589731 
L 237.530608 93.233512 
L 239.877978 102.825107 
L 242.225348 113.374797 
L 244.572718 124.862061 
L 247.389563 139.798747 
L 250.675881 158.567095 
L 255.370621 186.945008 
L 261.004309 220.841479 
L 263.821153 236.555633 
L 266.168523 248.563851 
L 268.515893 259.361665 
L 270.393789 267.034584 
L 272.271686 273.810878 
L 274.149582 279.689106 
L 276.027478 284.697318 
L 277.4359 287.913567 
L 278.844322 290.699319 
L 280.252744 293.088467 
L 281.661166 295.117668 
L 283.069588 296.82485 
L 284.47801 298.247878 
L 285.886432 299.423443 
L 287.764328 300.665419 
L 289.642224 301.603278 
L 291.52012 302.301699 
L 293.86749 302.919908 
L 296.684335 303.396797 
L 299.970653 303.718526 
L 304.665393 303.93751 
L 312.646451 304.049389 
L 338.467522 304.074469 
L 541.749773 304.074545 
L 541.749773 304.074545 
" clip-path="url(#p45415c0778)" style="fill: none; stroke: #d62728; stroke-width: 1.5; stroke-linecap: square"/>
   </g>
   <g id="line2d_41">
    <path d="M 72.745227 24.777503 
L 109.833675 24.919162 
L 124.387369 25.180454 
L 133.77685 25.552481 
L 140.81896 26.036602 
L 146.452648 26.629825 
L 151.147389 27.329482 
L 155.372655 28.179249 
L 159.128447 29.165836 
L 162.414765 30.257263 
L 165.231609 31.402371 
L 168.048453 32.781523 
L 170.865297 34.440389 
L 173.212667 36.074849 
L 175.560038 37.976276 
L 177.907408 40.184926 
L 180.254778 42.745908 
L 182.602148 45.709309 
L 184.480044 48.406577 
L 186.35794 51.426809 
L 188.235836 54.801969 
L 190.113732 58.565344 
L 191.991628 62.751037 
L 193.869524 67.393288 
L 195.74742 72.525577 
L 198.09479 79.677866 
L 200.442161 87.698914 
L 202.789531 96.629407 
L 205.136901 106.490653 
L 207.484271 117.277836 
L 210.301115 131.388683 
L 213.117959 146.635138 
L 216.873751 168.313312 
L 226.732706 226.23814 
L 229.54955 241.061134 
L 231.89692 252.261076 
L 234.24429 262.245639 
L 236.122186 269.297902 
L 238.000082 275.503932 
L 239.877978 280.878801 
L 241.755874 285.460915 
L 243.63377 289.307158 
L 245.042192 291.75062 
L 246.450614 293.851757 
L 247.859037 295.644146 
L 249.267459 297.161391 
L 251.145355 298.812723 
L 253.023251 300.105799 
L 254.901147 301.106448 
L 256.779043 301.872301 
L 259.126413 302.573468 
L 261.943257 303.139638 
L 265.229575 303.545168 
L 269.454841 303.825224 
L 276.027478 304.000122 
L 289.17275 304.068471 
L 393.395983 304.074545 
L 541.749773 304.074545 
L 541.749773 304.074545 
" clip-path="url(#p45415c0778)" style="fill: none; stroke: #9467bd; stroke-width: 1.5; stroke-linecap: square"/>
   </g>
   <g id="line2d_42">
    <path d="M 72.745227 24.766885 
L 135.185272 24.881433 
L 151.616863 25.12154 
L 161.945291 25.485489 
L 169.456875 25.966289 
L 175.560038 26.583938 
L 180.254778 27.266491 
L 184.480044 28.095566 
L 188.235836 29.058246 
L 191.522154 30.123368 
L 194.338998 31.241043 
L 197.155842 32.587377 
L 199.972687 34.207092 
L 202.320057 35.803325 
L 204.667427 37.660715 
L 207.014797 39.818804 
L 209.362167 42.321956 
L 211.709537 45.219516 
L 213.587433 47.857868 
L 215.465329 50.813278 
L 217.343225 54.11745 
L 219.221121 57.803488 
L 221.099017 61.905439 
L 222.976914 66.457645 
L 224.85481 71.493888 
L 227.20218 78.518565 
L 229.54955 86.405291 
L 231.89692 95.197418 
L 234.24429 104.919924 
L 236.59166 115.572733 
L 239.408504 129.536262 
L 242.225348 144.661466 
L 245.98114 166.239415 
L 256.779043 229.521205 
L 259.595887 244.072484 
L 261.943257 254.992302 
L 263.821153 262.834022 
L 265.699049 269.836713 
L 267.576945 275.990224 
L 269.454841 281.31136 
L 271.332738 285.84017 
L 272.74116 288.751375 
L 274.149582 291.279015 
L 275.558004 293.455329 
L 276.966426 295.313971 
L 278.374848 296.888866 
L 280.252744 298.60458 
L 282.13064 299.949211 
L 284.008536 300.990347 
L 285.886432 301.787418 
L 288.233802 302.517161 
L 291.050646 303.10614 
L 294.336964 303.527534 
L 298.562231 303.81792 
L 304.665393 303.991501 
L 316.871717 304.066529 
L 396.682301 304.074545 
L 541.749773 304.074545 
L 541.749773 304.074545 
" clip-path="url(#p45415c0778)" style="fill: none; stroke: #8c564b; stroke-width: 1.5; stroke-linecap: square"/>
   </g>
   <g id="patch_3">
    <path d="M 49.295 318.04 
L 49.295 10.8 
" style="fill: none; stroke: #000000; stroke-width: 0.8; stroke-linejoin: miter; stroke-linecap: square"/>
   </g>
   <g id="patch_4">
    <path d="M 565.2 318.04 
L 565.2 10.8 
" style="fill: none; stroke: #000000; stroke-width: 0.8; stroke-linejoin: miter; stroke-linecap: square"/>
   </g>
   <g id="patch_5">
    <path d="M 49.295 318.04 
L 565.2 318.04 
" style="fill: none; stroke: #000000; stroke-width: 0.8; stroke-linejoin: miter; stroke-linecap: square"/>
   </g>
   <g id="patch_6">
    <path d="M 49.295 10.8 
L 565.2 10.8 
" style="fill: none; stroke: #000000; stroke-width: 0.8; stroke-linejoin: miter; stroke-linecap: square"/>
   </g>
   <g id="legend_1">
    <g id="patch_7">
     <path d="M 465.94 182.16 
L 560.3 182.16 
Q 561.7 182.16 561.7 180.76 
L 561.7 15.7 
Q 561.7 14.3 560.3 14.3 
L 465.94 14.3 
Q 464.54 14.3 464.54 15.7 
L 464.54 180.76 
Q 464.54 182.16 465.94 182.16 
z
" style="fill: #ffffff; opacity: 0.8; stroke: #cccccc; stroke-linejoin: miter"/>
    </g>
    <g id="line2d_43">
     <path d="M 467.34 20.04 
L 474.34 20.04 
L 481.34 20.04 
" style="fill: none; stroke: #1f77b4; stroke-width: 1.5; stroke-linecap: square"/>
    </g>
    <g id="text_16">
     <!-- $\alpha_n$=6.0, $\beta_n$=0.0041 -->
     <g transform="translate(486.94 22.49) scale(0.07 -0.07)">
      <defs>
       <path id="DejaVuSans-Oblique-3b1" d="M 2619 1628 
L 2622 2350 
Q 2625 3088 2069 3091 
Q 1653 3094 1394 2747 
Q 1069 2319 959 1747 
Q 825 1059 994 731 
Q 1169 397 1547 397 
Q 1966 397 2319 1063 
L 2619 1628 
z
M 2166 3578 
Q 3141 3594 3128 2584 
Q 3128 2584 3616 3500 
L 4128 3500 
L 3119 1603 
L 3109 919 
Q 3109 766 3194 638 
Q 3291 488 3391 488 
L 3669 488 
L 3575 0 
L 3228 0 
Q 2934 0 2722 263 
Q 2622 394 2619 669 
Q 2416 334 2066 50 
Q 1900 -81 1453 -78 
Q 722 -72 456 397 
Q 184 884 353 1747 
Q 534 2675 1009 3097 
Q 1544 3569 2166 3578 
z
" transform="scale(0.015625)"/>
       <path id="DejaVuSans-Oblique-6e" d="M 3566 2113 
L 3156 0 
L 2578 0 
L 2988 2091 
Q 3016 2238 3031 2350 
Q 3047 2463 3047 2528 
Q 3047 2791 2881 2937 
Q 2716 3084 2419 3084 
Q 1956 3084 1622 2776 
Q 1288 2469 1184 1941 
L 800 0 
L 225 0 
L 903 3500 
L 1478 3500 
L 1363 2950 
Q 1603 3253 1940 3418 
Q 2278 3584 2650 3584 
Q 3113 3584 3367 3334 
Q 3622 3084 3622 2631 
Q 3622 2519 3608 2391 
Q 3594 2263 3566 2113 
z
" transform="scale(0.015625)"/>
       <path id="DejaVuSans-3d" d="M 678 2906 
L 4684 2906 
L 4684 2381 
L 678 2381 
L 678 2906 
z
M 678 1631 
L 4684 1631 
L 4684 1100 
L 678 1100 
L 678 1631 
z
" transform="scale(0.015625)"/>
       <path id="DejaVuSans-2c" d="M 750 794 
L 1409 794 
L 1409 256 
L 897 -744 
L 494 -744 
L 750 256 
L 750 794 
z
" transform="scale(0.015625)"/>
       <path id="DejaVuSans-Oblique-3b2" d="M 872 216 
L 572 -1331 
L -6 -1331 
L 928 3478 
Q 1206 4903 2538 4903 
Q 3888 4903 3659 3700 
Q 3503 2844 2894 2531 
Q 3713 2250 3553 1416 
Q 3272 -69 1759 -66 
Q 1097 -63 872 216 
z
M 1019 966 
Q 1259 422 1875 425 
Q 2775 425 2966 1406 
Q 3138 2288 1675 2219 
L 1778 2750 
Q 2909 2731 3106 3750 
Q 3241 4438 2509 4434 
Q 1691 4434 1503 3459 
L 1019 966 
z
" transform="scale(0.015625)"/>
      </defs>
      <use xlink:href="#DejaVuSans-Oblique-3b1" transform="translate(0 0.390625)"/>
      <use xlink:href="#DejaVuSans-Oblique-6e" transform="translate(65.917969 -16.015625) scale(0.7)"/>
      <use xlink:href="#DejaVuSans-3d" transform="translate(113.017578 0.390625)"/>
      <use xlink:href="#DejaVuSans-36" transform="translate(196.806641 0.390625)"/>
      <use xlink:href="#DejaVuSans-2e" transform="translate(260.429688 0.390625)"/>
      <use xlink:href="#DejaVuSans-30" transform="translate(292.216797 0.390625)"/>
      <use xlink:href="#DejaVuSans-2c" transform="translate(355.839844 0.390625)"/>
      <use xlink:href="#DejaVuSans-20" transform="translate(387.626953 0.390625)"/>
      <use xlink:href="#DejaVuSans-Oblique-3b2" transform="translate(419.414062 0.390625)"/>
      <use xlink:href="#DejaVuSans-Oblique-6e" transform="translate(483.232422 -16.015625) scale(0.7)"/>
      <use xlink:href="#DejaVuSans-3d" transform="translate(530.332031 0.390625)"/>
      <use xlink:href="#DejaVuSans-30" transform="translate(614.121094 0.390625)"/>
      <use xlink:href="#DejaVuSans-2e" transform="translate(677.744141 0.390625)"/>
      <use xlink:href="#DejaVuSans-30" transform="translate(709.53125 0.390625)"/>
      <use xlink:href="#DejaVuSans-30" transform="translate(773.154297 0.390625)"/>
      <use xlink:href="#DejaVuSans-34" transform="translate(836.777344 0.390625)"/>
      <use xlink:href="#DejaVuSans-31" transform="translate(900.400391 0.390625)"/>
     </g>
    </g>
    <g id="line2d_44">
     <path d="M 467.34 30.4 
L 474.34 30.4 
L 481.34 30.4 
" style="fill: none; stroke: #ff7f0e; stroke-width: 1.5; stroke-linecap: square"/>
    </g>
    <g id="text_17">
     <!-- $\alpha_n$=15.2, $\beta_n$=0.0112 -->
     <g transform="translate(486.94 32.85) scale(0.07 -0.07)">
      <use xlink:href="#DejaVuSans-Oblique-3b1" transform="translate(0 0.390625)"/>
      <use xlink:href="#DejaVuSans-Oblique-6e" transform="translate(65.917969 -16.015625) scale(0.7)"/>
      <use xlink:href="#DejaVuSans-3d" transform="translate(113.017578 0.390625)"/>
      <use xlink:href="#DejaVuSans-31" transform="translate(196.806641 0.390625)"/>
      <use xlink:href="#DejaVuSans-35" transform="translate(260.429688 0.390625)"/>
      <use xlink:href="#DejaVuSans-2e" transform="translate(324.052734 0.390625)"/>
      <use xlink:href="#DejaVuSans-32" transform="translate(350.339844 0.390625)"/>
      <use xlink:href="#DejaVuSans-2c" transform="translate(413.962891 0.390625)"/>
      <use xlink:href="#DejaVuSans-20" transform="translate(445.75 0.390625)"/>
      <use xlink:href="#DejaVuSans-Oblique-3b2" transform="translate(477.537109 0.390625)"/>
      <use xlink:href="#DejaVuSans-Oblique-6e" transform="translate(541.355469 -16.015625) scale(0.7)"/>
      <use xlink:href="#DejaVuSans-3d" transform="translate(588.455078 0.390625)"/>
      <use xlink:href="#DejaVuSans-30" transform="translate(672.244141 0.390625)"/>
      <use xlink:href="#DejaVuSans-2e" transform="translate(735.867188 0.390625)"/>
      <use xlink:href="#DejaVuSans-30" transform="translate(767.654297 0.390625)"/>
      <use xlink:href="#DejaVuSans-31" transform="translate(831.277344 0.390625)"/>
      <use xlink:href="#DejaVuSans-31" transform="translate(894.900391 0.390625)"/>
      <use xlink:href="#DejaVuSans-32" transform="translate(958.523438 0.390625)"/>
     </g>
    </g>
    <g id="line2d_45">
     <path d="M 467.34 40.76 
L 474.34 40.76 
L 481.34 40.76 
" style="fill: none; stroke: #2ca02c; stroke-width: 1.5; stroke-linecap: square"/>
    </g>
    <g id="text_18">
     <!-- $\alpha_n$=11.7, $\beta_n$=0.0073 -->
     <g transform="translate(486.94 43.21) scale(0.07 -0.07)">
      <defs>
       <path id="DejaVuSans-37" d="M 525 4666 
L 3525 4666 
L 3525 4397 
L 1831 0 
L 1172 0 
L 2766 4134 
L 525 4134 
L 525 4666 
z
" transform="scale(0.015625)"/>
       <path id="DejaVuSans-33" d="M 2597 2516 
Q 3050 2419 3304 2112 
Q 3559 1806 3559 1356 
Q 3559 666 3084 287 
Q 2609 -91 1734 -91 
Q 1441 -91 1130 -33 
Q 819 25 488 141 
L 488 750 
Q 750 597 1062 519 
Q 1375 441 1716 441 
Q 2309 441 2620 675 
Q 2931 909 2931 1356 
Q 2931 1769 2642 2001 
Q 2353 2234 1838 2234 
L 1294 2234 
L 1294 2753 
L 1863 2753 
Q 2328 2753 2575 2939 
Q 2822 3125 2822 3475 
Q 2822 3834 2567 4026 
Q 2313 4219 1838 4219 
Q 1578 4219 1281 4162 
Q 984 4106 628 3988 
L 628 4550 
Q 988 4650 1302 4700 
Q 1616 4750 1894 4750 
Q 2613 4750 3031 4423 
Q 3450 4097 3450 3541 
Q 3450 3153 3228 2886 
Q 3006 2619 2597 2516 
z
" transform="scale(0.015625)"/>
      </defs>
      <use xlink:href="#DejaVuSans-Oblique-3b1" transform="translate(0 0.390625)"/>
      <use xlink:href="#DejaVuSans-Oblique-6e" transform="translate(65.917969 -16.015625) scale(0.7)"/>
      <use xlink:href="#DejaVuSans-3d" transform="translate(113.017578 0.390625)"/>
      <use xlink:href="#DejaVuSans-31" transform="translate(196.806641 0.390625)"/>
      <use xlink:href="#DejaVuSans-31" transform="translate(260.429688 0.390625)"/>
      <use xlink:href="#DejaVuSans-2e" transform="translate(324.052734 0.390625)"/>
      <use xlink:href="#DejaVuSans-37" transform="translate(348.089844 0.390625)"/>
      <use xlink:href="#DejaVuSans-2c" transform="translate(411.712891 0.390625)"/>
      <use xlink:href="#DejaVuSans-20" transform="translate(443.5 0.390625)"/>
      <use xlink:href="#DejaVuSans-Oblique-3b2" transform="translate(475.287109 0.390625)"/>
      <use xlink:href="#DejaVuSans-Oblique-6e" transform="translate(539.105469 -16.015625) scale(0.7)"/>
      <use xlink:href="#DejaVuSans-3d" transform="translate(586.205078 0.390625)"/>
      <use xlink:href="#DejaVuSans-30" transform="translate(669.994141 0.390625)"/>
      <use xlink:href="#DejaVuSans-2e" transform="translate(733.617188 0.390625)"/>
      <use xlink:href="#DejaVuSans-30" transform="translate(765.404297 0.390625)"/>
      <use xlink:href="#DejaVuSans-30" transform="translate(829.027344 0.390625)"/>
      <use xlink:href="#DejaVuSans-37" transform="translate(892.650391 0.390625)"/>
      <use xlink:href="#DejaVuSans-33" transform="translate(956.273438 0.390625)"/>
     </g>
    </g>
    <g id="line2d_46">
     <path d="M 467.34 51.12 
L 474.34 51.12 
L 481.34 51.12 
" style="fill: none; stroke: #d62728; stroke-width: 1.5; stroke-linecap: square"/>
    </g>
    <g id="text_19">
     <!-- $\alpha_n$=9.6, $\beta_n$=0.0038 -->
     <g transform="translate(486.94 53.57) scale(0.07 -0.07)">
      <defs>
       <path id="DejaVuSans-39" d="M 703 97 
L 703 672 
Q 941 559 1184 500 
Q 1428 441 1663 441 
Q 2288 441 2617 861 
Q 2947 1281 2994 2138 
Q 2813 1869 2534 1725 
Q 2256 1581 1919 1581 
Q 1219 1581 811 2004 
Q 403 2428 403 3163 
Q 403 3881 828 4315 
Q 1253 4750 1959 4750 
Q 2769 4750 3195 4129 
Q 3622 3509 3622 2328 
Q 3622 1225 3098 567 
Q 2575 -91 1691 -91 
Q 1453 -91 1209 -44 
Q 966 3 703 97 
z
M 1959 2075 
Q 2384 2075 2632 2365 
Q 2881 2656 2881 3163 
Q 2881 3666 2632 3958 
Q 2384 4250 1959 4250 
Q 1534 4250 1286 3958 
Q 1038 3666 1038 3163 
Q 1038 2656 1286 2365 
Q 1534 2075 1959 2075 
z
" transform="scale(0.015625)"/>
      </defs>
      <use xlink:href="#DejaVuSans-Oblique-3b1" transform="translate(0 0.390625)"/>
      <use xlink:href="#DejaVuSans-Oblique-6e" transform="translate(65.917969 -16.015625) scale(0.7)"/>
      <use xlink:href="#DejaVuSans-3d" transform="translate(113.017578 0.390625)"/>
      <use xlink:href="#DejaVuSans-39" transform="translate(196.806641 0.390625)"/>
      <use xlink:href="#DejaVuSans-2e" transform="translate(260.429688 0.390625)"/>
      <use xlink:href="#DejaVuSans-36" transform="translate(292.216797 0.390625)"/>
      <use xlink:href="#DejaVuSans-2c" transform="translate(355.839844 0.390625)"/>
      <use xlink:href="#DejaVuSans-20" transform="translate(387.626953 0.390625)"/>
      <use xlink:href="#DejaVuSans-Oblique-3b2" transform="translate(419.414062 0.390625)"/>
      <use xlink:href="#DejaVuSans-Oblique-6e" transform="translate(483.232422 -16.015625) scale(0.7)"/>
      <use xlink:href="#DejaVuSans-3d" transform="translate(530.332031 0.390625)"/>
      <use xlink:href="#DejaVuSans-30" transform="translate(614.121094 0.390625)"/>
      <use xlink:href="#DejaVuSans-2e" transform="translate(677.744141 0.390625)"/>
      <use xlink:href="#DejaVuSans-30" transform="translate(709.53125 0.390625)"/>
      <use xlink:href="#DejaVuSans-30" transform="translate(773.154297 0.390625)"/>
      <use xlink:href="#DejaVuSans-33" transform="translate(836.777344 0.390625)"/>
      <use xlink:href="#DejaVuSans-38" transform="translate(900.400391 0.390625)"/>
     </g>
    </g>
    <g id="line2d_47">
     <path d="M 467.34 61.48 
L 474.34 61.48 
L 481.34 61.48 
" style="fill: none; stroke: #9467bd; stroke-width: 1.5; stroke-linecap: square"/>
    </g>
    <g id="text_20">
     <!-- $\alpha_n$=2.5, $\beta_n$=0.0167 -->
     <g transform="translate(486.94 63.93) scale(0.07 -0.07)">
      <use xlink:href="#DejaVuSans-Oblique-3b1" transform="translate(0 0.390625)"/>
      <use xlink:href="#DejaVuSans-Oblique-6e" transform="translate(65.917969 -16.015625) scale(0.7)"/>
      <use xlink:href="#DejaVuSans-3d" transform="translate(113.017578 0.390625)"/>
      <use xlink:href="#DejaVuSans-32" transform="translate(196.806641 0.390625)"/>
      <use xlink:href="#DejaVuSans-2e" transform="translate(260.429688 0.390625)"/>
      <use xlink:href="#DejaVuSans-35" transform="translate(292.216797 0.390625)"/>
      <use xlink:href="#DejaVuSans-2c" transform="translate(355.839844 0.390625)"/>
      <use xlink:href="#DejaVuSans-20" transform="translate(387.626953 0.390625)"/>
      <use xlink:href="#DejaVuSans-Oblique-3b2" transform="translate(419.414062 0.390625)"/>
      <use xlink:href="#DejaVuSans-Oblique-6e" transform="translate(483.232422 -16.015625) scale(0.7)"/>
      <use xlink:href="#DejaVuSans-3d" transform="translate(530.332031 0.390625)"/>
      <use xlink:href="#DejaVuSans-30" transform="translate(614.121094 0.390625)"/>
      <use xlink:href="#DejaVuSans-2e" transform="translate(677.744141 0.390625)"/>
      <use xlink:href="#DejaVuSans-30" transform="translate(709.53125 0.390625)"/>
      <use xlink:href="#DejaVuSans-31" transform="translate(773.154297 0.390625)"/>
      <use xlink:href="#DejaVuSans-36" transform="translate(836.777344 0.390625)"/>
      <use xlink:href="#DejaVuSans-37" transform="translate(900.400391 0.390625)"/>
     </g>
    </g>
    <g id="line2d_48">
     <path d="M 467.34 71.84 
L 474.34 71.84 
L 481.34 71.84 
" style="fill: none; stroke: #8c564b; stroke-width: 1.5; stroke-linecap: square"/>
    </g>
    <g id="text_21">
     <!-- $\alpha_n$=2.5, $\beta_n$=0.0019 -->
     <g transform="translate(486.94 74.29) scale(0.07 -0.07)">
      <use xlink:href="#DejaVuSans-Oblique-3b1" transform="translate(0 0.390625)"/>
      <use xlink:href="#DejaVuSans-Oblique-6e" transform="translate(65.917969 -16.015625) scale(0.7)"/>
      <use xlink:href="#DejaVuSans-3d" transform="translate(113.017578 0.390625)"/>
      <use xlink:href="#DejaVuSans-32" transform="translate(196.806641 0.390625)"/>
      <use xlink:href="#DejaVuSans-2e" transform="translate(260.429688 0.390625)"/>
      <use xlink:href="#DejaVuSans-35" transform="translate(292.216797 0.390625)"/>
      <use xlink:href="#DejaVuSans-2c" transform="translate(355.839844 0.390625)"/>
      <use xlink:href="#DejaVuSans-20" transform="translate(387.626953 0.390625)"/>
      <use xlink:href="#DejaVuSans-Oblique-3b2" transform="translate(419.414062 0.390625)"/>
      <use xlink:href="#DejaVuSans-Oblique-6e" transform="translate(483.232422 -16.015625) scale(0.7)"/>
      <use xlink:href="#DejaVuSans-3d" transform="translate(530.332031 0.390625)"/>
      <use xlink:href="#DejaVuSans-30" transform="translate(614.121094 0.390625)"/>
      <use xlink:href="#DejaVuSans-2e" transform="translate(677.744141 0.390625)"/>
      <use xlink:href="#DejaVuSans-30" transform="translate(709.53125 0.390625)"/>
      <use xlink:href="#DejaVuSans-30" transform="translate(773.154297 0.390625)"/>
      <use xlink:href="#DejaVuSans-31" transform="translate(836.777344 0.390625)"/>
      <use xlink:href="#DejaVuSans-39" transform="translate(900.400391 0.390625)"/>
     </g>
    </g>
    <g id="line2d_49">
     <path d="M 467.34 82.2 
L 474.34 82.2 
L 481.34 82.2 
" style="fill: none; stroke: #e377c2; stroke-width: 1.5; stroke-linecap: square"/>
    </g>
    <g id="text_22">
     <!-- $\alpha_n$=0.9, $\beta_n$=0.0038 -->
     <g transform="translate(486.94 84.65) scale(0.07 -0.07)">
      <use xlink:href="#DejaVuSans-Oblique-3b1" transform="translate(0 0.390625)"/>
      <use xlink:href="#DejaVuSans-Oblique-6e" transform="translate(65.917969 -16.015625) scale(0.7)"/>
      <use xlink:href="#DejaVuSans-3d" transform="translate(113.017578 0.390625)"/>
      <use xlink:href="#DejaVuSans-30" transform="translate(196.806641 0.390625)"/>
      <use xlink:href="#DejaVuSans-2e" transform="translate(260.429688 0.390625)"/>
      <use xlink:href="#DejaVuSans-39" transform="translate(292.216797 0.390625)"/>
      <use xlink:href="#DejaVuSans-2c" transform="translate(355.839844 0.390625)"/>
      <use xlink:href="#DejaVuSans-20" transform="translate(387.626953 0.390625)"/>
      <use xlink:href="#DejaVuSans-Oblique-3b2" transform="translate(419.414062 0.390625)"/>
      <use xlink:href="#DejaVuSans-Oblique-6e" transform="translate(483.232422 -16.015625) scale(0.7)"/>
      <use xlink:href="#DejaVuSans-3d" transform="translate(530.332031 0.390625)"/>
      <use xlink:href="#DejaVuSans-30" transform="translate(614.121094 0.390625)"/>
      <use xlink:href="#DejaVuSans-2e" transform="translate(677.744141 0.390625)"/>
      <use xlink:href="#DejaVuSans-30" transform="translate(709.53125 0.390625)"/>
      <use xlink:href="#DejaVuSans-30" transform="translate(773.154297 0.390625)"/>
      <use xlink:href="#DejaVuSans-33" transform="translate(836.777344 0.390625)"/>
      <use xlink:href="#DejaVuSans-38" transform="translate(900.400391 0.390625)"/>
     </g>
    </g>
    <g id="line2d_50">
     <path d="M 467.34 92.56 
L 474.34 92.56 
L 481.34 92.56 
" style="fill: none; stroke: #7f7f7f; stroke-width: 1.5; stroke-linecap: square"/>
    </g>
    <g id="text_23">
     <!-- $\alpha_n$=13.9, $\beta_n$=0.0054 -->
     <g transform="translate(486.94 95.01) scale(0.07 -0.07)">
      <use xlink:href="#DejaVuSans-Oblique-3b1" transform="translate(0 0.390625)"/>
      <use xlink:href="#DejaVuSans-Oblique-6e" transform="translate(65.917969 -16.015625) scale(0.7)"/>
      <use xlink:href="#DejaVuSans-3d" transform="translate(113.017578 0.390625)"/>
      <use xlink:href="#DejaVuSans-31" transform="translate(196.806641 0.390625)"/>
      <use xlink:href="#DejaVuSans-33" transform="translate(260.429688 0.390625)"/>
      <use xlink:href="#DejaVuSans-2e" transform="translate(324.052734 0.390625)"/>
      <use xlink:href="#DejaVuSans-39" transform="translate(355.839844 0.390625)"/>
      <use xlink:href="#DejaVuSans-2c" transform="translate(419.462891 0.390625)"/>
      <use xlink:href="#DejaVuSans-20" transform="translate(451.25 0.390625)"/>
      <use xlink:href="#DejaVuSans-Oblique-3b2" transform="translate(483.037109 0.390625)"/>
      <use xlink:href="#DejaVuSans-Oblique-6e" transform="translate(546.855469 -16.015625) scale(0.7)"/>
      <use xlink:href="#DejaVuSans-3d" transform="translate(593.955078 0.390625)"/>
      <use xlink:href="#DejaVuSans-30" transform="translate(677.744141 0.390625)"/>
      <use xlink:href="#DejaVuSans-2e" transform="translate(741.367188 0.390625)"/>
      <use xlink:href="#DejaVuSans-30" transform="translate(773.154297 0.390625)"/>
      <use xlink:href="#DejaVuSans-30" transform="translate(836.777344 0.390625)"/>
      <use xlink:href="#DejaVuSans-35" transform="translate(900.400391 0.390625)"/>
      <use xlink:href="#DejaVuSans-34" transform="translate(964.023438 0.390625)"/>
     </g>
    </g>
    <g id="line2d_51">
     <path d="M 467.34 102.92 
L 474.34 102.92 
L 481.34 102.92 
" style="fill: none; stroke: #bcbd22; stroke-width: 1.5; stroke-linecap: square"/>
    </g>
    <g id="text_24">
     <!-- $\alpha_n$=9.6, $\beta_n$=0.0082 -->
     <g transform="translate(486.94 105.37) scale(0.07 -0.07)">
      <use xlink:href="#DejaVuSans-Oblique-3b1" transform="translate(0 0.390625)"/>
      <use xlink:href="#DejaVuSans-Oblique-6e" transform="translate(65.917969 -16.015625) scale(0.7)"/>
      <use xlink:href="#DejaVuSans-3d" transform="translate(113.017578 0.390625)"/>
      <use xlink:href="#DejaVuSans-39" transform="translate(196.806641 0.390625)"/>
      <use xlink:href="#DejaVuSans-2e" transform="translate(260.429688 0.390625)"/>
      <use xlink:href="#DejaVuSans-36" transform="translate(292.216797 0.390625)"/>
      <use xlink:href="#DejaVuSans-2c" transform="translate(355.839844 0.390625)"/>
      <use xlink:href="#DejaVuSans-20" transform="translate(387.626953 0.390625)"/>
      <use xlink:href="#DejaVuSans-Oblique-3b2" transform="translate(419.414062 0.390625)"/>
      <use xlink:href="#DejaVuSans-Oblique-6e" transform="translate(483.232422 -16.015625) scale(0.7)"/>
      <use xlink:href="#DejaVuSans-3d" transform="translate(530.332031 0.390625)"/>
      <use xlink:href="#DejaVuSans-30" transform="translate(614.121094 0.390625)"/>
      <use xlink:href="#DejaVuSans-2e" transform="translate(677.744141 0.390625)"/>
      <use xlink:href="#DejaVuSans-30" transform="translate(709.53125 0.390625)"/>
      <use xlink:href="#DejaVuSans-30" transform="translate(773.154297 0.390625)"/>
      <use xlink:href="#DejaVuSans-38" transform="translate(836.777344 0.390625)"/>
      <use xlink:href="#DejaVuSans-32" transform="translate(900.400391 0.390625)"/>
     </g>
    </g>
    <g id="line2d_52">
     <path d="M 467.34 113.28 
L 474.34 113.28 
L 481.34 113.28 
" style="fill: none; stroke: #17becf; stroke-width: 1.5; stroke-linecap: square"/>
    </g>
    <g id="text_25">
     <!-- $\alpha_n$=11.3, $\beta_n$=0.0372 -->
     <g transform="translate(486.94 115.73) scale(0.07 -0.07)">
      <use xlink:href="#DejaVuSans-Oblique-3b1" transform="translate(0 0.390625)"/>
      <use xlink:href="#DejaVuSans-Oblique-6e" transform="translate(65.917969 -16.015625) scale(0.7)"/>
      <use xlink:href="#DejaVuSans-3d" transform="translate(113.017578 0.390625)"/>
      <use xlink:href="#DejaVuSans-31" transform="translate(196.806641 0.390625)"/>
      <use xlink:href="#DejaVuSans-31" transform="translate(260.429688 0.390625)"/>
      <use xlink:href="#DejaVuSans-2e" transform="translate(324.052734 0.390625)"/>
      <use xlink:href="#DejaVuSans-33" transform="translate(355.839844 0.390625)"/>
      <use xlink:href="#DejaVuSans-2c" transform="translate(419.462891 0.390625)"/>
      <use xlink:href="#DejaVuSans-20" transform="translate(451.25 0.390625)"/>
      <use xlink:href="#DejaVuSans-Oblique-3b2" transform="translate(483.037109 0.390625)"/>
      <use xlink:href="#DejaVuSans-Oblique-6e" transform="translate(546.855469 -16.015625) scale(0.7)"/>
      <use xlink:href="#DejaVuSans-3d" transform="translate(593.955078 0.390625)"/>
      <use xlink:href="#DejaVuSans-30" transform="translate(677.744141 0.390625)"/>
      <use xlink:href="#DejaVuSans-2e" transform="translate(741.367188 0.390625)"/>
      <use xlink:href="#DejaVuSans-30" transform="translate(773.154297 0.390625)"/>
      <use xlink:href="#DejaVuSans-33" transform="translate(836.777344 0.390625)"/>
      <use xlink:href="#DejaVuSans-37" transform="translate(900.400391 0.390625)"/>
      <use xlink:href="#DejaVuSans-32" transform="translate(964.023438 0.390625)"/>
     </g>
    </g>
    <g id="line2d_53">
     <path d="M 467.34 123.64 
L 474.34 123.64 
L 481.34 123.64 
" style="fill: none; stroke: #1f77b4; stroke-width: 1.5; stroke-linecap: square"/>
    </g>
    <g id="text_26">
     <!-- $\alpha_n$=0.3, $\beta_n$=0.0025 -->
     <g transform="translate(486.94 126.09) scale(0.07 -0.07)">
      <use xlink:href="#DejaVuSans-Oblique-3b1" transform="translate(0 0.390625)"/>
      <use xlink:href="#DejaVuSans-Oblique-6e" transform="translate(65.917969 -16.015625) scale(0.7)"/>
      <use xlink:href="#DejaVuSans-3d" transform="translate(113.017578 0.390625)"/>
      <use xlink:href="#DejaVuSans-30" transform="translate(196.806641 0.390625)"/>
      <use xlink:href="#DejaVuSans-2e" transform="translate(260.429688 0.390625)"/>
      <use xlink:href="#DejaVuSans-33" transform="translate(292.216797 0.390625)"/>
      <use xlink:href="#DejaVuSans-2c" transform="translate(355.839844 0.390625)"/>
      <use xlink:href="#DejaVuSans-20" transform="translate(387.626953 0.390625)"/>
      <use xlink:href="#DejaVuSans-Oblique-3b2" transform="translate(419.414062 0.390625)"/>
      <use xlink:href="#DejaVuSans-Oblique-6e" transform="translate(483.232422 -16.015625) scale(0.7)"/>
      <use xlink:href="#DejaVuSans-3d" transform="translate(530.332031 0.390625)"/>
      <use xlink:href="#DejaVuSans-30" transform="translate(614.121094 0.390625)"/>
      <use xlink:href="#DejaVuSans-2e" transform="translate(677.744141 0.390625)"/>
      <use xlink:href="#DejaVuSans-30" transform="translate(709.53125 0.390625)"/>
      <use xlink:href="#DejaVuSans-30" transform="translate(773.154297 0.390625)"/>
      <use xlink:href="#DejaVuSans-32" transform="translate(836.777344 0.390625)"/>
      <use xlink:href="#DejaVuSans-35" transform="translate(900.400391 0.390625)"/>
     </g>
    </g>
    <g id="line2d_54">
     <path d="M 467.34 134 
L 474.34 134 
L 481.34 134 
" style="fill: none; stroke: #ff7f0e; stroke-width: 1.5; stroke-linecap: square"/>
    </g>
    <g id="text_27">
     <!-- $\alpha_n$=15.5, $\beta_n$=0.0107 -->
     <g transform="translate(486.94 136.45) scale(0.07 -0.07)">
      <use xlink:href="#DejaVuSans-Oblique-3b1" transform="translate(0 0.390625)"/>
      <use xlink:href="#DejaVuSans-Oblique-6e" transform="translate(65.917969 -16.015625) scale(0.7)"/>
      <use xlink:href="#DejaVuSans-3d" transform="translate(113.017578 0.390625)"/>
      <use xlink:href="#DejaVuSans-31" transform="translate(196.806641 0.390625)"/>
      <use xlink:href="#DejaVuSans-35" transform="translate(260.429688 0.390625)"/>
      <use xlink:href="#DejaVuSans-2e" transform="translate(324.052734 0.390625)"/>
      <use xlink:href="#DejaVuSans-35" transform="translate(355.839844 0.390625)"/>
      <use xlink:href="#DejaVuSans-2c" transform="translate(419.462891 0.390625)"/>
      <use xlink:href="#DejaVuSans-20" transform="translate(451.25 0.390625)"/>
      <use xlink:href="#DejaVuSans-Oblique-3b2" transform="translate(483.037109 0.390625)"/>
      <use xlink:href="#DejaVuSans-Oblique-6e" transform="translate(546.855469 -16.015625) scale(0.7)"/>
      <use xlink:href="#DejaVuSans-3d" transform="translate(593.955078 0.390625)"/>
      <use xlink:href="#DejaVuSans-30" transform="translate(677.744141 0.390625)"/>
      <use xlink:href="#DejaVuSans-2e" transform="translate(741.367188 0.390625)"/>
      <use xlink:href="#DejaVuSans-30" transform="translate(773.154297 0.390625)"/>
      <use xlink:href="#DejaVuSans-31" transform="translate(836.777344 0.390625)"/>
      <use xlink:href="#DejaVuSans-30" transform="translate(900.400391 0.390625)"/>
      <use xlink:href="#DejaVuSans-37" transform="translate(964.023438 0.390625)"/>
     </g>
    </g>
    <g id="line2d_55">
     <path d="M 467.34 144.36 
L 474.34 144.36 
L 481.34 144.36 
" style="fill: none; stroke: #2ca02c; stroke-width: 1.5; stroke-linecap: square"/>
    </g>
    <g id="text_28">
     <!-- $\alpha_n$=13.3, $\beta_n$=0.0153 -->
     <g transform="translate(486.94 146.81) scale(0.07 -0.07)">
      <use xlink:href="#DejaVuSans-Oblique-3b1" transform="translate(0 0.390625)"/>
      <use xlink:href="#DejaVuSans-Oblique-6e" transform="translate(65.917969 -16.015625) scale(0.7)"/>
      <use xlink:href="#DejaVuSans-3d" transform="translate(113.017578 0.390625)"/>
      <use xlink:href="#DejaVuSans-31" transform="translate(196.806641 0.390625)"/>
      <use xlink:href="#DejaVuSans-33" transform="translate(260.429688 0.390625)"/>
      <use xlink:href="#DejaVuSans-2e" transform="translate(324.052734 0.390625)"/>
      <use xlink:href="#DejaVuSans-33" transform="translate(355.839844 0.390625)"/>
      <use xlink:href="#DejaVuSans-2c" transform="translate(419.462891 0.390625)"/>
      <use xlink:href="#DejaVuSans-20" transform="translate(451.25 0.390625)"/>
      <use xlink:href="#DejaVuSans-Oblique-3b2" transform="translate(483.037109 0.390625)"/>
      <use xlink:href="#DejaVuSans-Oblique-6e" transform="translate(546.855469 -16.015625) scale(0.7)"/>
      <use xlink:href="#DejaVuSans-3d" transform="translate(593.955078 0.390625)"/>
      <use xlink:href="#DejaVuSans-30" transform="translate(677.744141 0.390625)"/>
      <use xlink:href="#DejaVuSans-2e" transform="translate(741.367188 0.390625)"/>
      <use xlink:href="#DejaVuSans-30" transform="translate(773.154297 0.390625)"/>
      <use xlink:href="#DejaVuSans-31" transform="translate(836.777344 0.390625)"/>
      <use xlink:href="#DejaVuSans-35" transform="translate(900.400391 0.390625)"/>
      <use xlink:href="#DejaVuSans-33" transform="translate(964.023438 0.390625)"/>
     </g>
    </g>
    <g id="line2d_56">
     <path d="M 467.34 154.72 
L 474.34 154.72 
L 481.34 154.72 
" style="fill: none; stroke: #d62728; stroke-width: 1.5; stroke-linecap: square"/>
    </g>
    <g id="text_29">
     <!-- $\alpha_n$=3.4, $\beta_n$=0.0012 -->
     <g transform="translate(486.94 157.17) scale(0.07 -0.07)">
      <use xlink:href="#DejaVuSans-Oblique-3b1" transform="translate(0 0.390625)"/>
      <use xlink:href="#DejaVuSans-Oblique-6e" transform="translate(65.917969 -16.015625) scale(0.7)"/>
      <use xlink:href="#DejaVuSans-3d" transform="translate(113.017578 0.390625)"/>
      <use xlink:href="#DejaVuSans-33" transform="translate(196.806641 0.390625)"/>
      <use xlink:href="#DejaVuSans-2e" transform="translate(260.429688 0.390625)"/>
      <use xlink:href="#DejaVuSans-34" transform="translate(292.216797 0.390625)"/>
      <use xlink:href="#DejaVuSans-2c" transform="translate(355.839844 0.390625)"/>
      <use xlink:href="#DejaVuSans-20" transform="translate(387.626953 0.390625)"/>
      <use xlink:href="#DejaVuSans-Oblique-3b2" transform="translate(419.414062 0.390625)"/>
      <use xlink:href="#DejaVuSans-Oblique-6e" transform="translate(483.232422 -16.015625) scale(0.7)"/>
      <use xlink:href="#DejaVuSans-3d" transform="translate(530.332031 0.390625)"/>
      <use xlink:href="#DejaVuSans-30" transform="translate(614.121094 0.390625)"/>
      <use xlink:href="#DejaVuSans-2e" transform="translate(677.744141 0.390625)"/>
      <use xlink:href="#DejaVuSans-30" transform="translate(709.53125 0.390625)"/>
      <use xlink:href="#DejaVuSans-30" transform="translate(773.154297 0.390625)"/>
      <use xlink:href="#DejaVuSans-31" transform="translate(836.777344 0.390625)"/>
      <use xlink:href="#DejaVuSans-32" transform="translate(900.400391 0.390625)"/>
     </g>
    </g>
    <g id="line2d_57">
     <path d="M 467.34 165.08 
L 474.34 165.08 
L 481.34 165.08 
" style="fill: none; stroke: #9467bd; stroke-width: 1.5; stroke-linecap: square"/>
    </g>
    <g id="text_30">
     <!-- $\alpha_n$=2.9, $\beta_n$=0.0164 -->
     <g transform="translate(486.94 167.53) scale(0.07 -0.07)">
      <use xlink:href="#DejaVuSans-Oblique-3b1" transform="translate(0 0.390625)"/>
      <use xlink:href="#DejaVuSans-Oblique-6e" transform="translate(65.917969 -16.015625) scale(0.7)"/>
      <use xlink:href="#DejaVuSans-3d" transform="translate(113.017578 0.390625)"/>
      <use xlink:href="#DejaVuSans-32" transform="translate(196.806641 0.390625)"/>
      <use xlink:href="#DejaVuSans-2e" transform="translate(260.429688 0.390625)"/>
      <use xlink:href="#DejaVuSans-39" transform="translate(292.216797 0.390625)"/>
      <use xlink:href="#DejaVuSans-2c" transform="translate(355.839844 0.390625)"/>
      <use xlink:href="#DejaVuSans-20" transform="translate(387.626953 0.390625)"/>
      <use xlink:href="#DejaVuSans-Oblique-3b2" transform="translate(419.414062 0.390625)"/>
      <use xlink:href="#DejaVuSans-Oblique-6e" transform="translate(483.232422 -16.015625) scale(0.7)"/>
      <use xlink:href="#DejaVuSans-3d" transform="translate(530.332031 0.390625)"/>
      <use xlink:href="#DejaVuSans-30" transform="translate(614.121094 0.390625)"/>
      <use xlink:href="#DejaVuSans-2e" transform="translate(677.744141 0.390625)"/>
      <use xlink:href="#DejaVuSans-30" transform="translate(709.53125 0.390625)"/>
      <use xlink:href="#DejaVuSans-31" transform="translate(773.154297 0.390625)"/>
      <use xlink:href="#DejaVuSans-36" transform="translate(836.777344 0.390625)"/>
      <use xlink:href="#DejaVuSans-34" transform="translate(900.400391 0.390625)"/>
     </g>
    </g>
    <g id="line2d_58">
     <path d="M 467.34 175.44 
L 474.34 175.44 
L 481.34 175.44 
" style="fill: none; stroke: #8c564b; stroke-width: 1.5; stroke-linecap: square"/>
    </g>
    <g id="text_31">
     <!-- $\alpha_n$=2.9, $\beta_n$=0.0022 -->
     <g transform="translate(486.94 177.89) scale(0.07 -0.07)">
      <use xlink:href="#DejaVuSans-Oblique-3b1" transform="translate(0 0.390625)"/>
      <use xlink:href="#DejaVuSans-Oblique-6e" transform="translate(65.917969 -16.015625) scale(0.7)"/>
      <use xlink:href="#DejaVuSans-3d" transform="translate(113.017578 0.390625)"/>
      <use xlink:href="#DejaVuSans-32" transform="translate(196.806641 0.390625)"/>
      <use xlink:href="#DejaVuSans-2e" transform="translate(260.429688 0.390625)"/>
      <use xlink:href="#DejaVuSans-39" transform="translate(292.216797 0.390625)"/>
      <use xlink:href="#DejaVuSans-2c" transform="translate(355.839844 0.390625)"/>
      <use xlink:href="#DejaVuSans-20" transform="translate(387.626953 0.390625)"/>
      <use xlink:href="#DejaVuSans-Oblique-3b2" transform="translate(419.414062 0.390625)"/>
      <use xlink:href="#DejaVuSans-Oblique-6e" transform="translate(483.232422 -16.015625) scale(0.7)"/>
      <use xlink:href="#DejaVuSans-3d" transform="translate(530.332031 0.390625)"/>
      <use xlink:href="#DejaVuSans-30" transform="translate(614.121094 0.390625)"/>
      <use xlink:href="#DejaVuSans-2e" transform="translate(677.744141 0.390625)"/>
      <use xlink:href="#DejaVuSans-30" transform="translate(709.53125 0.390625)"/>
      <use xlink:href="#DejaVuSans-30" transform="translate(773.154297 0.390625)"/>
      <use xlink:href="#DejaVuSans-32" transform="translate(836.777344 0.390625)"/>
      <use xlink:href="#DejaVuSans-32" transform="translate(900.400391 0.390625)"/>
     </g>
    </g>
   </g>
  </g>
 </g>
 <defs>
  <clipPath id="p45415c0778">
   <rect x="49.295" y="10.8" width="515.905" height="307.24"/>
  </clipPath>
 </defs>
</svg>
