<?xml version="1.0" encoding="utf-8" standalone="no"?>
<!DOCTYPE svg PUBLIC "-//W3C//DTD SVG 1.1//EN"
  "http://www.w3.org/Graphics/SVG/1.1/DTD/svg11.dtd">
<svg xmlns:xlink="http://www.w3.org/1999/xlink" width="1296pt" height="432pt" viewBox="0 0 1296 432" xmlns="http://www.w3.org/2000/svg" version="1.1">
 <metadata>
  <rdf:RDF xmlns:dc="http://purl.org/dc/elements/1.1/" xmlns:cc="http://creativecommons.org/ns#" xmlns:rdf="http://www.w3.org/1999/02/22-rdf-syntax-ns#">
   <cc:Work>
    <dc:type rdf:resource="http://purl.org/dc/dcmitype/StillImage"/>
    <dc:date>2026-02-06T22:43:38.301434</dc:date>
    <dc:format>image/svg+xml</dc:format>
    <dc:creator>
     <cc:Agent>
      <dc:title>Matplotlib v3.10.8, https://matplotlib.org/</dc:title>
     </cc:Agent>
    </dc:creator>
   </cc:Work>
  </rdf:RDF>
 </metadata>
 <defs>
  <style type="text/css">*{stroke-linejoin: round; stroke-linecap: butt}</style>
 </defs>
 <g id="figure_1">
  <g id="patch_1">
   <path d="M 0 432 
L 1296 432 
L 1296 0 
L 0 0 
z
" style="fill: #ffffff"/>
  </g>
  <g id="axes_1">
   <g id="patch_2">
    <path d="M 56.025 322.104088 
L 448.859213 322.104088 
L 448.859213 27.6 
L 56.025 27.6 
z
" style="fill: #ffffff"/>
   </g>
   <g id="matplotlib.axis_1">
    <g id="xtick_1">
     <g id="line2d_1">
      <path d="M 73.881101 322.104088 
L 73.881101 27.6 
" clip-path="url(#pbba5e37d73)" style="fill: none; stroke: #cccccc; stroke-linecap: round"/>
     </g>
     <g id="text_1">
      <!-- 1024 -->
      <g style="fill: #262626" transform="translate(55.033611 354.473136) rotate(-45) scale(0.11 -0.11)">
       <defs>
        <path id="ArialMT-31" d="M 2384 0 
L 1822 0 
L 1822 3584 
Q 1619 3391 1289 3197 
Q 959 3003 697 2906 
L 697 3450 
Q 1169 3672 1522 3987 
Q 1875 4303 2022 4600 
L 2384 4600 
L 2384 0 
z
" transform="scale(0.015625)"/>
        <path id="ArialMT-30" d="M 266 2259 
Q 266 3072 433 3567 
Q 600 4063 929 4331 
Q 1259 4600 1759 4600 
Q 2128 4600 2406 4451 
Q 2684 4303 2865 4023 
Q 3047 3744 3150 3342 
Q 3253 2941 3253 2259 
Q 3253 1453 3087 958 
Q 2922 463 2592 192 
Q 2263 -78 1759 -78 
Q 1097 -78 719 397 
Q 266 969 266 2259 
z
M 844 2259 
Q 844 1131 1108 757 
Q 1372 384 1759 384 
Q 2147 384 2411 759 
Q 2675 1134 2675 2259 
Q 2675 3391 2411 3762 
Q 2147 4134 1753 4134 
Q 1366 4134 1134 3806 
Q 844 3388 844 2259 
z
" transform="scale(0.015625)"/>
        <path id="ArialMT-32" d="M 3222 541 
L 3222 0 
L 194 0 
Q 188 203 259 391 
Q 375 700 629 1000 
Q 884 1300 1366 1694 
Q 2113 2306 2375 2664 
Q 2638 3022 2638 3341 
Q 2638 3675 2398 3904 
Q 2159 4134 1775 4134 
Q 1369 4134 1125 3890 
Q 881 3647 878 3216 
L 300 3275 
Q 359 3922 746 4261 
Q 1134 4600 1788 4600 
Q 2447 4600 2831 4234 
Q 3216 3869 3216 3328 
Q 3216 3053 3103 2787 
Q 2991 2522 2730 2228 
Q 2469 1934 1863 1422 
Q 1356 997 1212 845 
Q 1069 694 975 541 
L 3222 541 
z
" transform="scale(0.015625)"/>
        <path id="ArialMT-34" d="M 2069 0 
L 2069 1097 
L 81 1097 
L 81 1613 
L 2172 4581 
L 2631 4581 
L 2631 1613 
L 3250 1613 
L 3250 1097 
L 2631 1097 
L 2631 0 
L 2069 0 
z
M 2069 1613 
L 2069 3678 
L 634 1613 
L 2069 1613 
z
" transform="scale(0.015625)"/>
       </defs>
       <use xlink:href="#ArialMT-31"/>
       <use xlink:href="#ArialMT-30" transform="translate(55.615234 0)"/>
       <use xlink:href="#ArialMT-32" transform="translate(111.230469 0)"/>
       <use xlink:href="#ArialMT-34" transform="translate(166.845703 0)"/>
      </g>
     </g>
    </g>
    <g id="xtick_2">
     <g id="line2d_2">
      <path d="M 97.689235 322.104088 
L 97.689235 27.6 
" clip-path="url(#pbba5e37d73)" style="fill: none; stroke: #cccccc; stroke-linecap: round"/>
     </g>
     <g id="text_2">
      <!-- 2048 -->
      <g style="fill: #262626" transform="translate(78.841745 354.473136) rotate(-45) scale(0.11 -0.11)">
       <defs>
        <path id="ArialMT-38" d="M 1131 2484 
Q 781 2613 612 2850 
Q 444 3088 444 3419 
Q 444 3919 803 4259 
Q 1163 4600 1759 4600 
Q 2359 4600 2725 4251 
Q 3091 3903 3091 3403 
Q 3091 3084 2923 2848 
Q 2756 2613 2416 2484 
Q 2838 2347 3058 2040 
Q 3278 1734 3278 1309 
Q 3278 722 2862 322 
Q 2447 -78 1769 -78 
Q 1091 -78 675 323 
Q 259 725 259 1325 
Q 259 1772 486 2073 
Q 713 2375 1131 2484 
z
M 1019 3438 
Q 1019 3113 1228 2906 
Q 1438 2700 1772 2700 
Q 2097 2700 2305 2904 
Q 2513 3109 2513 3406 
Q 2513 3716 2298 3927 
Q 2084 4138 1766 4138 
Q 1444 4138 1231 3931 
Q 1019 3725 1019 3438 
z
M 838 1322 
Q 838 1081 952 856 
Q 1066 631 1291 507 
Q 1516 384 1775 384 
Q 2178 384 2440 643 
Q 2703 903 2703 1303 
Q 2703 1709 2433 1975 
Q 2163 2241 1756 2241 
Q 1359 2241 1098 1978 
Q 838 1716 838 1322 
z
" transform="scale(0.015625)"/>
       </defs>
       <use xlink:href="#ArialMT-32"/>
       <use xlink:href="#ArialMT-30" transform="translate(55.615234 0)"/>
       <use xlink:href="#ArialMT-34" transform="translate(111.230469 0)"/>
       <use xlink:href="#ArialMT-38" transform="translate(166.845703 0)"/>
      </g>
     </g>
    </g>
    <g id="xtick_3">
     <g id="line2d_3">
      <path d="M 145.305503 322.104088 
L 145.305503 27.6 
" clip-path="url(#pbba5e37d73)" style="fill: none; stroke: #cccccc; stroke-linecap: round"/>
     </g>
     <g id="text_3">
      <!-- 4096 -->
      <g style="fill: #262626" transform="translate(126.458014 354.473136) rotate(-45) scale(0.11 -0.11)">
       <defs>
        <path id="ArialMT-39" d="M 350 1059 
L 891 1109 
Q 959 728 1153 556 
Q 1347 384 1650 384 
Q 1909 384 2104 503 
Q 2300 622 2425 820 
Q 2550 1019 2634 1356 
Q 2719 1694 2719 2044 
Q 2719 2081 2716 2156 
Q 2547 1888 2255 1720 
Q 1963 1553 1622 1553 
Q 1053 1553 659 1965 
Q 266 2378 266 3053 
Q 266 3750 677 4175 
Q 1088 4600 1706 4600 
Q 2153 4600 2523 4359 
Q 2894 4119 3086 3673 
Q 3278 3228 3278 2384 
Q 3278 1506 3087 986 
Q 2897 466 2520 194 
Q 2144 -78 1638 -78 
Q 1100 -78 759 220 
Q 419 519 350 1059 
z
M 2653 3081 
Q 2653 3566 2395 3850 
Q 2138 4134 1775 4134 
Q 1400 4134 1122 3828 
Q 844 3522 844 3034 
Q 844 2597 1108 2323 
Q 1372 2050 1759 2050 
Q 2150 2050 2401 2323 
Q 2653 2597 2653 3081 
z
" transform="scale(0.015625)"/>
        <path id="ArialMT-36" d="M 3184 3459 
L 2625 3416 
Q 2550 3747 2413 3897 
Q 2184 4138 1850 4138 
Q 1581 4138 1378 3988 
Q 1113 3794 959 3422 
Q 806 3050 800 2363 
Q 1003 2672 1297 2822 
Q 1591 2972 1913 2972 
Q 2475 2972 2870 2558 
Q 3266 2144 3266 1488 
Q 3266 1056 3080 686 
Q 2894 316 2569 119 
Q 2244 -78 1831 -78 
Q 1128 -78 684 439 
Q 241 956 241 2144 
Q 241 3472 731 4075 
Q 1159 4600 1884 4600 
Q 2425 4600 2770 4297 
Q 3116 3994 3184 3459 
z
M 888 1484 
Q 888 1194 1011 928 
Q 1134 663 1356 523 
Q 1578 384 1822 384 
Q 2178 384 2434 671 
Q 2691 959 2691 1453 
Q 2691 1928 2437 2201 
Q 2184 2475 1800 2475 
Q 1419 2475 1153 2201 
Q 888 1928 888 1484 
z
" transform="scale(0.015625)"/>
       </defs>
       <use xlink:href="#ArialMT-34"/>
       <use xlink:href="#ArialMT-30" transform="translate(55.615234 0)"/>
       <use xlink:href="#ArialMT-39" transform="translate(111.230469 0)"/>
       <use xlink:href="#ArialMT-36" transform="translate(166.845703 0)"/>
      </g>
     </g>
    </g>
    <g id="xtick_4">
     <g id="line2d_4">
      <path d="M 240.538039 322.104088 
L 240.538039 27.6 
" clip-path="url(#pbba5e37d73)" style="fill: none; stroke: #cccccc; stroke-linecap: round"/>
     </g>
     <g id="text_4">
      <!-- 8192 -->
      <g style="fill: #262626" transform="translate(221.69055 354.473136) rotate(-45) scale(0.11 -0.11)">
       <use xlink:href="#ArialMT-38"/>
       <use xlink:href="#ArialMT-31" transform="translate(55.615234 0)"/>
       <use xlink:href="#ArialMT-39" transform="translate(111.230469 0)"/>
       <use xlink:href="#ArialMT-32" transform="translate(166.845703 0)"/>
      </g>
     </g>
    </g>
    <g id="xtick_5">
     <g id="line2d_5">
      <path d="M 431.003112 322.104088 
L 431.003112 27.6 
" clip-path="url(#pbba5e37d73)" style="fill: none; stroke: #cccccc; stroke-linecap: round"/>
     </g>
     <g id="text_5">
      <!-- 16384 -->
      <g style="fill: #262626" transform="translate(407.830228 358.798531) rotate(-45) scale(0.11 -0.11)">
       <defs>
        <path id="ArialMT-33" d="M 269 1209 
L 831 1284 
Q 928 806 1161 595 
Q 1394 384 1728 384 
Q 2125 384 2398 659 
Q 2672 934 2672 1341 
Q 2672 1728 2419 1979 
Q 2166 2231 1775 2231 
Q 1616 2231 1378 2169 
L 1441 2663 
Q 1497 2656 1531 2656 
Q 1891 2656 2178 2843 
Q 2466 3031 2466 3422 
Q 2466 3731 2256 3934 
Q 2047 4138 1716 4138 
Q 1388 4138 1169 3931 
Q 950 3725 888 3313 
L 325 3413 
Q 428 3978 793 4289 
Q 1159 4600 1703 4600 
Q 2078 4600 2393 4439 
Q 2709 4278 2876 4000 
Q 3044 3722 3044 3409 
Q 3044 3113 2884 2869 
Q 2725 2625 2413 2481 
Q 2819 2388 3044 2092 
Q 3269 1797 3269 1353 
Q 3269 753 2831 336 
Q 2394 -81 1725 -81 
Q 1122 -81 723 278 
Q 325 638 269 1209 
z
" transform="scale(0.015625)"/>
       </defs>
       <use xlink:href="#ArialMT-31"/>
       <use xlink:href="#ArialMT-36" transform="translate(55.615234 0)"/>
       <use xlink:href="#ArialMT-33" transform="translate(111.230469 0)"/>
       <use xlink:href="#ArialMT-38" transform="translate(166.845703 0)"/>
       <use xlink:href="#ArialMT-34" transform="translate(222.460938 0)"/>
      </g>
     </g>
    </g>
    <g id="text_6">
     <!-- Sequence Length -->
     <g style="fill: #262626" transform="translate(205.403981 373.080068) scale(0.12 -0.12)">
      <defs>
       <path id="ArialMT-53" d="M 288 1472 
L 859 1522 
Q 900 1178 1048 958 
Q 1197 738 1509 602 
Q 1822 466 2213 466 
Q 2559 466 2825 569 
Q 3091 672 3220 851 
Q 3350 1031 3350 1244 
Q 3350 1459 3225 1620 
Q 3100 1781 2813 1891 
Q 2628 1963 1997 2114 
Q 1366 2266 1113 2400 
Q 784 2572 623 2826 
Q 463 3081 463 3397 
Q 463 3744 659 4045 
Q 856 4347 1234 4503 
Q 1613 4659 2075 4659 
Q 2584 4659 2973 4495 
Q 3363 4331 3572 4012 
Q 3781 3694 3797 3291 
L 3216 3247 
Q 3169 3681 2898 3903 
Q 2628 4125 2100 4125 
Q 1550 4125 1298 3923 
Q 1047 3722 1047 3438 
Q 1047 3191 1225 3031 
Q 1400 2872 2139 2705 
Q 2878 2538 3153 2413 
Q 3553 2228 3743 1945 
Q 3934 1663 3934 1294 
Q 3934 928 3725 604 
Q 3516 281 3123 101 
Q 2731 -78 2241 -78 
Q 1619 -78 1198 103 
Q 778 284 539 648 
Q 300 1013 288 1472 
z
" transform="scale(0.015625)"/>
       <path id="ArialMT-65" d="M 2694 1069 
L 3275 997 
Q 3138 488 2766 206 
Q 2394 -75 1816 -75 
Q 1088 -75 661 373 
Q 234 822 234 1631 
Q 234 2469 665 2931 
Q 1097 3394 1784 3394 
Q 2450 3394 2872 2941 
Q 3294 2488 3294 1666 
Q 3294 1616 3291 1516 
L 816 1516 
Q 847 969 1125 678 
Q 1403 388 1819 388 
Q 2128 388 2347 550 
Q 2566 713 2694 1069 
z
M 847 1978 
L 2700 1978 
Q 2663 2397 2488 2606 
Q 2219 2931 1791 2931 
Q 1403 2931 1139 2672 
Q 875 2413 847 1978 
z
" transform="scale(0.015625)"/>
       <path id="ArialMT-71" d="M 2538 -1272 
L 2538 353 
Q 2406 169 2170 47 
Q 1934 -75 1669 -75 
Q 1078 -75 651 397 
Q 225 869 225 1691 
Q 225 2191 398 2587 
Q 572 2984 901 3189 
Q 1231 3394 1625 3394 
Q 2241 3394 2594 2875 
L 2594 3319 
L 3100 3319 
L 3100 -1272 
L 2538 -1272 
z
M 803 1669 
Q 803 1028 1072 708 
Q 1341 388 1716 388 
Q 2075 388 2334 692 
Q 2594 997 2594 1619 
Q 2594 2281 2320 2615 
Q 2047 2950 1678 2950 
Q 1313 2950 1058 2639 
Q 803 2328 803 1669 
z
" transform="scale(0.015625)"/>
       <path id="ArialMT-75" d="M 2597 0 
L 2597 488 
Q 2209 -75 1544 -75 
Q 1250 -75 995 37 
Q 741 150 617 320 
Q 494 491 444 738 
Q 409 903 409 1263 
L 409 3319 
L 972 3319 
L 972 1478 
Q 972 1038 1006 884 
Q 1059 663 1231 536 
Q 1403 409 1656 409 
Q 1909 409 2131 539 
Q 2353 669 2445 892 
Q 2538 1116 2538 1541 
L 2538 3319 
L 3100 3319 
L 3100 0 
L 2597 0 
z
" transform="scale(0.015625)"/>
       <path id="ArialMT-6e" d="M 422 0 
L 422 3319 
L 928 3319 
L 928 2847 
Q 1294 3394 1984 3394 
Q 2284 3394 2536 3286 
Q 2788 3178 2913 3003 
Q 3038 2828 3088 2588 
Q 3119 2431 3119 2041 
L 3119 0 
L 2556 0 
L 2556 2019 
Q 2556 2363 2490 2533 
Q 2425 2703 2258 2804 
Q 2091 2906 1866 2906 
Q 1506 2906 1245 2678 
Q 984 2450 984 1813 
L 984 0 
L 422 0 
z
" transform="scale(0.015625)"/>
       <path id="ArialMT-63" d="M 2588 1216 
L 3141 1144 
Q 3050 572 2676 248 
Q 2303 -75 1759 -75 
Q 1078 -75 664 370 
Q 250 816 250 1647 
Q 250 2184 428 2587 
Q 606 2991 970 3192 
Q 1334 3394 1763 3394 
Q 2303 3394 2647 3120 
Q 2991 2847 3088 2344 
L 2541 2259 
Q 2463 2594 2264 2762 
Q 2066 2931 1784 2931 
Q 1359 2931 1093 2626 
Q 828 2322 828 1663 
Q 828 994 1084 691 
Q 1341 388 1753 388 
Q 2084 388 2306 591 
Q 2528 794 2588 1216 
z
" transform="scale(0.015625)"/>
       <path id="ArialMT-20" transform="scale(0.015625)"/>
       <path id="ArialMT-4c" d="M 469 0 
L 469 4581 
L 1075 4581 
L 1075 541 
L 3331 541 
L 3331 0 
L 469 0 
z
" transform="scale(0.015625)"/>
       <path id="ArialMT-67" d="M 319 -275 
L 866 -356 
Q 900 -609 1056 -725 
Q 1266 -881 1628 -881 
Q 2019 -881 2231 -725 
Q 2444 -569 2519 -288 
Q 2563 -116 2559 434 
Q 2191 0 1641 0 
Q 956 0 581 494 
Q 206 988 206 1678 
Q 206 2153 378 2554 
Q 550 2956 876 3175 
Q 1203 3394 1644 3394 
Q 2231 3394 2613 2919 
L 2613 3319 
L 3131 3319 
L 3131 450 
Q 3131 -325 2973 -648 
Q 2816 -972 2473 -1159 
Q 2131 -1347 1631 -1347 
Q 1038 -1347 672 -1080 
Q 306 -813 319 -275 
z
M 784 1719 
Q 784 1066 1043 766 
Q 1303 466 1694 466 
Q 2081 466 2343 764 
Q 2606 1063 2606 1700 
Q 2606 2309 2336 2618 
Q 2066 2928 1684 2928 
Q 1309 2928 1046 2623 
Q 784 2319 784 1719 
z
" transform="scale(0.015625)"/>
       <path id="ArialMT-74" d="M 1650 503 
L 1731 6 
Q 1494 -44 1306 -44 
Q 1000 -44 831 53 
Q 663 150 594 308 
Q 525 466 525 972 
L 525 2881 
L 113 2881 
L 113 3319 
L 525 3319 
L 525 4141 
L 1084 4478 
L 1084 3319 
L 1650 3319 
L 1650 2881 
L 1084 2881 
L 1084 941 
Q 1084 700 1114 631 
Q 1144 563 1211 522 
Q 1278 481 1403 481 
Q 1497 481 1650 503 
z
" transform="scale(0.015625)"/>
       <path id="ArialMT-68" d="M 422 0 
L 422 4581 
L 984 4581 
L 984 2938 
Q 1378 3394 1978 3394 
Q 2347 3394 2619 3248 
Q 2891 3103 3008 2847 
Q 3125 2591 3125 2103 
L 3125 0 
L 2563 0 
L 2563 2103 
Q 2563 2525 2380 2717 
Q 2197 2909 1863 2909 
Q 1613 2909 1392 2779 
Q 1172 2650 1078 2428 
Q 984 2206 984 1816 
L 984 0 
L 422 0 
z
" transform="scale(0.015625)"/>
      </defs>
      <use xlink:href="#ArialMT-53"/>
      <use xlink:href="#ArialMT-65" transform="translate(66.699219 0)"/>
      <use xlink:href="#ArialMT-71" transform="translate(122.314453 0)"/>
      <use xlink:href="#ArialMT-75" transform="translate(177.929688 0)"/>
      <use xlink:href="#ArialMT-65" transform="translate(233.544922 0)"/>
      <use xlink:href="#ArialMT-6e" transform="translate(289.160156 0)"/>
      <use xlink:href="#ArialMT-63" transform="translate(344.775391 0)"/>
      <use xlink:href="#ArialMT-65" transform="translate(394.775391 0)"/>
      <use xlink:href="#ArialMT-20" transform="translate(450.390625 0)"/>
      <use xlink:href="#ArialMT-4c" transform="translate(478.173828 0)"/>
      <use xlink:href="#ArialMT-65" transform="translate(533.789062 0)"/>
      <use xlink:href="#ArialMT-6e" transform="translate(589.404297 0)"/>
      <use xlink:href="#ArialMT-67" transform="translate(645.019531 0)"/>
      <use xlink:href="#ArialMT-74" transform="translate(700.634766 0)"/>
      <use xlink:href="#ArialMT-68" transform="translate(728.417969 0)"/>
     </g>
    </g>
   </g>
   <g id="matplotlib.axis_2">
    <g id="ytick_1">
     <g id="line2d_6">
      <path d="M 56.025 308.717538 
L 448.859213 308.717538 
" clip-path="url(#pbba5e37d73)" style="fill: none; stroke: #cccccc; stroke-linecap: round"/>
     </g>
     <g id="text_7">
      <!-- 0 -->
      <g style="fill: #262626" transform="translate(40.407969 312.654335) scale(0.11 -0.11)">
       <use xlink:href="#ArialMT-30"/>
      </g>
     </g>
    </g>
    <g id="ytick_2">
     <g id="line2d_7">
      <path d="M 56.025 255.17134 
L 448.859213 255.17134 
" clip-path="url(#pbba5e37d73)" style="fill: none; stroke: #cccccc; stroke-linecap: round"/>
     </g>
     <g id="text_8">
      <!-- 20 -->
      <g style="fill: #262626" transform="translate(34.290938 259.108137) scale(0.11 -0.11)">
       <use xlink:href="#ArialMT-32"/>
       <use xlink:href="#ArialMT-30" transform="translate(55.615234 0)"/>
      </g>
     </g>
    </g>
    <g id="ytick_3">
     <g id="line2d_8">
      <path d="M 56.025 201.625143 
L 448.859213 201.625143 
" clip-path="url(#pbba5e37d73)" style="fill: none; stroke: #cccccc; stroke-linecap: round"/>
     </g>
     <g id="text_9">
      <!-- 40 -->
      <g style="fill: #262626" transform="translate(34.290938 205.56194) scale(0.11 -0.11)">
       <use xlink:href="#ArialMT-34"/>
       <use xlink:href="#ArialMT-30" transform="translate(55.615234 0)"/>
      </g>
     </g>
    </g>
    <g id="ytick_4">
     <g id="line2d_9">
      <path d="M 56.025 148.078945 
L 448.859213 148.078945 
" clip-path="url(#pbba5e37d73)" style="fill: none; stroke: #cccccc; stroke-linecap: round"/>
     </g>
     <g id="text_10">
      <!-- 60 -->
      <g style="fill: #262626" transform="translate(34.290938 152.015742) scale(0.11 -0.11)">
       <use xlink:href="#ArialMT-36"/>
       <use xlink:href="#ArialMT-30" transform="translate(55.615234 0)"/>
      </g>
     </g>
    </g>
    <g id="ytick_5">
     <g id="line2d_10">
      <path d="M 56.025 94.532747 
L 448.859213 94.532747 
" clip-path="url(#pbba5e37d73)" style="fill: none; stroke: #cccccc; stroke-linecap: round"/>
     </g>
     <g id="text_11">
      <!-- 80 -->
      <g style="fill: #262626" transform="translate(34.290938 98.469544) scale(0.11 -0.11)">
       <use xlink:href="#ArialMT-38"/>
       <use xlink:href="#ArialMT-30" transform="translate(55.615234 0)"/>
      </g>
     </g>
    </g>
    <g id="ytick_6">
     <g id="line2d_11">
      <path d="M 56.025 40.986549 
L 448.859213 40.986549 
" clip-path="url(#pbba5e37d73)" style="fill: none; stroke: #cccccc; stroke-linecap: round"/>
     </g>
     <g id="text_12">
      <!-- 100 -->
      <g style="fill: #262626" transform="translate(28.173906 44.923346) scale(0.11 -0.11)">
       <use xlink:href="#ArialMT-31"/>
       <use xlink:href="#ArialMT-30" transform="translate(55.615234 0)"/>
       <use xlink:href="#ArialMT-30" transform="translate(111.230469 0)"/>
      </g>
     </g>
    </g>
    <g id="text_13">
     <!-- Accuracy (%) -->
     <g style="fill: #262626" transform="translate(21.648281 210.522981) rotate(-90) scale(0.12 -0.12)">
      <defs>
       <path id="ArialMT-41" d="M -9 0 
L 1750 4581 
L 2403 4581 
L 4278 0 
L 3588 0 
L 3053 1388 
L 1138 1388 
L 634 0 
L -9 0 
z
M 1313 1881 
L 2866 1881 
L 2388 3150 
Q 2169 3728 2063 4100 
Q 1975 3659 1816 3225 
L 1313 1881 
z
" transform="scale(0.015625)"/>
       <path id="ArialMT-72" d="M 416 0 
L 416 3319 
L 922 3319 
L 922 2816 
Q 1116 3169 1280 3281 
Q 1444 3394 1641 3394 
Q 1925 3394 2219 3213 
L 2025 2691 
Q 1819 2813 1613 2813 
Q 1428 2813 1281 2702 
Q 1134 2591 1072 2394 
Q 978 2094 978 1738 
L 978 0 
L 416 0 
z
" transform="scale(0.015625)"/>
       <path id="ArialMT-61" d="M 2588 409 
Q 2275 144 1986 34 
Q 1697 -75 1366 -75 
Q 819 -75 525 192 
Q 231 459 231 875 
Q 231 1119 342 1320 
Q 453 1522 633 1644 
Q 813 1766 1038 1828 
Q 1203 1872 1538 1913 
Q 2219 1994 2541 2106 
Q 2544 2222 2544 2253 
Q 2544 2597 2384 2738 
Q 2169 2928 1744 2928 
Q 1347 2928 1158 2789 
Q 969 2650 878 2297 
L 328 2372 
Q 403 2725 575 2942 
Q 747 3159 1072 3276 
Q 1397 3394 1825 3394 
Q 2250 3394 2515 3294 
Q 2781 3194 2906 3042 
Q 3031 2891 3081 2659 
Q 3109 2516 3109 2141 
L 3109 1391 
Q 3109 606 3145 398 
Q 3181 191 3288 0 
L 2700 0 
Q 2613 175 2588 409 
z
M 2541 1666 
Q 2234 1541 1622 1453 
Q 1275 1403 1131 1340 
Q 988 1278 909 1158 
Q 831 1038 831 891 
Q 831 666 1001 516 
Q 1172 366 1500 366 
Q 1825 366 2078 508 
Q 2331 650 2450 897 
Q 2541 1088 2541 1459 
L 2541 1666 
z
" transform="scale(0.015625)"/>
       <path id="ArialMT-79" d="M 397 -1278 
L 334 -750 
Q 519 -800 656 -800 
Q 844 -800 956 -737 
Q 1069 -675 1141 -563 
Q 1194 -478 1313 -144 
Q 1328 -97 1363 -6 
L 103 3319 
L 709 3319 
L 1400 1397 
Q 1534 1031 1641 628 
Q 1738 1016 1872 1384 
L 2581 3319 
L 3144 3319 
L 1881 -56 
Q 1678 -603 1566 -809 
Q 1416 -1088 1222 -1217 
Q 1028 -1347 759 -1347 
Q 597 -1347 397 -1278 
z
" transform="scale(0.015625)"/>
       <path id="ArialMT-28" d="M 1497 -1347 
Q 1031 -759 709 28 
Q 388 816 388 1659 
Q 388 2403 628 3084 
Q 909 3875 1497 4659 
L 1900 4659 
Q 1522 4009 1400 3731 
Q 1209 3300 1100 2831 
Q 966 2247 966 1656 
Q 966 153 1900 -1347 
L 1497 -1347 
z
" transform="scale(0.015625)"/>
       <path id="ArialMT-25" d="M 372 3481 
Q 372 3972 619 4315 
Q 866 4659 1334 4659 
Q 1766 4659 2048 4351 
Q 2331 4044 2331 3447 
Q 2331 2866 2045 2552 
Q 1759 2238 1341 2238 
Q 925 2238 648 2547 
Q 372 2856 372 3481 
z
M 1350 4272 
Q 1141 4272 1002 4090 
Q 863 3909 863 3425 
Q 863 2984 1003 2804 
Q 1144 2625 1350 2625 
Q 1563 2625 1702 2806 
Q 1841 2988 1841 3469 
Q 1841 3913 1700 4092 
Q 1559 4272 1350 4272 
z
M 1353 -169 
L 3859 4659 
L 4316 4659 
L 1819 -169 
L 1353 -169 
z
M 3334 1075 
Q 3334 1569 3581 1911 
Q 3828 2253 4300 2253 
Q 4731 2253 5014 1945 
Q 5297 1638 5297 1041 
Q 5297 459 5011 145 
Q 4725 -169 4303 -169 
Q 3888 -169 3611 142 
Q 3334 453 3334 1075 
z
M 4316 1866 
Q 4103 1866 3964 1684 
Q 3825 1503 3825 1019 
Q 3825 581 3965 400 
Q 4106 219 4313 219 
Q 4528 219 4667 400 
Q 4806 581 4806 1063 
Q 4806 1506 4665 1686 
Q 4525 1866 4316 1866 
z
" transform="scale(0.015625)"/>
       <path id="ArialMT-29" d="M 791 -1347 
L 388 -1347 
Q 1322 153 1322 1656 
Q 1322 2244 1188 2822 
Q 1081 3291 891 3722 
Q 769 4003 388 4659 
L 791 4659 
Q 1378 3875 1659 3084 
Q 1900 2403 1900 1659 
Q 1900 816 1576 28 
Q 1253 -759 791 -1347 
z
" transform="scale(0.015625)"/>
      </defs>
      <use xlink:href="#ArialMT-41"/>
      <use xlink:href="#ArialMT-63" transform="translate(66.699219 0)"/>
      <use xlink:href="#ArialMT-63" transform="translate(116.699219 0)"/>
      <use xlink:href="#ArialMT-75" transform="translate(166.699219 0)"/>
      <use xlink:href="#ArialMT-72" transform="translate(222.314453 0)"/>
      <use xlink:href="#ArialMT-61" transform="translate(255.615234 0)"/>
      <use xlink:href="#ArialMT-63" transform="translate(311.230469 0)"/>
      <use xlink:href="#ArialMT-79" transform="translate(361.230469 0)"/>
      <use xlink:href="#ArialMT-20" transform="translate(411.230469 0)"/>
      <use xlink:href="#ArialMT-28" transform="translate(439.013672 0)"/>
      <use xlink:href="#ArialMT-25" transform="translate(472.314453 0)"/>
      <use xlink:href="#ArialMT-29" transform="translate(561.230469 0)"/>
     </g>
    </g>
   </g>
   <g id="line2d_12">
    <path d="M 73.881101 40.986549 
L 97.689235 41.522011 
L 145.305503 149.149869 
L 240.538039 238.572019 
L 431.003112 277.660744 
" clip-path="url(#pbba5e37d73)" style="fill: none; stroke: #4c72b0; stroke-width: 2; stroke-linecap: round"/>
    <defs>
     <path id="m153196346c" d="M 0 3 
C 0.795609 3 1.55874 2.683901 2.12132 2.12132 
C 2.683901 1.55874 3 0.795609 3 0 
C 3 -0.795609 2.683901 -1.55874 2.12132 -2.12132 
C 1.55874 -2.683901 0.795609 -3 0 -3 
C -0.795609 -3 -1.55874 -2.683901 -2.12132 -2.12132 
C -2.683901 -1.55874 -3 -0.795609 -3 0 
C -3 0.795609 -2.683901 1.55874 -2.12132 2.12132 
C -1.55874 2.683901 -0.795609 3 0 3 
z
" style="stroke: #4c72b0"/>
    </defs>
    <g clip-path="url(#pbba5e37d73)">
     <use xlink:href="#m153196346c" x="73.881101" y="40.986549" style="fill: #4c72b0; stroke: #4c72b0"/>
     <use xlink:href="#m153196346c" x="97.689235" y="41.522011" style="fill: #4c72b0; stroke: #4c72b0"/>
     <use xlink:href="#m153196346c" x="145.305503" y="149.149869" style="fill: #4c72b0; stroke: #4c72b0"/>
     <use xlink:href="#m153196346c" x="240.538039" y="238.572019" style="fill: #4c72b0; stroke: #4c72b0"/>
     <use xlink:href="#m153196346c" x="431.003112" y="277.660744" style="fill: #4c72b0; stroke: #4c72b0"/>
    </g>
   </g>
   <g id="line2d_13">
    <path d="M 73.881101 40.986549 
L 97.689235 40.986549 
L 145.305503 111.132069 
L 240.538039 220.366312 
L 431.003112 268.022428 
" clip-path="url(#pbba5e37d73)" style="fill: none; stroke: #dd8452; stroke-width: 2; stroke-linecap: round"/>
    <defs>
     <path id="m5792bc08ce" d="M 0 3 
C 0.795609 3 1.55874 2.683901 2.12132 2.12132 
C 2.683901 1.55874 3 0.795609 3 0 
C 3 -0.795609 2.683901 -1.55874 2.12132 -2.12132 
C 1.55874 -2.683901 0.795609 -3 0 -3 
C -0.795609 -3 -1.55874 -2.683901 -2.12132 -2.12132 
C -2.683901 -1.55874 -3 -0.795609 -3 0 
C -3 0.795609 -2.683901 1.55874 -2.12132 2.12132 
C -1.55874 2.683901 -0.795609 3 0 3 
z
" style="stroke: #dd8452"/>
    </defs>
    <g clip-path="url(#pbba5e37d73)">
     <use xlink:href="#m5792bc08ce" x="73.881101" y="40.986549" style="fill: #dd8452; stroke: #dd8452"/>
     <use xlink:href="#m5792bc08ce" x="97.689235" y="40.986549" style="fill: #dd8452; stroke: #dd8452"/>
     <use xlink:href="#m5792bc08ce" x="145.305503" y="111.132069" style="fill: #dd8452; stroke: #dd8452"/>
     <use xlink:href="#m5792bc08ce" x="240.538039" y="220.366312" style="fill: #dd8452; stroke: #dd8452"/>
     <use xlink:href="#m5792bc08ce" x="431.003112" y="268.022428" style="fill: #dd8452; stroke: #dd8452"/>
    </g>
   </g>
   <g id="line2d_14">
    <path d="M 73.881101 40.986549 
L 97.689235 48.483017 
L 145.305503 160.39457 
L 240.538039 266.951504 
L 431.003112 298.008299 
" clip-path="url(#pbba5e37d73)" style="fill: none; stroke: #55a868; stroke-width: 2; stroke-linecap: round"/>
    <defs>
     <path id="me3889960c6" d="M 0 3 
C 0.795609 3 1.55874 2.683901 2.12132 2.12132 
C 2.683901 1.55874 3 0.795609 3 0 
C 3 -0.795609 2.683901 -1.55874 2.12132 -2.12132 
C 1.55874 -2.683901 0.795609 -3 0 -3 
C -0.795609 -3 -1.55874 -2.683901 -2.12132 -2.12132 
C -2.683901 -1.55874 -3 -0.795609 -3 0 
C -3 0.795609 -2.683901 1.55874 -2.12132 2.12132 
C -1.55874 2.683901 -0.795609 3 0 3 
z
" style="stroke: #55a868"/>
    </defs>
    <g clip-path="url(#pbba5e37d73)">
     <use xlink:href="#me3889960c6" x="73.881101" y="40.986549" style="fill: #55a868; stroke: #55a868"/>
     <use xlink:href="#me3889960c6" x="97.689235" y="48.483017" style="fill: #55a868; stroke: #55a868"/>
     <use xlink:href="#me3889960c6" x="145.305503" y="160.39457" style="fill: #55a868; stroke: #55a868"/>
     <use xlink:href="#me3889960c6" x="240.538039" y="266.951504" style="fill: #55a868; stroke: #55a868"/>
     <use xlink:href="#me3889960c6" x="431.003112" y="298.008299" style="fill: #55a868; stroke: #55a868"/>
    </g>
   </g>
   <g id="line2d_15">
    <path d="M 73.881101 40.986549 
L 97.689235 40.986549 
L 145.305503 40.986549 
L 240.538039 308.717538 
L 431.003112 308.717538 
" clip-path="url(#pbba5e37d73)" style="fill: none; stroke: #c44e52; stroke-width: 2; stroke-linecap: round"/>
    <defs>
     <path id="mabf5a0694b" d="M 0 3 
C 0.795609 3 1.55874 2.683901 2.12132 2.12132 
C 2.683901 1.55874 3 0.795609 3 0 
C 3 -0.795609 2.683901 -1.55874 2.12132 -2.12132 
C 1.55874 -2.683901 0.795609 -3 0 -3 
C -0.795609 -3 -1.55874 -2.683901 -2.12132 -2.12132 
C -2.683901 -1.55874 -3 -0.795609 -3 0 
C -3 0.795609 -2.683901 1.55874 -2.12132 2.12132 
C -1.55874 2.683901 -0.795609 3 0 3 
z
" style="stroke: #c44e52"/>
    </defs>
    <g clip-path="url(#pbba5e37d73)">
     <use xlink:href="#mabf5a0694b" x="73.881101" y="40.986549" style="fill: #c44e52; stroke: #c44e52"/>
     <use xlink:href="#mabf5a0694b" x="97.689235" y="40.986549" style="fill: #c44e52; stroke: #c44e52"/>
     <use xlink:href="#mabf5a0694b" x="145.305503" y="40.986549" style="fill: #c44e52; stroke: #c44e52"/>
     <use xlink:href="#mabf5a0694b" x="240.538039" y="308.717538" style="fill: #c44e52; stroke: #c44e52"/>
     <use xlink:href="#mabf5a0694b" x="431.003112" y="308.717538" style="fill: #c44e52; stroke: #c44e52"/>
    </g>
   </g>
   <g id="line2d_16">
    <path d="M 73.881101 40.986549 
L 97.689235 40.986549 
L 145.305503 129.337776 
L 240.538039 229.469166 
L 431.003112 274.983434 
" clip-path="url(#pbba5e37d73)" style="fill: none; stroke: #8172b3; stroke-width: 2; stroke-linecap: round"/>
    <defs>
     <path id="mbb113d9d40" d="M 0 3 
C 0.795609 3 1.55874 2.683901 2.12132 2.12132 
C 2.683901 1.55874 3 0.795609 3 0 
C 3 -0.795609 2.683901 -1.55874 2.12132 -2.12132 
C 1.55874 -2.683901 0.795609 -3 0 -3 
C -0.795609 -3 -1.55874 -2.683901 -2.12132 -2.12132 
C -2.683901 -1.55874 -3 -0.795609 -3 0 
C -3 0.795609 -2.683901 1.55874 -2.12132 2.12132 
C -1.55874 2.683901 -0.795609 3 0 3 
z
" style="stroke: #8172b3"/>
    </defs>
    <g clip-path="url(#pbba5e37d73)">
     <use xlink:href="#mbb113d9d40" x="73.881101" y="40.986549" style="fill: #8172b3; stroke: #8172b3"/>
     <use xlink:href="#mbb113d9d40" x="97.689235" y="40.986549" style="fill: #8172b3; stroke: #8172b3"/>
     <use xlink:href="#mbb113d9d40" x="145.305503" y="129.337776" style="fill: #8172b3; stroke: #8172b3"/>
     <use xlink:href="#mbb113d9d40" x="240.538039" y="229.469166" style="fill: #8172b3; stroke: #8172b3"/>
     <use xlink:href="#mbb113d9d40" x="431.003112" y="274.983434" style="fill: #8172b3; stroke: #8172b3"/>
    </g>
   </g>
   <g id="line2d_17">
    <path d="M 73.881101 40.986549 
L 97.689235 40.986549 
L 145.305503 40.986549 
L 240.538039 58.656795 
L 431.003112 127.73139 
" clip-path="url(#pbba5e37d73)" style="fill: none; stroke: #937860; stroke-width: 2; stroke-linecap: round"/>
    <defs>
     <path id="m1be640218e" d="M 0 3 
C 0.795609 3 1.55874 2.683901 2.12132 2.12132 
C 2.683901 1.55874 3 0.795609 3 0 
C 3 -0.795609 2.683901 -1.55874 2.12132 -2.12132 
C 1.55874 -2.683901 0.795609 -3 0 -3 
C -0.795609 -3 -1.55874 -2.683901 -2.12132 -2.12132 
C -2.683901 -1.55874 -3 -0.795609 -3 0 
C -3 0.795609 -2.683901 1.55874 -2.12132 2.12132 
C -1.55874 2.683901 -0.795609 3 0 3 
z
" style="stroke: #937860"/>
    </defs>
    <g clip-path="url(#pbba5e37d73)">
     <use xlink:href="#m1be640218e" x="73.881101" y="40.986549" style="fill: #937860; stroke: #937860"/>
     <use xlink:href="#m1be640218e" x="97.689235" y="40.986549" style="fill: #937860; stroke: #937860"/>
     <use xlink:href="#m1be640218e" x="145.305503" y="40.986549" style="fill: #937860; stroke: #937860"/>
     <use xlink:href="#m1be640218e" x="240.538039" y="58.656795" style="fill: #937860; stroke: #937860"/>
     <use xlink:href="#m1be640218e" x="431.003112" y="127.73139" style="fill: #937860; stroke: #937860"/>
    </g>
   </g>
   <g id="line2d_18">
    <path d="M 73.881101 40.986549 
L 97.689235 40.986549 
L 145.305503 40.986549 
L 240.538039 40.986549 
L 431.003112 41.522011 
" clip-path="url(#pbba5e37d73)" style="fill: none; stroke: #da8bc3; stroke-width: 2; stroke-linecap: round"/>
    <defs>
     <path id="m0ddf626d31" d="M 0 3 
C 0.795609 3 1.55874 2.683901 2.12132 2.12132 
C 2.683901 1.55874 3 0.795609 3 0 
C 3 -0.795609 2.683901 -1.55874 2.12132 -2.12132 
C 1.55874 -2.683901 0.795609 -3 0 -3 
C -0.795609 -3 -1.55874 -2.683901 -2.12132 -2.12132 
C -2.683901 -1.55874 -3 -0.795609 -3 0 
C -3 0.795609 -2.683901 1.55874 -2.12132 2.12132 
C -1.55874 2.683901 -0.795609 3 0 3 
z
" style="stroke: #da8bc3"/>
    </defs>
    <g clip-path="url(#pbba5e37d73)">
     <use xlink:href="#m0ddf626d31" x="73.881101" y="40.986549" style="fill: #da8bc3; stroke: #da8bc3"/>
     <use xlink:href="#m0ddf626d31" x="97.689235" y="40.986549" style="fill: #da8bc3; stroke: #da8bc3"/>
     <use xlink:href="#m0ddf626d31" x="145.305503" y="40.986549" style="fill: #da8bc3; stroke: #da8bc3"/>
     <use xlink:href="#m0ddf626d31" x="240.538039" y="40.986549" style="fill: #da8bc3; stroke: #da8bc3"/>
     <use xlink:href="#m0ddf626d31" x="431.003112" y="41.522011" style="fill: #da8bc3; stroke: #da8bc3"/>
    </g>
   </g>
   <g id="line2d_19">
    <path d="M 73.881101 40.986549 
L 97.689235 41.522011 
L 145.305503 45.805707 
L 240.538039 215.011692 
L 431.003112 274.983434 
" clip-path="url(#pbba5e37d73)" style="fill: none; stroke: #8c8c8c; stroke-width: 2; stroke-linecap: round"/>
    <defs>
     <path id="m643fe7fd39" d="M 0 3 
C 0.795609 3 1.55874 2.683901 2.12132 2.12132 
C 2.683901 1.55874 3 0.795609 3 0 
C 3 -0.795609 2.683901 -1.55874 2.12132 -2.12132 
C 1.55874 -2.683901 0.795609 -3 0 -3 
C -0.795609 -3 -1.55874 -2.683901 -2.12132 -2.12132 
C -2.683901 -1.55874 -3 -0.795609 -3 0 
C -3 0.795609 -2.683901 1.55874 -2.12132 2.12132 
C -1.55874 2.683901 -0.795609 3 0 3 
z
" style="stroke: #8c8c8c"/>
    </defs>
    <g clip-path="url(#pbba5e37d73)">
     <use xlink:href="#m643fe7fd39" x="73.881101" y="40.986549" style="fill: #8c8c8c; stroke: #8c8c8c"/>
     <use xlink:href="#m643fe7fd39" x="97.689235" y="41.522011" style="fill: #8c8c8c; stroke: #8c8c8c"/>
     <use xlink:href="#m643fe7fd39" x="145.305503" y="45.805707" style="fill: #8c8c8c; stroke: #8c8c8c"/>
     <use xlink:href="#m643fe7fd39" x="240.538039" y="215.011692" style="fill: #8c8c8c; stroke: #8c8c8c"/>
     <use xlink:href="#m643fe7fd39" x="431.003112" y="274.983434" style="fill: #8c8c8c; stroke: #8c8c8c"/>
    </g>
   </g>
   <g id="line2d_20">
    <path d="M 145.305503 322.104088 
L 145.305503 27.6 
" clip-path="url(#pbba5e37d73)" style="fill: none; stroke-dasharray: 5.55,2.4; stroke-dashoffset: 0; stroke: #000000; stroke-opacity: 0.8; stroke-width: 1.5"/>
   </g>
   <g id="patch_3">
    <path d="M 56.025 322.104088 
L 56.025 27.6 
" style="fill: none; stroke: #cccccc; stroke-width: 1.25; stroke-linejoin: miter; stroke-linecap: square"/>
   </g>
   <g id="patch_4">
    <path d="M 448.859213 322.104088 
L 448.859213 27.6 
" style="fill: none; stroke: #cccccc; stroke-width: 1.25; stroke-linejoin: miter; stroke-linecap: square"/>
   </g>
   <g id="patch_5">
    <path d="M 56.025 322.104088 
L 448.859213 322.104088 
" style="fill: none; stroke: #cccccc; stroke-width: 1.25; stroke-linejoin: miter; stroke-linecap: square"/>
   </g>
   <g id="patch_6">
    <path d="M 56.025 27.6 
L 448.859213 27.6 
" style="fill: none; stroke: #cccccc; stroke-width: 1.25; stroke-linejoin: miter; stroke-linecap: square"/>
   </g>
   <g id="text_14">
    <!-- S-NIAH-1 -->
    <g style="fill: #262626" transform="translate(226.772419 21.6) scale(0.12 -0.12)">
     <defs>
      <path id="ArialMT-2d" d="M 203 1375 
L 203 1941 
L 1931 1941 
L 1931 1375 
L 203 1375 
z
" transform="scale(0.015625)"/>
      <path id="ArialMT-4e" d="M 488 0 
L 488 4581 
L 1109 4581 
L 3516 984 
L 3516 4581 
L 4097 4581 
L 4097 0 
L 3475 0 
L 1069 3600 
L 1069 0 
L 488 0 
z
" transform="scale(0.015625)"/>
      <path id="ArialMT-49" d="M 597 0 
L 597 4581 
L 1203 4581 
L 1203 0 
L 597 0 
z
" transform="scale(0.015625)"/>
      <path id="ArialMT-48" d="M 513 0 
L 513 4581 
L 1119 4581 
L 1119 2700 
L 3500 2700 
L 3500 4581 
L 4106 4581 
L 4106 0 
L 3500 0 
L 3500 2159 
L 1119 2159 
L 1119 0 
L 513 0 
z
" transform="scale(0.015625)"/>
     </defs>
     <use xlink:href="#ArialMT-53"/>
     <use xlink:href="#ArialMT-2d" transform="translate(66.699219 0)"/>
     <use xlink:href="#ArialMT-4e" transform="translate(100 0)"/>
     <use xlink:href="#ArialMT-49" transform="translate(172.216797 0)"/>
     <use xlink:href="#ArialMT-41" transform="translate(200 0)"/>
     <use xlink:href="#ArialMT-48" transform="translate(266.699219 0)"/>
     <use xlink:href="#ArialMT-2d" transform="translate(338.916016 0)"/>
     <use xlink:href="#ArialMT-31" transform="translate(372.216797 0)"/>
    </g>
   </g>
  </g>
  <g id="axes_2">
   <g id="patch_7">
    <path d="M 473.115394 322.104088 
L 865.949606 322.104088 
L 865.949606 27.6 
L 473.115394 27.6 
z
" style="fill: #ffffff"/>
   </g>
   <g id="matplotlib.axis_3">
    <g id="xtick_6">
     <g id="line2d_21">
      <path d="M 490.971494 322.104088 
L 490.971494 27.6 
" clip-path="url(#pdee9624735)" style="fill: none; stroke: #cccccc; stroke-linecap: round"/>
     </g>
     <g id="text_15">
      <!-- 1024 -->
      <g style="fill: #262626" transform="translate(472.124005 354.473136) rotate(-45) scale(0.11 -0.11)">
       <use xlink:href="#ArialMT-31"/>
       <use xlink:href="#ArialMT-30" transform="translate(55.615234 0)"/>
       <use xlink:href="#ArialMT-32" transform="translate(111.230469 0)"/>
       <use xlink:href="#ArialMT-34" transform="translate(166.845703 0)"/>
      </g>
     </g>
    </g>
    <g id="xtick_7">
     <g id="line2d_22">
      <path d="M 514.779628 322.104088 
L 514.779628 27.6 
" clip-path="url(#pdee9624735)" style="fill: none; stroke: #cccccc; stroke-linecap: round"/>
     </g>
     <g id="text_16">
      <!-- 2048 -->
      <g style="fill: #262626" transform="translate(495.932139 354.473136) rotate(-45) scale(0.11 -0.11)">
       <use xlink:href="#ArialMT-32"/>
       <use xlink:href="#ArialMT-30" transform="translate(55.615234 0)"/>
       <use xlink:href="#ArialMT-34" transform="translate(111.230469 0)"/>
       <use xlink:href="#ArialMT-38" transform="translate(166.845703 0)"/>
      </g>
     </g>
    </g>
    <g id="xtick_8">
     <g id="line2d_23">
      <path d="M 562.395897 322.104088 
L 562.395897 27.6 
" clip-path="url(#pdee9624735)" style="fill: none; stroke: #cccccc; stroke-linecap: round"/>
     </g>
     <g id="text_17">
      <!-- 4096 -->
      <g style="fill: #262626" transform="translate(543.548407 354.473136) rotate(-45) scale(0.11 -0.11)">
       <use xlink:href="#ArialMT-34"/>
       <use xlink:href="#ArialMT-30" transform="translate(55.615234 0)"/>
       <use xlink:href="#ArialMT-39" transform="translate(111.230469 0)"/>
       <use xlink:href="#ArialMT-36" transform="translate(166.845703 0)"/>
      </g>
     </g>
    </g>
    <g id="xtick_9">
     <g id="line2d_24">
      <path d="M 657.628433 322.104088 
L 657.628433 27.6 
" clip-path="url(#pdee9624735)" style="fill: none; stroke: #cccccc; stroke-linecap: round"/>
     </g>
     <g id="text_18">
      <!-- 8192 -->
      <g style="fill: #262626" transform="translate(638.780944 354.473136) rotate(-45) scale(0.11 -0.11)">
       <use xlink:href="#ArialMT-38"/>
       <use xlink:href="#ArialMT-31" transform="translate(55.615234 0)"/>
       <use xlink:href="#ArialMT-39" transform="translate(111.230469 0)"/>
       <use xlink:href="#ArialMT-32" transform="translate(166.845703 0)"/>
      </g>
     </g>
    </g>
    <g id="xtick_10">
     <g id="line2d_25">
      <path d="M 848.093506 322.104088 
L 848.093506 27.6 
" clip-path="url(#pdee9624735)" style="fill: none; stroke: #cccccc; stroke-linecap: round"/>
     </g>
     <g id="text_19">
      <!-- 16384 -->
      <g style="fill: #262626" transform="translate(824.920622 358.798531) rotate(-45) scale(0.11 -0.11)">
       <use xlink:href="#ArialMT-31"/>
       <use xlink:href="#ArialMT-36" transform="translate(55.615234 0)"/>
       <use xlink:href="#ArialMT-33" transform="translate(111.230469 0)"/>
       <use xlink:href="#ArialMT-38" transform="translate(166.845703 0)"/>
       <use xlink:href="#ArialMT-34" transform="translate(222.460938 0)"/>
      </g>
     </g>
    </g>
    <g id="text_20">
     <!-- Sequence Length -->
     <g style="fill: #262626" transform="translate(622.494375 373.080068) scale(0.12 -0.12)">
      <use xlink:href="#ArialMT-53"/>
      <use xlink:href="#ArialMT-65" transform="translate(66.699219 0)"/>
      <use xlink:href="#ArialMT-71" transform="translate(122.314453 0)"/>
      <use xlink:href="#ArialMT-75" transform="translate(177.929688 0)"/>
      <use xlink:href="#ArialMT-65" transform="translate(233.544922 0)"/>
      <use xlink:href="#ArialMT-6e" transform="translate(289.160156 0)"/>
      <use xlink:href="#ArialMT-63" transform="translate(344.775391 0)"/>
      <use xlink:href="#ArialMT-65" transform="translate(394.775391 0)"/>
      <use xlink:href="#ArialMT-20" transform="translate(450.390625 0)"/>
      <use xlink:href="#ArialMT-4c" transform="translate(478.173828 0)"/>
      <use xlink:href="#ArialMT-65" transform="translate(533.789062 0)"/>
      <use xlink:href="#ArialMT-6e" transform="translate(589.404297 0)"/>
      <use xlink:href="#ArialMT-67" transform="translate(645.019531 0)"/>
      <use xlink:href="#ArialMT-74" transform="translate(700.634766 0)"/>
      <use xlink:href="#ArialMT-68" transform="translate(728.417969 0)"/>
     </g>
    </g>
   </g>
   <g id="matplotlib.axis_4">
    <g id="ytick_7">
     <g id="line2d_26">
      <path d="M 473.115394 308.717538 
L 865.949606 308.717538 
" clip-path="url(#pdee9624735)" style="fill: none; stroke: #cccccc; stroke-linecap: round"/>
     </g>
    </g>
    <g id="ytick_8">
     <g id="line2d_27">
      <path d="M 473.115394 255.17134 
L 865.949606 255.17134 
" clip-path="url(#pdee9624735)" style="fill: none; stroke: #cccccc; stroke-linecap: round"/>
     </g>
    </g>
    <g id="ytick_9">
     <g id="line2d_28">
      <path d="M 473.115394 201.625143 
L 865.949606 201.625143 
" clip-path="url(#pdee9624735)" style="fill: none; stroke: #cccccc; stroke-linecap: round"/>
     </g>
    </g>
    <g id="ytick_10">
     <g id="line2d_29">
      <path d="M 473.115394 148.078945 
L 865.949606 148.078945 
" clip-path="url(#pdee9624735)" style="fill: none; stroke: #cccccc; stroke-linecap: round"/>
     </g>
    </g>
    <g id="ytick_11">
     <g id="line2d_30">
      <path d="M 473.115394 94.532747 
L 865.949606 94.532747 
" clip-path="url(#pdee9624735)" style="fill: none; stroke: #cccccc; stroke-linecap: round"/>
     </g>
    </g>
    <g id="ytick_12">
     <g id="line2d_31">
      <path d="M 473.115394 40.986549 
L 865.949606 40.986549 
" clip-path="url(#pdee9624735)" style="fill: none; stroke: #cccccc; stroke-linecap: round"/>
     </g>
    </g>
   </g>
   <g id="line2d_32">
    <path d="M 490.971494 40.986549 
L 514.779628 260.52596 
L 562.395897 238.036557 
L 657.628433 300.150147 
L 848.093506 293.189141 
" clip-path="url(#pdee9624735)" style="fill: none; stroke: #4c72b0; stroke-width: 2; stroke-linecap: round"/>
    <g clip-path="url(#pdee9624735)">
     <use xlink:href="#m153196346c" x="490.971494" y="40.986549" style="fill: #4c72b0; stroke: #4c72b0"/>
     <use xlink:href="#m153196346c" x="514.779628" y="260.52596" style="fill: #4c72b0; stroke: #4c72b0"/>
     <use xlink:href="#m153196346c" x="562.395897" y="238.036557" style="fill: #4c72b0; stroke: #4c72b0"/>
     <use xlink:href="#m153196346c" x="657.628433" y="300.150147" style="fill: #4c72b0; stroke: #4c72b0"/>
     <use xlink:href="#m153196346c" x="848.093506" y="293.189141" style="fill: #4c72b0; stroke: #4c72b0"/>
    </g>
   </g>
   <g id="line2d_33">
    <path d="M 490.971494 43.663859 
L 514.779628 52.766713 
L 562.395897 170.032886 
L 657.628433 296.401913 
L 848.093506 287.299059 
" clip-path="url(#pdee9624735)" style="fill: none; stroke: #dd8452; stroke-width: 2; stroke-linecap: round"/>
    <g clip-path="url(#pdee9624735)">
     <use xlink:href="#m5792bc08ce" x="490.971494" y="43.663859" style="fill: #dd8452; stroke: #dd8452"/>
     <use xlink:href="#m5792bc08ce" x="514.779628" y="52.766713" style="fill: #dd8452; stroke: #dd8452"/>
     <use xlink:href="#m5792bc08ce" x="562.395897" y="170.032886" style="fill: #dd8452; stroke: #dd8452"/>
     <use xlink:href="#m5792bc08ce" x="657.628433" y="296.401913" style="fill: #dd8452; stroke: #dd8452"/>
     <use xlink:href="#m5792bc08ce" x="848.093506" y="287.299059" style="fill: #dd8452; stroke: #dd8452"/>
    </g>
   </g>
   <g id="line2d_34">
    <path d="M 490.971494 40.986549 
L 514.779628 226.791856 
L 562.395897 220.901774 
L 657.628433 302.291995 
L 848.093506 295.866451 
" clip-path="url(#pdee9624735)" style="fill: none; stroke: #55a868; stroke-width: 2; stroke-linecap: round"/>
    <g clip-path="url(#pdee9624735)">
     <use xlink:href="#me3889960c6" x="490.971494" y="40.986549" style="fill: #55a868; stroke: #55a868"/>
     <use xlink:href="#me3889960c6" x="514.779628" y="226.791856" style="fill: #55a868; stroke: #55a868"/>
     <use xlink:href="#me3889960c6" x="562.395897" y="220.901774" style="fill: #55a868; stroke: #55a868"/>
     <use xlink:href="#me3889960c6" x="657.628433" y="302.291995" style="fill: #55a868; stroke: #55a868"/>
     <use xlink:href="#me3889960c6" x="848.093506" y="295.866451" style="fill: #55a868; stroke: #55a868"/>
    </g>
   </g>
   <g id="line2d_35">
    <path d="M 490.971494 40.986549 
L 514.779628 40.986549 
L 562.395897 103.100139 
L 657.628433 308.717538 
L 848.093506 308.717538 
" clip-path="url(#pdee9624735)" style="fill: none; stroke: #c44e52; stroke-width: 2; stroke-linecap: round"/>
    <g clip-path="url(#pdee9624735)">
     <use xlink:href="#mabf5a0694b" x="490.971494" y="40.986549" style="fill: #c44e52; stroke: #c44e52"/>
     <use xlink:href="#mabf5a0694b" x="514.779628" y="40.986549" style="fill: #c44e52; stroke: #c44e52"/>
     <use xlink:href="#mabf5a0694b" x="562.395897" y="103.100139" style="fill: #c44e52; stroke: #c44e52"/>
     <use xlink:href="#mabf5a0694b" x="657.628433" y="308.717538" style="fill: #c44e52; stroke: #c44e52"/>
     <use xlink:href="#mabf5a0694b" x="848.093506" y="308.717538" style="fill: #c44e52; stroke: #c44e52"/>
    </g>
   </g>
   <g id="line2d_36">
    <path d="M 490.971494 40.986549 
L 514.779628 40.986549 
L 562.395897 40.986549 
L 657.628433 293.189141 
L 848.093506 308.717538 
" clip-path="url(#pdee9624735)" style="fill: none; stroke: #8172b3; stroke-width: 2; stroke-linecap: round"/>
    <g clip-path="url(#pdee9624735)">
     <use xlink:href="#mbb113d9d40" x="490.971494" y="40.986549" style="fill: #8172b3; stroke: #8172b3"/>
     <use xlink:href="#mbb113d9d40" x="514.779628" y="40.986549" style="fill: #8172b3; stroke: #8172b3"/>
     <use xlink:href="#mbb113d9d40" x="562.395897" y="40.986549" style="fill: #8172b3; stroke: #8172b3"/>
     <use xlink:href="#mbb113d9d40" x="657.628433" y="293.189141" style="fill: #8172b3; stroke: #8172b3"/>
     <use xlink:href="#mbb113d9d40" x="848.093506" y="308.717538" style="fill: #8172b3; stroke: #8172b3"/>
    </g>
   </g>
   <g id="line2d_37">
    <path d="M 490.971494 40.986549 
L 514.779628 40.986549 
L 562.395897 40.986549 
L 657.628433 149.685331 
L 848.093506 308.717538 
" clip-path="url(#pdee9624735)" style="fill: none; stroke: #937860; stroke-width: 2; stroke-linecap: round"/>
    <g clip-path="url(#pdee9624735)">
     <use xlink:href="#m1be640218e" x="490.971494" y="40.986549" style="fill: #937860; stroke: #937860"/>
     <use xlink:href="#m1be640218e" x="514.779628" y="40.986549" style="fill: #937860; stroke: #937860"/>
     <use xlink:href="#m1be640218e" x="562.395897" y="40.986549" style="fill: #937860; stroke: #937860"/>
     <use xlink:href="#m1be640218e" x="657.628433" y="149.685331" style="fill: #937860; stroke: #937860"/>
     <use xlink:href="#m1be640218e" x="848.093506" y="308.717538" style="fill: #937860; stroke: #937860"/>
    </g>
   </g>
   <g id="line2d_38">
    <path d="M 490.971494 40.986549 
L 514.779628 41.522011 
L 562.395897 40.986549 
L 657.628433 169.497424 
L 848.093506 263.738732 
" clip-path="url(#pdee9624735)" style="fill: none; stroke: #da8bc3; stroke-width: 2; stroke-linecap: round"/>
    <g clip-path="url(#pdee9624735)">
     <use xlink:href="#m0ddf626d31" x="490.971494" y="40.986549" style="fill: #da8bc3; stroke: #da8bc3"/>
     <use xlink:href="#m0ddf626d31" x="514.779628" y="41.522011" style="fill: #da8bc3; stroke: #da8bc3"/>
     <use xlink:href="#m0ddf626d31" x="562.395897" y="40.986549" style="fill: #da8bc3; stroke: #da8bc3"/>
     <use xlink:href="#m0ddf626d31" x="657.628433" y="169.497424" style="fill: #da8bc3; stroke: #da8bc3"/>
     <use xlink:href="#m0ddf626d31" x="848.093506" y="263.738732" style="fill: #da8bc3; stroke: #da8bc3"/>
    </g>
   </g>
   <g id="line2d_39">
    <path d="M 490.971494 40.986549 
L 514.779628 40.986549 
L 562.395897 40.986549 
L 657.628433 152.362641 
L 848.093506 259.455036 
" clip-path="url(#pdee9624735)" style="fill: none; stroke: #8c8c8c; stroke-width: 2; stroke-linecap: round"/>
    <g clip-path="url(#pdee9624735)">
     <use xlink:href="#m643fe7fd39" x="490.971494" y="40.986549" style="fill: #8c8c8c; stroke: #8c8c8c"/>
     <use xlink:href="#m643fe7fd39" x="514.779628" y="40.986549" style="fill: #8c8c8c; stroke: #8c8c8c"/>
     <use xlink:href="#m643fe7fd39" x="562.395897" y="40.986549" style="fill: #8c8c8c; stroke: #8c8c8c"/>
     <use xlink:href="#m643fe7fd39" x="657.628433" y="152.362641" style="fill: #8c8c8c; stroke: #8c8c8c"/>
     <use xlink:href="#m643fe7fd39" x="848.093506" y="259.455036" style="fill: #8c8c8c; stroke: #8c8c8c"/>
    </g>
   </g>
   <g id="line2d_40">
    <path d="M 562.395897 322.104088 
L 562.395897 27.6 
" clip-path="url(#pdee9624735)" style="fill: none; stroke-dasharray: 5.55,2.4; stroke-dashoffset: 0; stroke: #000000; stroke-opacity: 0.8; stroke-width: 1.5"/>
   </g>
   <g id="patch_8">
    <path d="M 473.115394 322.104088 
L 473.115394 27.6 
" style="fill: none; stroke: #cccccc; stroke-width: 1.25; stroke-linejoin: miter; stroke-linecap: square"/>
   </g>
   <g id="patch_9">
    <path d="M 865.949606 322.104088 
L 865.949606 27.6 
" style="fill: none; stroke: #cccccc; stroke-width: 1.25; stroke-linejoin: miter; stroke-linecap: square"/>
   </g>
   <g id="patch_10">
    <path d="M 473.115394 322.104088 
L 865.949606 322.104088 
" style="fill: none; stroke: #cccccc; stroke-width: 1.25; stroke-linejoin: miter; stroke-linecap: square"/>
   </g>
   <g id="patch_11">
    <path d="M 473.115394 27.6 
L 865.949606 27.6 
" style="fill: none; stroke: #cccccc; stroke-width: 1.25; stroke-linejoin: miter; stroke-linecap: square"/>
   </g>
   <g id="text_21">
    <!-- S-NIAH-2 -->
    <g style="fill: #262626" transform="translate(643.862813 21.6) scale(0.12 -0.12)">
     <use xlink:href="#ArialMT-53"/>
     <use xlink:href="#ArialMT-2d" transform="translate(66.699219 0)"/>
     <use xlink:href="#ArialMT-4e" transform="translate(100 0)"/>
     <use xlink:href="#ArialMT-49" transform="translate(172.216797 0)"/>
     <use xlink:href="#ArialMT-41" transform="translate(200 0)"/>
     <use xlink:href="#ArialMT-48" transform="translate(266.699219 0)"/>
     <use xlink:href="#ArialMT-2d" transform="translate(338.916016 0)"/>
     <use xlink:href="#ArialMT-32" transform="translate(372.216797 0)"/>
    </g>
   </g>
  </g>
  <g id="axes_3">
   <g id="patch_12">
    <path d="M 890.205787 322.104088 
L 1283.04 322.104088 
L 1283.04 27.6 
L 890.205787 27.6 
z
" style="fill: #ffffff"/>
   </g>
   <g id="matplotlib.axis_5">
    <g id="xtick_11">
     <g id="line2d_41">
      <path d="M 908.061888 322.104088 
L 908.061888 27.6 
" clip-path="url(#pcd2fe6fe80)" style="fill: none; stroke: #cccccc; stroke-linecap: round"/>
     </g>
     <g id="text_22">
      <!-- 1024 -->
      <g style="fill: #262626" transform="translate(889.214399 354.473136) rotate(-45) scale(0.11 -0.11)">
       <use xlink:href="#ArialMT-31"/>
       <use xlink:href="#ArialMT-30" transform="translate(55.615234 0)"/>
       <use xlink:href="#ArialMT-32" transform="translate(111.230469 0)"/>
       <use xlink:href="#ArialMT-34" transform="translate(166.845703 0)"/>
      </g>
     </g>
    </g>
    <g id="xtick_12">
     <g id="line2d_42">
      <path d="M 931.870022 322.104088 
L 931.870022 27.6 
" clip-path="url(#pcd2fe6fe80)" style="fill: none; stroke: #cccccc; stroke-linecap: round"/>
     </g>
     <g id="text_23">
      <!-- 2048 -->
      <g style="fill: #262626" transform="translate(913.022533 354.473136) rotate(-45) scale(0.11 -0.11)">
       <use xlink:href="#ArialMT-32"/>
       <use xlink:href="#ArialMT-30" transform="translate(55.615234 0)"/>
       <use xlink:href="#ArialMT-34" transform="translate(111.230469 0)"/>
       <use xlink:href="#ArialMT-38" transform="translate(166.845703 0)"/>
      </g>
     </g>
    </g>
    <g id="xtick_13">
     <g id="line2d_43">
      <path d="M 979.48629 322.104088 
L 979.48629 27.6 
" clip-path="url(#pcd2fe6fe80)" style="fill: none; stroke: #cccccc; stroke-linecap: round"/>
     </g>
     <g id="text_24">
      <!-- 4096 -->
      <g style="fill: #262626" transform="translate(960.638801 354.473136) rotate(-45) scale(0.11 -0.11)">
       <use xlink:href="#ArialMT-34"/>
       <use xlink:href="#ArialMT-30" transform="translate(55.615234 0)"/>
       <use xlink:href="#ArialMT-39" transform="translate(111.230469 0)"/>
       <use xlink:href="#ArialMT-36" transform="translate(166.845703 0)"/>
      </g>
     </g>
    </g>
    <g id="xtick_14">
     <g id="line2d_44">
      <path d="M 1074.718827 322.104088 
L 1074.718827 27.6 
" clip-path="url(#pcd2fe6fe80)" style="fill: none; stroke: #cccccc; stroke-linecap: round"/>
     </g>
     <g id="text_25">
      <!-- 8192 -->
      <g style="fill: #262626" transform="translate(1055.871337 354.473136) rotate(-45) scale(0.11 -0.11)">
       <use xlink:href="#ArialMT-38"/>
       <use xlink:href="#ArialMT-31" transform="translate(55.615234 0)"/>
       <use xlink:href="#ArialMT-39" transform="translate(111.230469 0)"/>
       <use xlink:href="#ArialMT-32" transform="translate(166.845703 0)"/>
      </g>
     </g>
    </g>
    <g id="xtick_15">
     <g id="line2d_45">
      <path d="M 1265.183899 322.104088 
L 1265.183899 27.6 
" clip-path="url(#pcd2fe6fe80)" style="fill: none; stroke: #cccccc; stroke-linecap: round"/>
     </g>
     <g id="text_26">
      <!-- 16384 -->
      <g style="fill: #262626" transform="translate(1242.011016 358.798531) rotate(-45) scale(0.11 -0.11)">
       <use xlink:href="#ArialMT-31"/>
       <use xlink:href="#ArialMT-36" transform="translate(55.615234 0)"/>
       <use xlink:href="#ArialMT-33" transform="translate(111.230469 0)"/>
       <use xlink:href="#ArialMT-38" transform="translate(166.845703 0)"/>
       <use xlink:href="#ArialMT-34" transform="translate(222.460938 0)"/>
      </g>
     </g>
    </g>
    <g id="text_27">
     <!-- Sequence Length -->
     <g style="fill: #262626" transform="translate(1039.584769 373.080068) scale(0.12 -0.12)">
      <use xlink:href="#ArialMT-53"/>
      <use xlink:href="#ArialMT-65" transform="translate(66.699219 0)"/>
      <use xlink:href="#ArialMT-71" transform="translate(122.314453 0)"/>
      <use xlink:href="#ArialMT-75" transform="translate(177.929688 0)"/>
      <use xlink:href="#ArialMT-65" transform="translate(233.544922 0)"/>
      <use xlink:href="#ArialMT-6e" transform="translate(289.160156 0)"/>
      <use xlink:href="#ArialMT-63" transform="translate(344.775391 0)"/>
      <use xlink:href="#ArialMT-65" transform="translate(394.775391 0)"/>
      <use xlink:href="#ArialMT-20" transform="translate(450.390625 0)"/>
      <use xlink:href="#ArialMT-4c" transform="translate(478.173828 0)"/>
      <use xlink:href="#ArialMT-65" transform="translate(533.789062 0)"/>
      <use xlink:href="#ArialMT-6e" transform="translate(589.404297 0)"/>
      <use xlink:href="#ArialMT-67" transform="translate(645.019531 0)"/>
      <use xlink:href="#ArialMT-74" transform="translate(700.634766 0)"/>
      <use xlink:href="#ArialMT-68" transform="translate(728.417969 0)"/>
     </g>
    </g>
   </g>
   <g id="matplotlib.axis_6">
    <g id="ytick_13">
     <g id="line2d_46">
      <path d="M 890.205787 308.717538 
L 1283.04 308.717538 
" clip-path="url(#pcd2fe6fe80)" style="fill: none; stroke: #cccccc; stroke-linecap: round"/>
     </g>
    </g>
    <g id="ytick_14">
     <g id="line2d_47">
      <path d="M 890.205787 255.17134 
L 1283.04 255.17134 
" clip-path="url(#pcd2fe6fe80)" style="fill: none; stroke: #cccccc; stroke-linecap: round"/>
     </g>
    </g>
    <g id="ytick_15">
     <g id="line2d_48">
      <path d="M 890.205787 201.625143 
L 1283.04 201.625143 
" clip-path="url(#pcd2fe6fe80)" style="fill: none; stroke: #cccccc; stroke-linecap: round"/>
     </g>
    </g>
    <g id="ytick_16">
     <g id="line2d_49">
      <path d="M 890.205787 148.078945 
L 1283.04 148.078945 
" clip-path="url(#pcd2fe6fe80)" style="fill: none; stroke: #cccccc; stroke-linecap: round"/>
     </g>
    </g>
    <g id="ytick_17">
     <g id="line2d_50">
      <path d="M 890.205787 94.532747 
L 1283.04 94.532747 
" clip-path="url(#pcd2fe6fe80)" style="fill: none; stroke: #cccccc; stroke-linecap: round"/>
     </g>
    </g>
    <g id="ytick_18">
     <g id="line2d_51">
      <path d="M 890.205787 40.986549 
L 1283.04 40.986549 
" clip-path="url(#pcd2fe6fe80)" style="fill: none; stroke: #cccccc; stroke-linecap: round"/>
     </g>
    </g>
   </g>
   <g id="line2d_52">
    <path d="M 908.061888 58.656795 
L 931.870022 117.557612 
L 979.48629 210.727996 
L 1074.718827 261.596884 
L 1265.183899 291.582755 
" clip-path="url(#pcd2fe6fe80)" style="fill: none; stroke: #4c72b0; stroke-width: 2; stroke-linecap: round"/>
    <g clip-path="url(#pcd2fe6fe80)">
     <use xlink:href="#m153196346c" x="908.061888" y="58.656795" style="fill: #4c72b0; stroke: #4c72b0"/>
     <use xlink:href="#m153196346c" x="931.870022" y="117.557612" style="fill: #4c72b0; stroke: #4c72b0"/>
     <use xlink:href="#m153196346c" x="979.48629" y="210.727996" style="fill: #4c72b0; stroke: #4c72b0"/>
     <use xlink:href="#m153196346c" x="1074.718827" y="261.596884" style="fill: #4c72b0; stroke: #4c72b0"/>
     <use xlink:href="#m153196346c" x="1265.183899" y="291.582755" style="fill: #4c72b0; stroke: #4c72b0"/>
    </g>
   </g>
   <g id="line2d_53">
    <path d="M 908.061888 49.553941 
L 931.870022 111.66753 
L 979.48629 191.986827 
L 1074.718827 246.068487 
L 1265.183899 281.408977 
" clip-path="url(#pcd2fe6fe80)" style="fill: none; stroke: #dd8452; stroke-width: 2; stroke-linecap: round"/>
    <g clip-path="url(#pcd2fe6fe80)">
     <use xlink:href="#m5792bc08ce" x="908.061888" y="49.553941" style="fill: #dd8452; stroke: #dd8452"/>
     <use xlink:href="#m5792bc08ce" x="931.870022" y="111.66753" style="fill: #dd8452; stroke: #dd8452"/>
     <use xlink:href="#m5792bc08ce" x="979.48629" y="191.986827" style="fill: #dd8452; stroke: #dd8452"/>
     <use xlink:href="#m5792bc08ce" x="1074.718827" y="246.068487" style="fill: #dd8452; stroke: #dd8452"/>
     <use xlink:href="#m5792bc08ce" x="1265.183899" y="281.408977" style="fill: #dd8452; stroke: #dd8452"/>
    </g>
   </g>
   <g id="line2d_54">
    <path d="M 908.061888 134.156934 
L 931.870022 234.823785 
L 979.48629 296.401913 
L 1074.718827 303.89838 
L 1265.183899 305.504766 
" clip-path="url(#pcd2fe6fe80)" style="fill: none; stroke: #55a868; stroke-width: 2; stroke-linecap: round"/>
    <g clip-path="url(#pcd2fe6fe80)">
     <use xlink:href="#me3889960c6" x="908.061888" y="134.156934" style="fill: #55a868; stroke: #55a868"/>
     <use xlink:href="#me3889960c6" x="931.870022" y="234.823785" style="fill: #55a868; stroke: #55a868"/>
     <use xlink:href="#me3889960c6" x="979.48629" y="296.401913" style="fill: #55a868; stroke: #55a868"/>
     <use xlink:href="#me3889960c6" x="1074.718827" y="303.89838" style="fill: #55a868; stroke: #55a868"/>
     <use xlink:href="#me3889960c6" x="1265.183899" y="305.504766" style="fill: #55a868; stroke: #55a868"/>
    </g>
   </g>
   <g id="line2d_55">
    <path d="M 908.061888 61.334105 
L 931.870022 58.121333 
L 979.48629 174.852044 
L 1074.718827 308.717538 
L 1265.183899 308.717538 
" clip-path="url(#pcd2fe6fe80)" style="fill: none; stroke: #c44e52; stroke-width: 2; stroke-linecap: round"/>
    <g clip-path="url(#pcd2fe6fe80)">
     <use xlink:href="#mabf5a0694b" x="908.061888" y="61.334105" style="fill: #c44e52; stroke: #c44e52"/>
     <use xlink:href="#mabf5a0694b" x="931.870022" y="58.121333" style="fill: #c44e52; stroke: #c44e52"/>
     <use xlink:href="#mabf5a0694b" x="979.48629" y="174.852044" style="fill: #c44e52; stroke: #c44e52"/>
     <use xlink:href="#mabf5a0694b" x="1074.718827" y="308.717538" style="fill: #c44e52; stroke: #c44e52"/>
     <use xlink:href="#mabf5a0694b" x="1265.183899" y="308.717538" style="fill: #c44e52; stroke: #c44e52"/>
    </g>
   </g>
   <g id="line2d_56">
    <path d="M 908.061888 65.082338 
L 931.870022 72.578806 
L 979.48629 77.933426 
L 1074.718827 217.15354 
L 1265.183899 308.717538 
" clip-path="url(#pcd2fe6fe80)" style="fill: none; stroke: #8172b3; stroke-width: 2; stroke-linecap: round"/>
    <g clip-path="url(#pcd2fe6fe80)">
     <use xlink:href="#mbb113d9d40" x="908.061888" y="65.082338" style="fill: #8172b3; stroke: #8172b3"/>
     <use xlink:href="#mbb113d9d40" x="931.870022" y="72.578806" style="fill: #8172b3; stroke: #8172b3"/>
     <use xlink:href="#mbb113d9d40" x="979.48629" y="77.933426" style="fill: #8172b3; stroke: #8172b3"/>
     <use xlink:href="#mbb113d9d40" x="1074.718827" y="217.15354" style="fill: #8172b3; stroke: #8172b3"/>
     <use xlink:href="#mbb113d9d40" x="1265.183899" y="308.717538" style="fill: #8172b3; stroke: #8172b3"/>
    </g>
   </g>
   <g id="line2d_57">
    <path d="M 908.061888 42.057473 
L 931.870022 41.522011 
L 979.48629 40.986549 
L 1074.718827 125.589542 
L 1265.183899 308.717538 
" clip-path="url(#pcd2fe6fe80)" style="fill: none; stroke: #937860; stroke-width: 2; stroke-linecap: round"/>
    <g clip-path="url(#pcd2fe6fe80)">
     <use xlink:href="#m1be640218e" x="908.061888" y="42.057473" style="fill: #937860; stroke: #937860"/>
     <use xlink:href="#m1be640218e" x="931.870022" y="41.522011" style="fill: #937860; stroke: #937860"/>
     <use xlink:href="#m1be640218e" x="979.48629" y="40.986549" style="fill: #937860; stroke: #937860"/>
     <use xlink:href="#m1be640218e" x="1074.718827" y="125.589542" style="fill: #937860; stroke: #937860"/>
     <use xlink:href="#m1be640218e" x="1265.183899" y="308.717538" style="fill: #937860; stroke: #937860"/>
    </g>
   </g>
   <g id="line2d_58">
    <path d="M 908.061888 85.429894 
L 931.870022 55.444023 
L 979.48629 62.405029 
L 1074.718827 89.178127 
L 1265.183899 303.89838 
" clip-path="url(#pcd2fe6fe80)" style="fill: none; stroke: #da8bc3; stroke-width: 2; stroke-linecap: round"/>
    <g clip-path="url(#pcd2fe6fe80)">
     <use xlink:href="#m0ddf626d31" x="908.061888" y="85.429894" style="fill: #da8bc3; stroke: #da8bc3"/>
     <use xlink:href="#m0ddf626d31" x="931.870022" y="55.444023" style="fill: #da8bc3; stroke: #da8bc3"/>
     <use xlink:href="#m0ddf626d31" x="979.48629" y="62.405029" style="fill: #da8bc3; stroke: #da8bc3"/>
     <use xlink:href="#m0ddf626d31" x="1074.718827" y="89.178127" style="fill: #da8bc3; stroke: #da8bc3"/>
     <use xlink:href="#m0ddf626d31" x="1265.183899" y="303.89838" style="fill: #da8bc3; stroke: #da8bc3"/>
    </g>
   </g>
   <g id="line2d_59">
    <path d="M 908.061888 43.128397 
L 931.870022 49.018479 
L 979.48629 56.514947 
L 1074.718827 157.717261 
L 1265.183899 257.84865 
" clip-path="url(#pcd2fe6fe80)" style="fill: none; stroke: #8c8c8c; stroke-width: 2; stroke-linecap: round"/>
    <g clip-path="url(#pcd2fe6fe80)">
     <use xlink:href="#m643fe7fd39" x="908.061888" y="43.128397" style="fill: #8c8c8c; stroke: #8c8c8c"/>
     <use xlink:href="#m643fe7fd39" x="931.870022" y="49.018479" style="fill: #8c8c8c; stroke: #8c8c8c"/>
     <use xlink:href="#m643fe7fd39" x="979.48629" y="56.514947" style="fill: #8c8c8c; stroke: #8c8c8c"/>
     <use xlink:href="#m643fe7fd39" x="1074.718827" y="157.717261" style="fill: #8c8c8c; stroke: #8c8c8c"/>
     <use xlink:href="#m643fe7fd39" x="1265.183899" y="257.84865" style="fill: #8c8c8c; stroke: #8c8c8c"/>
    </g>
   </g>
   <g id="line2d_60">
    <path d="M 979.48629 322.104088 
L 979.48629 27.6 
" clip-path="url(#pcd2fe6fe80)" style="fill: none; stroke-dasharray: 5.55,2.4; stroke-dashoffset: 0; stroke: #000000; stroke-opacity: 0.8; stroke-width: 1.5"/>
   </g>
   <g id="patch_13">
    <path d="M 890.205787 322.104088 
L 890.205787 27.6 
" style="fill: none; stroke: #cccccc; stroke-width: 1.25; stroke-linejoin: miter; stroke-linecap: square"/>
   </g>
   <g id="patch_14">
    <path d="M 1283.04 322.104088 
L 1283.04 27.6 
" style="fill: none; stroke: #cccccc; stroke-width: 1.25; stroke-linejoin: miter; stroke-linecap: square"/>
   </g>
   <g id="patch_15">
    <path d="M 890.205787 322.104088 
L 1283.04 322.104088 
" style="fill: none; stroke: #cccccc; stroke-width: 1.25; stroke-linejoin: miter; stroke-linecap: square"/>
   </g>
   <g id="patch_16">
    <path d="M 890.205787 27.6 
L 1283.04 27.6 
" style="fill: none; stroke: #cccccc; stroke-width: 1.25; stroke-linejoin: miter; stroke-linecap: square"/>
   </g>
   <g id="text_28">
    <!-- S-NIAH-3 -->
    <g style="fill: #262626" transform="translate(1060.953206 21.6) scale(0.12 -0.12)">
     <use xlink:href="#ArialMT-53"/>
     <use xlink:href="#ArialMT-2d" transform="translate(66.699219 0)"/>
     <use xlink:href="#ArialMT-4e" transform="translate(100 0)"/>
     <use xlink:href="#ArialMT-49" transform="translate(172.216797 0)"/>
     <use xlink:href="#ArialMT-41" transform="translate(200 0)"/>
     <use xlink:href="#ArialMT-48" transform="translate(266.699219 0)"/>
     <use xlink:href="#ArialMT-2d" transform="translate(338.916016 0)"/>
     <use xlink:href="#ArialMT-33" transform="translate(372.216797 0)"/>
    </g>
   </g>
  </g>
  <g id="legend_1">
   <g id="line2d_61">
    <path d="M 50.844219 411.42 
L 64.844219 411.42 
L 78.844219 411.42 
" style="fill: none; stroke: #4c72b0; stroke-width: 2; stroke-linecap: round"/>
    <g>
     <use xlink:href="#m153196346c" x="64.844219" y="411.42" style="fill: #4c72b0; stroke: #4c72b0"/>
    </g>
   </g>
   <g id="text_29">
    <!-- GDN -->
    <g style="fill: #262626" transform="translate(90.044219 416.32) scale(0.14 -0.14)">
     <defs>
      <path id="ArialMT-47" d="M 2638 1797 
L 2638 2334 
L 4578 2338 
L 4578 638 
Q 4131 281 3656 101 
Q 3181 -78 2681 -78 
Q 2006 -78 1454 211 
Q 903 500 622 1047 
Q 341 1594 341 2269 
Q 341 2938 620 3517 
Q 900 4097 1425 4378 
Q 1950 4659 2634 4659 
Q 3131 4659 3532 4498 
Q 3934 4338 4162 4050 
Q 4391 3763 4509 3300 
L 3963 3150 
Q 3859 3500 3706 3700 
Q 3553 3900 3268 4020 
Q 2984 4141 2638 4141 
Q 2222 4141 1919 4014 
Q 1616 3888 1430 3681 
Q 1244 3475 1141 3228 
Q 966 2803 966 2306 
Q 966 1694 1177 1281 
Q 1388 869 1791 669 
Q 2194 469 2647 469 
Q 3041 469 3416 620 
Q 3791 772 3984 944 
L 3984 1797 
L 2638 1797 
z
" transform="scale(0.015625)"/>
      <path id="ArialMT-44" d="M 494 0 
L 494 4581 
L 2072 4581 
Q 2606 4581 2888 4516 
Q 3281 4425 3559 4188 
Q 3922 3881 4101 3404 
Q 4281 2928 4281 2316 
Q 4281 1794 4159 1391 
Q 4038 988 3847 723 
Q 3656 459 3429 307 
Q 3203 156 2883 78 
Q 2563 0 2147 0 
L 494 0 
z
M 1100 541 
L 2078 541 
Q 2531 541 2789 625 
Q 3047 709 3200 863 
Q 3416 1078 3536 1442 
Q 3656 1806 3656 2325 
Q 3656 3044 3420 3430 
Q 3184 3816 2847 3947 
Q 2603 4041 2063 4041 
L 1100 4041 
L 1100 541 
z
" transform="scale(0.015625)"/>
     </defs>
     <use xlink:href="#ArialMT-47"/>
     <use xlink:href="#ArialMT-44" transform="translate(77.783203 0)"/>
     <use xlink:href="#ArialMT-4e" transform="translate(150 0)"/>
    </g>
   </g>
   <g id="line2d_62">
    <path d="M 149.154844 411.42 
L 163.154844 411.42 
L 177.154844 411.42 
" style="fill: none; stroke: #dd8452; stroke-width: 2; stroke-linecap: round"/>
    <g>
     <use xlink:href="#m5792bc08ce" x="163.154844" y="411.42" style="fill: #dd8452; stroke: #dd8452"/>
    </g>
   </g>
   <g id="text_30">
    <!-- GDN[-1,1] -->
    <g style="fill: #262626" transform="translate(188.354844 416.32) scale(0.14 -0.14)">
     <defs>
      <path id="ArialMT-5b" d="M 434 -1272 
L 434 4581 
L 1675 4581 
L 1675 4116 
L 997 4116 
L 997 -806 
L 1675 -806 
L 1675 -1272 
L 434 -1272 
z
" transform="scale(0.015625)"/>
      <path id="ArialMT-2c" d="M 569 0 
L 569 641 
L 1209 641 
L 1209 0 
Q 1209 -353 1084 -570 
Q 959 -788 688 -906 
L 531 -666 
Q 709 -588 793 -436 
Q 878 -284 888 0 
L 569 0 
z
" transform="scale(0.015625)"/>
      <path id="ArialMT-5d" d="M 1363 -1272 
L 122 -1272 
L 122 -806 
L 800 -806 
L 800 4116 
L 122 4116 
L 122 4581 
L 1363 4581 
L 1363 -1272 
z
" transform="scale(0.015625)"/>
     </defs>
     <use xlink:href="#ArialMT-47"/>
     <use xlink:href="#ArialMT-44" transform="translate(77.783203 0)"/>
     <use xlink:href="#ArialMT-4e" transform="translate(150 0)"/>
     <use xlink:href="#ArialMT-5b" transform="translate(222.216797 0)"/>
     <use xlink:href="#ArialMT-2d" transform="translate(250 0)"/>
     <use xlink:href="#ArialMT-31" transform="translate(283.300781 0)"/>
     <use xlink:href="#ArialMT-2c" transform="translate(338.916016 0)"/>
     <use xlink:href="#ArialMT-31" transform="translate(366.699219 0)"/>
     <use xlink:href="#ArialMT-5d" transform="translate(422.314453 0)"/>
    </g>
   </g>
   <g id="line2d_63">
    <path d="M 279.365781 411.42 
L 293.365781 411.42 
L 307.365781 411.42 
" style="fill: none; stroke: #55a868; stroke-width: 2; stroke-linecap: round"/>
    <g>
     <use xlink:href="#me3889960c6" x="293.365781" y="411.42" style="fill: #55a868; stroke: #55a868"/>
    </g>
   </g>
   <g id="text_31">
    <!-- M$^2$RNN -->
    <g style="fill: #262626" transform="translate(318.565781 416.32) scale(0.14 -0.14)">
     <defs>
      <path id="ArialMT-4d" d="M 475 0 
L 475 4581 
L 1388 4581 
L 2472 1338 
Q 2622 884 2691 659 
Q 2769 909 2934 1394 
L 4031 4581 
L 4847 4581 
L 4847 0 
L 4263 0 
L 4263 3834 
L 2931 0 
L 2384 0 
L 1059 3900 
L 1059 0 
L 475 0 
z
" transform="scale(0.015625)"/>
      <path id="DejaVuSans-32" d="M 1228 531 
L 3431 531 
L 3431 0 
L 469 0 
L 469 531 
Q 828 903 1448 1529 
Q 2069 2156 2228 2338 
Q 2531 2678 2651 2914 
Q 2772 3150 2772 3378 
Q 2772 3750 2511 3984 
Q 2250 4219 1831 4219 
Q 1534 4219 1204 4116 
Q 875 4013 500 3803 
L 500 4441 
Q 881 4594 1212 4672 
Q 1544 4750 1819 4750 
Q 2544 4750 2975 4387 
Q 3406 4025 3406 3419 
Q 3406 3131 3298 2873 
Q 3191 2616 2906 2266 
Q 2828 2175 2409 1742 
Q 1991 1309 1228 531 
z
" transform="scale(0.015625)"/>
      <path id="ArialMT-52" d="M 503 0 
L 503 4581 
L 2534 4581 
Q 3147 4581 3465 4457 
Q 3784 4334 3975 4021 
Q 4166 3709 4166 3331 
Q 4166 2844 3850 2509 
Q 3534 2175 2875 2084 
Q 3116 1969 3241 1856 
Q 3506 1613 3744 1247 
L 4541 0 
L 3778 0 
L 3172 953 
Q 2906 1366 2734 1584 
Q 2563 1803 2427 1890 
Q 2291 1978 2150 2013 
Q 2047 2034 1813 2034 
L 1109 2034 
L 1109 0 
L 503 0 
z
M 1109 2559 
L 2413 2559 
Q 2828 2559 3062 2645 
Q 3297 2731 3419 2920 
Q 3541 3109 3541 3331 
Q 3541 3656 3305 3865 
Q 3069 4075 2559 4075 
L 1109 4075 
L 1109 2559 
z
" transform="scale(0.015625)"/>
     </defs>
     <use xlink:href="#ArialMT-4d" transform="translate(0 0.765625)"/>
     <use xlink:href="#DejaVuSans-32" transform="translate(84.257812 39.046875) scale(0.7)"/>
     <use xlink:href="#ArialMT-52" transform="translate(131.52832 0.765625)"/>
     <use xlink:href="#ArialMT-4e" transform="translate(203.745117 0.765625)"/>
     <use xlink:href="#ArialMT-4e" transform="translate(275.961914 0.765625)"/>
    </g>
   </g>
   <g id="line2d_64">
    <path d="M 395.425781 411.42 
L 409.425781 411.42 
L 423.425781 411.42 
" style="fill: none; stroke: #c44e52; stroke-width: 2; stroke-linecap: round"/>
    <g>
     <use xlink:href="#mabf5a0694b" x="409.425781" y="411.42" style="fill: #c44e52; stroke: #c44e52"/>
    </g>
   </g>
   <g id="text_32">
    <!-- Transformer++ -->
    <g style="fill: #262626" transform="translate(434.625781 416.32) scale(0.14 -0.14)">
     <defs>
      <path id="ArialMT-54" d="M 1659 0 
L 1659 4041 
L 150 4041 
L 150 4581 
L 3781 4581 
L 3781 4041 
L 2266 4041 
L 2266 0 
L 1659 0 
z
" transform="scale(0.015625)"/>
      <path id="ArialMT-73" d="M 197 991 
L 753 1078 
Q 800 744 1014 566 
Q 1228 388 1613 388 
Q 2000 388 2187 545 
Q 2375 703 2375 916 
Q 2375 1106 2209 1216 
Q 2094 1291 1634 1406 
Q 1016 1563 777 1677 
Q 538 1791 414 1992 
Q 291 2194 291 2438 
Q 291 2659 392 2848 
Q 494 3038 669 3163 
Q 800 3259 1026 3326 
Q 1253 3394 1513 3394 
Q 1903 3394 2198 3281 
Q 2494 3169 2634 2976 
Q 2775 2784 2828 2463 
L 2278 2388 
Q 2241 2644 2061 2787 
Q 1881 2931 1553 2931 
Q 1166 2931 1000 2803 
Q 834 2675 834 2503 
Q 834 2394 903 2306 
Q 972 2216 1119 2156 
Q 1203 2125 1616 2013 
Q 2213 1853 2448 1751 
Q 2684 1650 2818 1456 
Q 2953 1263 2953 975 
Q 2953 694 2789 445 
Q 2625 197 2315 61 
Q 2006 -75 1616 -75 
Q 969 -75 630 194 
Q 291 463 197 991 
z
" transform="scale(0.015625)"/>
      <path id="ArialMT-66" d="M 556 0 
L 556 2881 
L 59 2881 
L 59 3319 
L 556 3319 
L 556 3672 
Q 556 4006 616 4169 
Q 697 4388 901 4523 
Q 1106 4659 1475 4659 
Q 1713 4659 2000 4603 
L 1916 4113 
Q 1741 4144 1584 4144 
Q 1328 4144 1222 4034 
Q 1116 3925 1116 3625 
L 1116 3319 
L 1763 3319 
L 1763 2881 
L 1116 2881 
L 1116 0 
L 556 0 
z
" transform="scale(0.015625)"/>
      <path id="ArialMT-6f" d="M 213 1659 
Q 213 2581 725 3025 
Q 1153 3394 1769 3394 
Q 2453 3394 2887 2945 
Q 3322 2497 3322 1706 
Q 3322 1066 3130 698 
Q 2938 331 2570 128 
Q 2203 -75 1769 -75 
Q 1072 -75 642 372 
Q 213 819 213 1659 
z
M 791 1659 
Q 791 1022 1069 705 
Q 1347 388 1769 388 
Q 2188 388 2466 706 
Q 2744 1025 2744 1678 
Q 2744 2294 2464 2611 
Q 2184 2928 1769 2928 
Q 1347 2928 1069 2612 
Q 791 2297 791 1659 
z
" transform="scale(0.015625)"/>
      <path id="ArialMT-6d" d="M 422 0 
L 422 3319 
L 925 3319 
L 925 2853 
Q 1081 3097 1340 3245 
Q 1600 3394 1931 3394 
Q 2300 3394 2536 3241 
Q 2772 3088 2869 2813 
Q 3263 3394 3894 3394 
Q 4388 3394 4653 3120 
Q 4919 2847 4919 2278 
L 4919 0 
L 4359 0 
L 4359 2091 
Q 4359 2428 4304 2576 
Q 4250 2725 4106 2815 
Q 3963 2906 3769 2906 
Q 3419 2906 3187 2673 
Q 2956 2441 2956 1928 
L 2956 0 
L 2394 0 
L 2394 2156 
Q 2394 2531 2256 2718 
Q 2119 2906 1806 2906 
Q 1569 2906 1367 2781 
Q 1166 2656 1075 2415 
Q 984 2175 984 1722 
L 984 0 
L 422 0 
z
" transform="scale(0.015625)"/>
      <path id="ArialMT-2b" d="M 1603 741 
L 1603 1997 
L 356 1997 
L 356 2522 
L 1603 2522 
L 1603 3769 
L 2134 3769 
L 2134 2522 
L 3381 2522 
L 3381 1997 
L 2134 1997 
L 2134 741 
L 1603 741 
z
" transform="scale(0.015625)"/>
     </defs>
     <use xlink:href="#ArialMT-54"/>
     <use xlink:href="#ArialMT-72" transform="translate(57.333984 0)"/>
     <use xlink:href="#ArialMT-61" transform="translate(90.634766 0)"/>
     <use xlink:href="#ArialMT-6e" transform="translate(146.25 0)"/>
     <use xlink:href="#ArialMT-73" transform="translate(201.865234 0)"/>
     <use xlink:href="#ArialMT-66" transform="translate(251.865234 0)"/>
     <use xlink:href="#ArialMT-6f" transform="translate(279.648438 0)"/>
     <use xlink:href="#ArialMT-72" transform="translate(335.263672 0)"/>
     <use xlink:href="#ArialMT-6d" transform="translate(368.564453 0)"/>
     <use xlink:href="#ArialMT-65" transform="translate(451.865234 0)"/>
     <use xlink:href="#ArialMT-72" transform="translate(507.480469 0)"/>
     <use xlink:href="#ArialMT-2b" transform="translate(540.78125 0)"/>
     <use xlink:href="#ArialMT-2b" transform="translate(599.179688 0)"/>
    </g>
   </g>
   <g id="line2d_65">
    <path d="M 554.682344 411.42 
L 568.682344 411.42 
L 582.682344 411.42 
" style="fill: none; stroke: #8172b3; stroke-width: 2; stroke-linecap: round"/>
    <g>
     <use xlink:href="#mbb113d9d40" x="568.682344" y="411.42" style="fill: #8172b3; stroke: #8172b3"/>
    </g>
   </g>
   <g id="text_33">
    <!-- Hybrid GDN -->
    <g style="fill: #262626" transform="translate(593.882344 416.32) scale(0.14 -0.14)">
     <defs>
      <path id="ArialMT-62" d="M 941 0 
L 419 0 
L 419 4581 
L 981 4581 
L 981 2947 
Q 1338 3394 1891 3394 
Q 2197 3394 2470 3270 
Q 2744 3147 2920 2923 
Q 3097 2700 3197 2384 
Q 3297 2069 3297 1709 
Q 3297 856 2875 390 
Q 2453 -75 1863 -75 
Q 1275 -75 941 416 
L 941 0 
z
M 934 1684 
Q 934 1088 1097 822 
Q 1363 388 1816 388 
Q 2184 388 2453 708 
Q 2722 1028 2722 1663 
Q 2722 2313 2464 2622 
Q 2206 2931 1841 2931 
Q 1472 2931 1203 2611 
Q 934 2291 934 1684 
z
" transform="scale(0.015625)"/>
      <path id="ArialMT-69" d="M 425 3934 
L 425 4581 
L 988 4581 
L 988 3934 
L 425 3934 
z
M 425 0 
L 425 3319 
L 988 3319 
L 988 0 
L 425 0 
z
" transform="scale(0.015625)"/>
      <path id="ArialMT-64" d="M 2575 0 
L 2575 419 
Q 2259 -75 1647 -75 
Q 1250 -75 917 144 
Q 584 363 401 755 
Q 219 1147 219 1656 
Q 219 2153 384 2558 
Q 550 2963 881 3178 
Q 1213 3394 1622 3394 
Q 1922 3394 2156 3267 
Q 2391 3141 2538 2938 
L 2538 4581 
L 3097 4581 
L 3097 0 
L 2575 0 
z
M 797 1656 
Q 797 1019 1065 703 
Q 1334 388 1700 388 
Q 2069 388 2326 689 
Q 2584 991 2584 1609 
Q 2584 2291 2321 2609 
Q 2059 2928 1675 2928 
Q 1300 2928 1048 2622 
Q 797 2316 797 1656 
z
" transform="scale(0.015625)"/>
     </defs>
     <use xlink:href="#ArialMT-48"/>
     <use xlink:href="#ArialMT-79" transform="translate(72.216797 0)"/>
     <use xlink:href="#ArialMT-62" transform="translate(122.216797 0)"/>
     <use xlink:href="#ArialMT-72" transform="translate(177.832031 0)"/>
     <use xlink:href="#ArialMT-69" transform="translate(211.132812 0)"/>
     <use xlink:href="#ArialMT-64" transform="translate(233.349609 0)"/>
     <use xlink:href="#ArialMT-20" transform="translate(288.964844 0)"/>
     <use xlink:href="#ArialMT-47" transform="translate(316.748047 0)"/>
     <use xlink:href="#ArialMT-44" transform="translate(394.53125 0)"/>
     <use xlink:href="#ArialMT-4e" transform="translate(466.748047 0)"/>
    </g>
   </g>
   <g id="line2d_66">
    <path d="M 697.335781 411.42 
L 711.335781 411.42 
L 725.335781 411.42 
" style="fill: none; stroke: #937860; stroke-width: 2; stroke-linecap: round"/>
    <g>
     <use xlink:href="#m1be640218e" x="711.335781" y="411.42" style="fill: #937860; stroke: #937860"/>
    </g>
   </g>
   <g id="text_34">
    <!-- Hybrid M$^2$RNN -->
    <g style="fill: #262626" transform="translate(736.535781 416.32) scale(0.14 -0.14)">
     <use xlink:href="#ArialMT-48" transform="translate(0 0.765625)"/>
     <use xlink:href="#ArialMT-79" transform="translate(72.216797 0.765625)"/>
     <use xlink:href="#ArialMT-62" transform="translate(122.216797 0.765625)"/>
     <use xlink:href="#ArialMT-72" transform="translate(177.832031 0.765625)"/>
     <use xlink:href="#ArialMT-69" transform="translate(211.132812 0.765625)"/>
     <use xlink:href="#ArialMT-64" transform="translate(233.349609 0.765625)"/>
     <use xlink:href="#ArialMT-20" transform="translate(288.964844 0.765625)"/>
     <use xlink:href="#ArialMT-4d" transform="translate(316.748047 0.765625)"/>
     <use xlink:href="#DejaVuSans-32" transform="translate(401.005859 39.046875) scale(0.7)"/>
     <use xlink:href="#ArialMT-52" transform="translate(448.276367 0.765625)"/>
     <use xlink:href="#ArialMT-4e" transform="translate(520.493164 0.765625)"/>
     <use xlink:href="#ArialMT-4e" transform="translate(592.709961 0.765625)"/>
    </g>
   </g>
   <g id="line2d_67">
    <path d="M 857.635781 411.42 
L 871.635781 411.42 
L 885.635781 411.42 
" style="fill: none; stroke: #da8bc3; stroke-width: 2; stroke-linecap: round"/>
    <g>
     <use xlink:href="#m0ddf626d31" x="871.635781" y="411.42" style="fill: #da8bc3; stroke: #da8bc3"/>
    </g>
   </g>
   <g id="text_35">
    <!-- Hybrid GDN M$^2$RNN-1 -->
    <g style="fill: #262626" transform="translate(896.835781 416.32) scale(0.14 -0.14)">
     <use xlink:href="#ArialMT-48" transform="translate(0 0.765625)"/>
     <use xlink:href="#ArialMT-79" transform="translate(72.216797 0.765625)"/>
     <use xlink:href="#ArialMT-62" transform="translate(122.216797 0.765625)"/>
     <use xlink:href="#ArialMT-72" transform="translate(177.832031 0.765625)"/>
     <use xlink:href="#ArialMT-69" transform="translate(211.132812 0.765625)"/>
     <use xlink:href="#ArialMT-64" transform="translate(233.349609 0.765625)"/>
     <use xlink:href="#ArialMT-20" transform="translate(288.964844 0.765625)"/>
     <use xlink:href="#ArialMT-47" transform="translate(316.748047 0.765625)"/>
     <use xlink:href="#ArialMT-44" transform="translate(394.53125 0.765625)"/>
     <use xlink:href="#ArialMT-4e" transform="translate(466.748047 0.765625)"/>
     <use xlink:href="#ArialMT-20" transform="translate(538.964844 0.765625)"/>
     <use xlink:href="#ArialMT-4d" transform="translate(566.748047 0.765625)"/>
     <use xlink:href="#DejaVuSans-32" transform="translate(651.005859 39.046875) scale(0.7)"/>
     <use xlink:href="#ArialMT-52" transform="translate(698.276367 0.765625)"/>
     <use xlink:href="#ArialMT-4e" transform="translate(770.493164 0.765625)"/>
     <use xlink:href="#ArialMT-4e" transform="translate(842.709961 0.765625)"/>
     <use xlink:href="#ArialMT-2d" transform="translate(914.926758 0.765625)"/>
     <use xlink:href="#ArialMT-31" transform="translate(948.227539 0.765625)"/>
    </g>
   </g>
   <g id="line2d_68">
    <path d="M 1065.395781 411.42 
L 1079.395781 411.42 
L 1093.395781 411.42 
" style="fill: none; stroke: #8c8c8c; stroke-width: 2; stroke-linecap: round"/>
    <g>
     <use xlink:href="#m643fe7fd39" x="1079.395781" y="411.42" style="fill: #8c8c8c; stroke: #8c8c8c"/>
    </g>
   </g>
   <g id="text_36">
    <!-- Hybrid GDN M$^2$RNN-3 -->
    <g style="fill: #262626" transform="translate(1104.595781 416.32) scale(0.14 -0.14)">
     <use xlink:href="#ArialMT-48" transform="translate(0 0.765625)"/>
     <use xlink:href="#ArialMT-79" transform="translate(72.216797 0.765625)"/>
     <use xlink:href="#ArialMT-62" transform="translate(122.216797 0.765625)"/>
     <use xlink:href="#ArialMT-72" transform="translate(177.832031 0.765625)"/>
     <use xlink:href="#ArialMT-69" transform="translate(211.132812 0.765625)"/>
     <use xlink:href="#ArialMT-64" transform="translate(233.349609 0.765625)"/>
     <use xlink:href="#ArialMT-20" transform="translate(288.964844 0.765625)"/>
     <use xlink:href="#ArialMT-47" transform="translate(316.748047 0.765625)"/>
     <use xlink:href="#ArialMT-44" transform="translate(394.53125 0.765625)"/>
     <use xlink:href="#ArialMT-4e" transform="translate(466.748047 0.765625)"/>
     <use xlink:href="#ArialMT-20" transform="translate(538.964844 0.765625)"/>
     <use xlink:href="#ArialMT-4d" transform="translate(566.748047 0.765625)"/>
     <use xlink:href="#DejaVuSans-32" transform="translate(651.005859 39.046875) scale(0.7)"/>
     <use xlink:href="#ArialMT-52" transform="translate(698.276367 0.765625)"/>
     <use xlink:href="#ArialMT-4e" transform="translate(770.493164 0.765625)"/>
     <use xlink:href="#ArialMT-4e" transform="translate(842.709961 0.765625)"/>
     <use xlink:href="#ArialMT-2d" transform="translate(914.926758 0.765625)"/>
     <use xlink:href="#ArialMT-33" transform="translate(948.227539 0.765625)"/>
    </g>
   </g>
  </g>
 </g>
 <defs>
  <clipPath id="pbba5e37d73">
   <rect x="56.025" y="27.6" width="392.834213" height="294.504088"/>
  </clipPath>
  <clipPath id="pdee9624735">
   <rect x="473.115394" y="27.6" width="392.834213" height="294.504088"/>
  </clipPath>
  <clipPath id="pcd2fe6fe80">
   <rect x="890.205787" y="27.6" width="392.834213" height="294.504088"/>
  </clipPath>
 </defs>
</svg>
